<?xml version="1.0" encoding="UTF-8"?>
<svg version="1.1" xmlns="http://www.w3.org/2000/svg" width="1536" height="1024">
<path d="M0 0 C506.88 0 1013.76 0 1536 0 C1536 337.92 1536 675.84 1536 1024 C1029.12 1024 522.24 1024 0 1024 C0 686.08 0 348.16 0 0 Z " fill="#FCFCFC" transform="translate(0,0)"/>
<path d="M0 0 C1.76923828 0.01353516 1.76923828 0.01353516 3.57421875 0.02734375 C6.38306769 0.05017992 9.19139285 0.08250478 12 0.125 C11.2240639 4.96397314 9.23856134 7.88813043 6.1875 11.625 C5.70120117 12.23230957 5.21490234 12.83961914 4.71386719 13.46533203 C0.34315906 18.85271094 -4.31111447 23.9555966 -9.078125 28.9921875 C-11.18091488 31.2173903 -13.19411378 33.50066687 -15.1875 35.82421875 C-19.36631863 40.62449099 -23.82380553 45.13487924 -28.32324219 49.63354492 C-29.73919947 51.05168284 -31.14698289 52.47796665 -32.5546875 53.90429688 C-38.72397096 60.08646881 -45.15497251 65.70652292 -52 71.125 C-53.24259402 72.13853384 -54.48371066 73.15388454 -55.72265625 74.171875 C-73.21857735 88.39101112 -91.64418025 100.57131546 -111 112.125 C-111.90621094 112.67043457 -112.81242187 113.21586914 -113.74609375 113.77783203 C-180.20084221 153.61780775 -256.21829809 174.36274208 -332.5 184.4375 C-333.61068848 184.58477539 -334.72137695 184.73205078 -335.86572266 184.88378906 C-358.19640575 187.66089746 -380.45347427 188.43304303 -402.9314401 188.44167739 C-407.01136296 188.44543854 -411.09124768 188.46062736 -415.17114735 188.47425461 C-423.18516093 188.49928796 -431.1991619 188.51410336 -439.21320511 188.52554139 C-448.72435897 188.53960306 -458.23547467 188.56489166 -467.74660336 188.59046401 C-487.17326122 188.64227782 -506.59993094 188.68107939 -526.02662653 188.71542275 C-540.86457031 188.74171213 -555.70250354 188.77145562 -570.54043579 188.80358887 C-574.78653811 188.81275015 -579.03264045 188.82189981 -583.27874279 188.83104706 C-584.8561297 188.83444697 -584.8561297 188.83444697 -586.46538302 188.83791557 C-625.54014865 188.92196737 -664.61492791 188.99295508 -703.68973291 189.05583477 C-731.07719288 189.09992023 -758.4646225 189.15130612 -785.85205078 189.21191406 C-811.93894552 189.26955692 -838.02582656 189.31733763 -864.11277008 189.34639931 C-866.71244813 189.34931178 -869.31212617 189.35223313 -871.9118042 189.35516357 C-873.81672402 189.3573001 -873.81672402 189.3573001 -875.76012707 189.35947978 C-884.63479989 189.37012623 -893.50944031 189.38804518 -902.38409424 189.40899658 C-912.99211819 189.43390792 -923.60009086 189.44856576 -934.20814532 189.44893897 C-939.48353549 189.44935956 -944.75880512 189.45431934 -950.03416634 189.47258377 C-954.77334414 189.48887608 -959.51231642 189.49136727 -964.25151229 189.48257709 C-965.94705456 189.48183702 -967.64260844 189.48613109 -969.33812165 189.49608541 C-980.45341289 189.55774028 -990.9451065 189.45515188 -1000 182.125 C-1008.32702942 172.72480467 -1011.70560268 158.66050223 -1015.75 146.9375 C-1016.78821984 143.94540694 -1017.83033295 140.95469165 -1018.875 137.96484375 C-1019.13456482 137.22147766 -1019.39412964 136.47811157 -1019.66156006 135.71221924 C-1021.37083406 130.84396303 -1023.15433298 126.00948788 -1025 121.19140625 C-1025.46438477 119.97283936 -1025.92876953 118.75427246 -1026.40722656 117.4987793 C-1027.27831607 115.22903679 -1028.15987081 112.96327246 -1029.05371094 110.70239258 C-1031.27977621 104.88543914 -1032.50842297 100.36065821 -1032 94.125 C-1027.06803088 91.65107182 -1021.96506268 91.43993093 -1016.55810547 90.95166016 C-1015.50478531 90.850504 -1014.45146515 90.74934784 -1013.3662262 90.64512634 C-1009.86718699 90.3109207 -1006.36723943 89.98747568 -1002.8671875 89.6640625 C-1000.39895595 89.43052866 -997.93078674 89.19633506 -995.462677 88.96151733 C-989.59303632 88.40472453 -983.72278548 87.85470591 -977.85220635 87.30792081 C-970.70550475 86.64186938 -963.55980207 85.96534113 -956.4140625 85.2890625 C-937.43199932 83.49506962 -918.44814126 81.72043495 -899.46264648 79.96313477 C-874.18607703 77.62695567 -874.18607703 77.62695567 -848.92938232 75.08636475 C-826.92184488 72.78320858 -804.89929894 70.63531153 -782.875 68.5 C-782.11617649 68.4264114 -781.35735298 68.3528228 -780.57553482 68.27700424 C-771.79908 67.42596312 -763.02244848 66.57675786 -754.24569988 65.72875214 C-749.55971855 65.27593898 -744.8738277 64.82219992 -740.18798828 64.36791992 C-722.83114608 62.68551028 -705.47289757 61.01817585 -688.1140461 59.35665703 C-655.05540023 56.19516515 -655.05540023 56.19516515 -622 53 C-621.2272171 52.92485168 -620.4544342 52.84970337 -619.65823364 52.77227783 C-607.9288175 51.62918218 -596.2053759 50.43076495 -584.48242188 49.22338867 C-567.68815249 47.49397499 -550.89764164 45.79574061 -534.07617188 44.3503418 C-520.08981541 43.14729115 -506.11152829 41.85905632 -492.13319778 40.56643295 C-490.06414496 40.37515207 -487.99507268 40.18408301 -485.92599487 39.99307251 C-469.80390512 38.50449503 -453.68299616 37.00370895 -437.56343269 35.48801422 C-435.03461336 35.25031614 -432.50576834 35.01289331 -429.97691345 34.77557373 C-429.14588136 34.69758167 -428.31484926 34.61958961 -427.45863438 34.53923416 C-425.78854261 34.3825016 -424.11844971 34.22578108 -422.44835567 34.06907272 C-418.39970026 33.68900495 -414.3511352 33.30802027 -410.30276489 32.92492676 C-394.3437501 31.41488887 -378.3879912 29.9544455 -362.40116882 28.76344299 C-355.21178424 28.22686788 -348.04346409 27.58181273 -340.875 26.8125 C-327.09569206 25.39033463 -313.30277963 24.12972025 -299.50567627 22.89346313 C-297.08938803 22.67692802 -294.67316602 22.45965229 -292.25701904 22.24154663 C-278.3556152 20.98808165 -264.45322753 19.84886698 -250.53097534 18.85319519 C-243.31319069 18.32624726 -236.1274262 17.65371594 -228.93508911 16.85676575 C-220.20377813 15.90161604 -211.4508379 15.2593257 -202.69247437 14.60791016 C-197.04191631 14.18743631 -191.3920881 13.75732809 -185.7421875 13.328125 C-184.51104721 13.23478882 -183.27990692 13.14145264 -182.01145935 13.04528809 C-171.88357864 12.2748736 -161.75794798 11.47749936 -151.6328125 10.671875 C-150.84265181 10.6090332 -150.05249111 10.54619141 -149.23838615 10.48144531 C-146.00665292 10.22441454 -142.77492596 9.96730505 -139.54320431 9.71012878 C-111.96920187 7.51598045 -84.39388018 5.37086467 -56.80151367 3.41796875 C-54.76871147 3.27352157 -52.7359151 3.1289924 -50.703125 2.984375 C-49.73288895 2.9158432 -48.76265289 2.8473114 -47.76301575 2.77670288 C-41.68212079 2.3402416 -35.61004872 1.83474506 -29.53729248 1.2973938 C-19.65410478 0.42830914 -9.9277556 -0.15309706 0 0 Z " fill="#6F6F6F" transform="translate(1353,462.875)"/>
<path d="M0 0 C4.68807554 3.48455322 9.41940452 6.90559057 14.1640625 10.3125 C20.45555743 14.8386426 26.68521157 19.43782617 32.87451172 24.10253906 C40.3898303 29.76352442 47.97268171 35.33210722 55.55322266 40.90527344 C60.32339642 44.41346087 65.08939411 47.92732165 69.85522461 51.44140625 C73.78512297 54.33852167 77.71762964 57.23193824 81.65625 60.1171875 C83.22153523 61.26537821 84.7866392 62.41381605 86.3515625 63.5625 C87.12218018 64.12759277 87.89279785 64.69268555 88.68676758 65.27490234 C93.01614301 68.4628035 97.30418156 71.69697465 101.55859375 74.984375 C102.4933252 75.70512207 103.42805664 76.42586914 104.39111328 77.16845703 C106.18977839 78.559184 107.98401573 79.95566377 109.77294922 81.35888672 C121.4530885 90.38912153 130.3485091 91.7409513 144.9765625 92.125 C155.14085317 92.4317719 165.26812059 92.91723791 175.4140625 93.625 C188.40731473 94.52019287 201.4018635 95.1413798 214.4140625 95.6875 C216.39697568 95.771413 218.37988583 95.85539753 220.36279297 95.93945312 C223.33641278 96.06538499 226.31003318 96.19130194 229.28366089 96.31704712 C255.53480535 97.42959808 281.71032102 98.82588492 307.889328 101.09138489 C314.37634238 101.64780365 320.86736226 102.14638494 327.359375 102.640625 C360.97236191 105.20594036 394.56579119 108.02945842 428.10546875 111.42712402 C430.62097231 111.68165751 433.13675796 111.93342022 435.65283203 112.18225098 C439.16672052 112.53140093 442.67914427 112.89270403 446.19140625 113.2578125 C447.21084824 113.35770477 448.23029022 113.45759705 449.28062439 113.56051636 C468.44729708 115.60993623 468.44729708 115.60993623 473.9765625 120.6875 C474.5390625 123.125 474.5390625 123.125 473.9765625 125.6875 C468.69807735 131.12123471 462.36718471 131.97009226 455.09790039 132.34179688 C454.33107941 132.3876442 453.56425842 132.43349152 452.77420044 132.48072815 C450.24957761 132.62998318 447.7244624 132.76793519 445.19921875 132.90625 C443.42763742 133.00982987 441.65610772 133.11429622 439.8846283 133.21960449 C435.22025472 133.49523584 430.55542596 133.76206505 425.89038086 134.02606201 C418.45734846 134.44691077 411.02481424 134.87570222 403.59283257 135.31471252 C401.01941983 135.46465954 398.44568555 135.60755827 395.87184143 135.74987793 C387.2367669 136.24482789 378.75585062 137.02460771 370.18980408 138.24938965 C366.2158498 138.79121959 362.31094121 139.06453443 358.3046875 139.25 C357.57853241 139.28609375 356.85237732 139.3221875 356.10421753 139.359375 C354.58556613 139.43484503 353.06679421 139.50792785 351.5479126 139.57861328 C336.29718377 140.27198159 336.29718377 140.27198159 321.1015625 141.6875 C313.73678867 142.55521759 306.37748269 143.09652913 298.9765625 143.5625 C261.02334816 145.98236072 223.13883511 149.27840324 185.28814697 152.94815063 C175.06520089 153.93897891 164.84823394 154.90985608 154.6015625 155.625 C152.32157884 155.78987101 150.04163334 155.95527036 147.76171875 156.12109375 C146.53598145 156.20987793 145.31024414 156.29866211 144.04736328 156.39013672 C136.88891538 156.91130235 129.73183415 157.45055907 122.57513428 157.99514771 C120.92029814 158.12066132 119.2653935 158.24527581 117.6104126 158.36886597 C107.93216273 159.0919108 98.27453669 159.92857757 88.61962891 160.91651917 C82.5557773 161.5357096 76.48903731 162.10858118 70.41796875 162.65234375 C69.52572098 162.73243683 68.63347321 162.81252991 67.71418762 162.89505005 C64.09776436 163.21895608 60.48122257 163.54149133 56.86450195 163.86206055 C45.49746644 164.87147239 34.14541397 165.97536258 22.796875 167.17578125 C9.85626175 168.53748403 -3.09468768 169.62998246 -16.06610107 170.64904785 C-38.38318364 172.4152205 -60.64211762 174.51222956 -82.8984375 176.9375 C-110.46237314 179.93862865 -138.04690943 182.67953568 -165.6484375 185.3125 C-166.66379326 185.4094453 -167.67914902 185.50639061 -168.72527313 185.60627365 C-194.76942843 188.09210444 -220.81824326 190.50878338 -246.88076782 192.79443359 C-268.85985 194.72354732 -290.80599668 196.91517979 -312.72265625 199.4609375 C-329.27681263 201.37544174 -345.8532829 202.85291588 -362.45898438 204.2421875 C-371.57789182 205.00897489 -380.68096917 205.82715154 -389.77284241 206.86842346 C-396.58078004 207.64710568 -403.39471316 208.36027948 -410.2109375 209.0625 C-411.44041107 209.18917557 -412.66988464 209.31585114 -413.93661499 209.44636536 C-417.26500736 209.78872394 -420.59345593 210.13052396 -423.92194748 210.4719162 C-426.04817101 210.69003732 -428.1743725 210.90837218 -430.30056763 211.12677002 C-439.09473493 212.03003122 -447.88905943 212.93175255 -456.68345928 213.83274651 C-463.64696365 214.54624134 -470.61035729 215.26081204 -477.57373047 215.97558594 C-487.55414082 216.99997797 -497.534704 218.02286948 -507.5154171 219.04430771 C-513.02215586 219.60788593 -518.5288428 220.17195876 -524.03540039 220.73730469 C-529.2745241 221.27514062 -534.51381168 221.81135245 -539.75322151 222.34639359 C-541.69227909 222.5446733 -543.63128028 222.7435053 -545.57021904 222.94294357 C-554.87539588 223.89972903 -564.16707979 224.84244783 -573.50331116 225.44277954 C-575.78241431 225.6640951 -577.81668429 226.10403589 -580.0234375 226.6875 C-584.3323698 226.96368919 -588.64410657 226.96475097 -592.9609375 227 C-594.14107422 227.02900391 -595.32121094 227.05800781 -596.53710938 227.08789062 C-598.24543945 227.10045898 -598.24543945 227.10045898 -599.98828125 227.11328125 C-601.025896 227.12786377 -602.06351074 227.14244629 -603.13256836 227.1574707 C-606.76709087 226.56660373 -608.40286843 225.22333801 -611.0234375 222.6875 C-613.70271145 217.45653657 -613.91718956 211.42506903 -613.0234375 205.6875 C-611.52213417 202.20469705 -609.51740608 199.52770283 -607.0234375 196.6875 C-606.50136719 196.08292969 -605.97929688 195.47835937 -605.44140625 194.85546875 C-601.39501242 190.80907492 -596.65010905 188.34294774 -591.51171875 185.94140625 C-590.77163574 185.59505127 -590.03155273 185.24869629 -589.26904297 184.8918457 C-580.23094497 180.75294754 -570.9001172 177.46480466 -561.5234375 174.1875 C-559.65861348 173.5296805 -557.79386816 172.87163785 -555.92919922 172.21337891 C-537.28179935 165.65258446 -518.66329268 159.34756435 -499.41796875 154.76171875 C-495.74356632 153.88202036 -492.13804857 152.852839 -488.5234375 151.75 C-472.37703526 147.05010827 -455.6512989 144.15143335 -439.1484375 141 C-438.06602783 140.79181641 -436.98361816 140.58363281 -435.8684082 140.36914062 C-431.45224683 139.5218957 -427.03729945 138.68322212 -422.60546875 137.921875 C-421.40277344 137.70015625 -420.20007813 137.4784375 -418.9609375 137.25 C-418.00058594 137.08628906 -417.04023438 136.92257812 -416.05078125 136.75390625 C-408.38486476 134.05352534 -401.99776974 128.20291861 -395.7109375 123.1875 C-344.50665273 82.9586035 -286.80323166 49.10326993 -226.0234375 25.6875 C-224.98219727 25.27870605 -223.94095703 24.86991211 -222.86816406 24.44873047 C-176.84851639 6.41901734 -128.64838473 -5.10431811 -80.4609375 -15.625 C-79.68193085 -15.79612305 -78.90292419 -15.96724609 -78.10031128 -16.14355469 C-44.91128382 -23.41738025 -27.42664562 -20.40677835 0 0 Z " fill="#030303" transform="translate(915.0234375,307.3125)"/>
<path d="M0 0 C11.2864267 -1.01090229 17.51717268 4.09600752 25.89697266 10.82177734 C29.70612717 13.84477135 33.65435252 16.67693309 37.58203125 19.54296875 C39.18559292 20.72822414 40.78845802 21.91442252 42.390625 23.1015625 C46.95045943 26.47098533 51.5424563 29.79407214 56.14453125 33.10546875 C64.72410241 39.28306023 73.23777727 45.54742413 81.74023438 51.83056641 C84.15938835 53.61643657 86.58119144 55.39865157 89.00390625 57.1796875 C96.73340396 62.86256929 104.45419026 68.55717161 112.14453125 74.29296875 C112.80928467 74.78619629 113.47403809 75.27942383 114.15893555 75.78759766 C119.98788737 80.14879478 119.98788737 80.14879478 122.14453125 82.60546875 C122.01953125 84.66796875 122.01953125 84.66796875 121.14453125 86.60546875 C117.689904 88.90855358 116.34425797 88.86905341 112.26904297 88.90844727 C110.44552811 88.93347069 110.44552811 88.93347069 108.58517456 88.95899963 C107.24819014 88.96759211 105.91120484 88.97604664 104.57421875 88.984375 C103.18733656 89.00025353 101.80046483 89.01707106 100.41360474 89.03477478 C97.47238003 89.07069696 94.53117648 89.10088934 91.58984375 89.12646484 C87.02720286 89.16645159 82.46479669 89.22005029 77.90234375 89.27734375 C77.15381763 89.28672911 76.40529152 89.29611446 75.63408279 89.30578423 C74.13155546 89.32467675 72.62902885 89.34362723 71.12650299 89.36263657 C68.89202292 89.39055872 66.65753152 89.41733593 64.42303467 89.44387817 C53.66065596 89.57355885 42.90261798 89.77111962 32.14453125 90.10546875 C30.91202637 90.14099854 29.67952148 90.17652832 28.40966797 90.21313477 C22.7749694 90.39776589 17.21396432 90.75783741 11.61035156 91.36914062 C6.15009554 91.89246021 0.65934408 92.00742893 -4.8203125 92.2109375 C-6.20283203 92.26701172 -6.20283203 92.26701172 -7.61328125 92.32421875 C-8.42941895 92.35451172 -9.24555664 92.38480469 -10.08642578 92.41601562 C-12.99932034 92.61531083 -15.87440428 92.98615633 -18.76904297 93.3614502 C-22.08964623 93.74981235 -25.4207243 93.93000175 -28.7578125 94.10546875 C-29.47981339 94.14607422 -30.20181427 94.18667969 -30.94569397 94.22851562 C-33.22798402 94.35675582 -35.51044156 94.48152624 -37.79296875 94.60546875 C-49.84628729 95.22320848 -49.84628729 95.22320848 -61.85766602 96.36523438 C-79.89663649 98.5344079 -79.89663649 98.5344079 -85.59375 94.8203125 C-87.51010231 92.48532202 -89.13211026 90.11113743 -90.67236328 87.51464844 C-93.06929524 83.64671449 -95.88805254 80.06390879 -98.60546875 76.41796875 C-99.20166016 75.60215332 -99.79785156 74.78633789 -100.41210938 73.94580078 C-104.85317355 67.87339845 -109.50095022 62.01008242 -114.28515625 56.20605469 C-118.42980715 51.16922398 -122.37470524 46.01460613 -126.24609375 40.765625 C-127.67882473 38.73391983 -127.67882473 38.73391983 -128.85546875 37.60546875 C-128.89627658 35.60588511 -128.89801231 33.60501621 -128.85546875 31.60546875 C-118.00425451 25.76250724 -106.22198558 22.7800846 -94.35546875 19.66796875 C-93.02715137 19.31757647 -91.69886397 18.96707052 -90.37060547 18.61645508 C-86.53402229 17.60584421 -82.69498451 16.60487972 -78.85546875 15.60546875 C-77.33421387 15.20763184 -77.33421387 15.20763184 -75.78222656 14.80175781 C-65.57745879 12.14325168 -55.40782606 9.82626123 -45.01904297 7.99560547 C-41.73213447 7.40290859 -38.45479438 6.76217451 -35.17602539 6.1262207 C-31.60142955 5.43564803 -28.02381836 4.76178145 -24.4453125 4.09179688 C-22.76496951 3.77625735 -21.08523715 3.45744178 -19.40625 3.13476562 C-14.92302625 2.27887745 -10.44210391 1.50561652 -5.91943359 0.88818359 C-3.94265989 0.61741189 -1.97107488 0.30954063 0 0 Z " fill="#FAF9FA" transform="translate(866.85546875,311.39453125)"/>
<path d="M0 0 C7.54588329 7.16381325 10.65636834 15.64945412 12.5625 25.6875 C12.73523438 26.57010498 12.90796875 27.45270996 13.0859375 28.36206055 C13.6320404 32.1727509 13.72452421 35.91349081 13.73046875 39.75390625 C13.73379715 40.51041977 13.73712555 41.26693329 13.74055481 42.04637146 C13.74559304 43.6372721 13.7479641 45.22818319 13.74780273 46.8190918 C13.74999648 49.24610752 13.76820456 51.67267345 13.78710938 54.09960938 C13.79004255 55.65104012 13.79202785 57.20247301 13.79296875 58.75390625 C13.80015427 59.47485977 13.80733978 60.19581329 13.81474304 60.93861389 C13.79667262 64.93832912 13.6533014 68.22344802 11.5625 71.6875 C9.29101562 73.09375 9.29101562 73.09375 6.46875 74.1875 C5.4375 74.6 4.40625 75.0125 3.34375 75.4375 C2.2609375 75.85 1.178125 76.2625 0.0625 76.6875 C-2.05347472 77.51729401 -4.16807597 78.35059939 -6.28125 79.1875 C-7.31233887 79.59581055 -8.34342773 80.00412109 -9.40576172 80.42480469 C-14.90612621 82.71566353 -20.22271473 85.33936984 -25.3125 88.4375 C-28.77736989 90.47565876 -31.94851623 90.81267085 -35.92250061 90.82794189 C-37.26209587 90.83650711 -37.26209587 90.83650711 -38.62875366 90.84524536 C-40.08687973 90.84692215 -40.08687973 90.84692215 -41.57446289 90.84863281 C-42.6041066 90.85359772 -43.63375031 90.85856262 -44.69459534 90.86367798 C-48.09978909 90.87828126 -51.50493633 90.88509702 -54.91015625 90.890625 C-57.27379864 90.89637602 -59.63744102 90.90213376 -62.00108337 90.90789795 C-66.95490741 90.91840137 -71.90871523 90.924249 -76.86254883 90.92773438 C-83.2205602 90.93323113 -89.57835871 90.95728721 -95.93630314 90.98570633 C-100.81665177 91.00429288 -105.69694859 91.00953608 -110.57732964 91.01107025 C-112.922166 91.0141041 -115.26700131 91.0221571 -117.61180305 91.03525543 C-120.88467986 91.05223959 -124.15702911 91.05045479 -127.42993164 91.04394531 C-128.40403992 91.0531601 -129.37814819 91.06237488 -130.3817749 91.0718689 C-131.27201859 91.06629974 -132.16226227 91.06073059 -133.07948303 91.05499268 C-134.24006273 91.05719252 -134.24006273 91.05719252 -135.42408848 91.0594368 C-137.99787195 90.58398269 -138.85013339 89.73553737 -140.4375 87.6875 C-141.43226229 84.70321314 -141.57540568 82.69784483 -141.59863281 79.58032227 C-141.60824036 78.53816055 -141.6178479 77.49599884 -141.62774658 76.42225647 C-141.6341214 74.73017311 -141.6341214 74.73017311 -141.640625 73.00390625 C-141.64632507 71.83802475 -141.65202515 70.67214325 -141.65789795 69.47093201 C-141.66735471 66.996988 -141.6738846 64.52303135 -141.67773438 62.04907227 C-141.68738135 58.29615626 -141.7183747 54.54380169 -141.75 50.79101562 C-141.75653615 48.38281574 -141.76178421 45.97461194 -141.765625 43.56640625 C-141.7779718 42.45656876 -141.7903186 41.34673126 -141.80303955 40.20326233 C-141.76222852 25.64543303 -137.83012145 12.51309244 -127.7265625 1.78515625 C-98.42047191 -25.07042506 -30.63223338 -24.59861166 0 0 Z " fill="#6F6F6F" transform="translate(333.4375,400.3125)"/>
<path d="M0 0 C30.03 0 60.06 0 91 0 C90.34 2.64 89.68 5.28 89 8 C88.77372712 10.90074415 88.68937623 13.77137437 88.63671875 16.6796875 C88.01190136 19.93793771 87.13771863 21.6235738 85.50830078 24.45092773 C82.50557616 30.36282789 82.22609949 35.5584889 82.23046875 42.10546875 C82.21262077 43.79063347 82.21262077 43.79063347 82.19441223 45.50984192 C82.17796124 47.8687301 82.17446506 50.2277411 82.18334961 52.58666992 C82.18750222 56.1894296 82.12216882 59.78666819 82.05273438 63.38867188 C82.04525784 65.69009432 82.04186219 67.99153442 82.04296875 70.29296875 C82.01736374 71.36290573 81.99175873 72.43284271 81.96537781 73.53520203 C82.01057146 79.30438308 82.01057146 79.30438308 84.81295776 84.15539551 C86.94914807 86.02308823 86.94914807 86.02308823 89.19361877 87.53166199 C91 89 91 89 91.921875 92.5703125 C91.83679688 94.32988281 91.83679688 94.32988281 91.75 96.125 C91.72421875 97.30320312 91.6984375 98.48140625 91.671875 99.6953125 C90.89048043 103.53868345 89.76068413 105.24910553 87 108 C85.68392602 108.7001225 84.35260148 109.37334902 83 110 C82.94206409 114.43744539 82.90642533 118.87479389 82.875 123.3125 C82.84986328 125.20645508 82.84986328 125.20645508 82.82421875 127.13867188 C82.81777344 128.34716797 82.81132812 129.55566406 82.8046875 130.80078125 C82.79421387 131.91622314 82.78374023 133.03166504 82.77294922 134.1809082 C82.78677347 137.20678201 82.78677347 137.20678201 85 140 C85.30078125 142.3046875 85.30078125 142.3046875 85.3125 144.875 C85.32925781 145.71804688 85.34601563 146.56109375 85.36328125 147.4296875 C84.60065531 152.82547104 81.50488815 155.70273769 77.3125 158.875 C70.73427115 163.97121508 64.61720634 169.31729265 58.78125 175.24609375 C55.65825129 178.32115169 52.32390571 181.14627348 49 184 C48.35417969 184.57363281 47.70835937 185.14726563 47.04296875 185.73828125 C46.43066406 186.27839844 45.81835938 186.81851563 45.1875 187.375 C44.37345703 188.09816406 44.37345703 188.09816406 43.54296875 188.8359375 C40.76242425 190.93366474 38.1569791 191.12764718 34.8046875 191.1328125 C34.00675781 191.13410156 33.20882812 191.13539063 32.38671875 191.13671875 C31.55785156 191.13285156 30.72898438 191.12898437 29.875 191.125 C29.03839844 191.12886719 28.20179688 191.13273438 27.33984375 191.13671875 C21.12664874 191.12664874 21.12664874 191.12664874 20 190 C20.13889957 184.32648668 21.21299199 179.36102403 23 174 C23.45204047 170.67499121 23.74874325 167.34568197 24 164 C23.38511719 163.96261719 22.77023438 163.92523437 22.13671875 163.88671875 C20.92435547 163.78810547 20.92435547 163.78810547 19.6875 163.6875 C18.88699219 163.62949219 18.08648437 163.57148437 17.26171875 163.51171875 C14.60933741 162.91161175 13.63496121 162.14291033 12 160 C12 159.34 12 158.68 12 158 C8.97046417 158.55670958 6.69888256 159.04301069 4.81933594 161.61669922 C3.7509407 163.69436292 2.79324777 165.78925367 1.875 167.9375 C-2.0734562 176.90477704 -2.0734562 176.90477704 -6 179 C-8.5625 179.4375 -8.5625 179.4375 -11 179 C-13.02654295 176.87188807 -13.92755496 175.53040118 -14.328125 172.59765625 C-14.30234375 171.76105469 -14.2765625 170.92445313 -14.25 170.0625 C-14.22421875 169.18980469 -14.1984375 168.31710937 -14.171875 167.41796875 C-13.99128671 164.87741986 -13.65689606 162.46336021 -13 160 C-14.485 159.443125 -14.485 159.443125 -16 158.875 C-17.65234375 157.8046875 -17.65234375 157.8046875 -19 156 C-19.85101526 150.52447549 -20.35779484 144.57527045 -17.71484375 139.5625 C-16 138 -16 138 -12 138 C-12.48339844 136.93458984 -12.48339844 136.93458984 -12.9765625 135.84765625 C-14.62288854 131.2668483 -14.59859835 126.80356701 -14 122 C-12.08220348 118.94573146 -11.02923943 118.29793773 -7.625 117.3125 C-2.71599287 118.59819234 -0.28149394 122.91017912 2.26953125 127.0703125 C4.35374364 130.94414896 5.20079439 133.5361863 5 138 C6.13179687 137.6390625 7.26359375 137.278125 8.4296875 136.90625 C9.91141093 136.43735018 11.39318437 135.96860836 12.875 135.5 C13.62136719 135.26152344 14.36773437 135.02304687 15.13671875 134.77734375 C20.7734375 133 20.7734375 133 23 133 C22.93981323 130.10200713 22.85272994 127.20903763 22.75 124.3125 C22.73582031 123.49587891 22.72164062 122.67925781 22.70703125 121.83789062 C22.54907675 117.93641453 22.27744089 115.49070736 20.328125 112.04296875 C15.78366605 108.05512977 10.78434829 107.74660967 4.921875 107.65625 C4.26922668 107.6416272 3.61657837 107.62700439 2.94415283 107.61193848 C0.17584971 107.55008714 -2.59265831 107.50988141 -5.36132812 107.46826172 C-7.39216729 107.43460402 -9.42252851 107.38951454 -11.453125 107.34375 C-13.26538574 107.31571289 -13.26538574 107.31571289 -15.11425781 107.28710938 C-18 107 -18 107 -20 105 C-20.65062367 101.68773406 -20.87195414 100.17265243 -20 97 C-15.72312924 90.92138369 -9.61676423 83.41783923 -2 82 C-0.12243262 81.85492152 1.75876493 81.75366301 3.640625 81.68359375 C4.71054688 81.64169922 5.78046875 81.59980469 6.8828125 81.55664062 C7.99398437 81.51732422 9.10515625 81.47800781 10.25 81.4375 C11.37664062 81.39431641 12.50328125 81.35113281 13.6640625 81.30664062 C16.44258954 81.20067985 19.22120391 81.09860858 22 81 C22.00913421 73.91937001 21.97149476 66.84006032 21.90234375 59.75976562 C21.88424969 57.35454859 21.87660318 54.94922817 21.87988281 52.54394531 C21.88275869 49.07276428 21.84724533 45.60369894 21.8046875 42.1328125 C21.81378143 41.06886261 21.82287537 40.00491272 21.83224487 38.90872192 C21.66854114 30.37278945 19.10398347 23.99800171 12.92721558 17.98074341 C11.62239392 16.85125891 10.30086158 15.74084363 8.96484375 14.6484375 C7.01287916 13.01080518 5.27728301 11.32088278 3.5625 9.4375 C3.08941406 8.92058594 2.61632812 8.40367187 2.12890625 7.87109375 C1 6 1 6 0 0 Z " fill="#040404" transform="translate(202,502)"/>
<path d="M0 0 C5.81874317 4.44059657 10.03302836 10.77484449 14.3125 16.625 C15.63481332 18.41060321 16.95773033 20.19575952 18.28125 21.98046875 C18.91804687 22.8420459 19.55484375 23.70362305 20.2109375 24.59130859 C22.54452835 27.73312182 24.9199003 30.84053683 27.3125 33.9375 C28.07820312 34.9378125 28.84390625 35.938125 29.6328125 36.96875 C31.34927385 39.16672691 33.08722242 41.32375534 34.8671875 43.46875 C35.33858154 44.04890869 35.80997559 44.62906738 36.2956543 45.22680664 C37.1967108 46.33427952 38.11152526 47.430757 39.04223633 48.51342773 C40.26171875 50.02734375 40.26171875 50.02734375 42 53 C41.60864258 56.18579102 41.60864258 56.18579102 41 59 C35.66700755 59.58647831 30.33362749 60.16933077 25 60.75 C24.18078064 60.83925751 23.36156128 60.92851501 22.51751709 61.02047729 C10.24770006 62.35454039 -2.02820986 63.60851569 -14.31152344 64.81143188 C-26.45041199 66.00032041 -38.55539057 67.24499316 -50.63745117 68.93041992 C-59.1334524 70.08694773 -67.66222322 70.80829794 -76.20239258 71.54998779 C-84.33035661 72.26420852 -92.41074971 73.14242142 -100.48828125 74.30078125 C-101.28316452 74.41466187 -102.07804779 74.52854248 -102.89701843 74.64587402 C-106.740904 75.2019738 -110.58108869 75.7767113 -114.41870117 76.37451172 C-124.01573769 77.8283793 -133.2978711 78.2717706 -143 78 C-141.75242897 72.21189384 -137.75868449 70.23638492 -133 67 C-128.60526563 64.19466122 -124.14093896 61.50503494 -119.671875 58.8203125 C-116.11747221 56.68505087 -112.60083662 54.49926787 -109.10107422 52.27587891 C-80.75155095 34.29972036 -50.80976501 19.24201935 -20 6 C-19.12956055 5.62423828 -18.25912109 5.24847656 -17.36230469 4.86132812 C-3.94887384 -0.88488484 -3.94887384 -0.88488484 0 0 Z " fill="#F9F9F9" transform="translate(710,353)"/>
<path d="M0 0 C1.98036486 0.97674104 3.95926133 1.95645982 5.9375 2.9375 C7.03964844 3.48277344 8.14179688 4.02804687 9.27734375 4.58984375 C12 6 12 6 13 7 C13.28106485 11.30582826 13.23180744 15.62358947 13.25 19.9375 C13.270625 21.15630859 13.29125 22.37511719 13.3125 23.63085938 C13.31765625 24.79294922 13.3228125 25.95503906 13.328125 27.15234375 C13.34214355 28.7609729 13.34214355 28.7609729 13.35644531 30.40209961 C13.23881836 31.25940674 13.12119141 32.11671387 13 33 C8.93150591 35.71232939 6.83523216 35.30699887 2 35 C0 33 0 33 -0.22705078 29.74365234 C-0.22673382 28.35770705 -0.21541759 26.97173699 -0.1953125 25.5859375 C-0.1924826 24.85629791 -0.18965271 24.12665833 -0.18673706 23.37490845 C-0.17553002 21.04143972 -0.1504251 18.70835297 -0.125 16.375 C-0.11497085 14.79427637 -0.10584489 13.21354673 -0.09765625 11.6328125 C-0.07558905 7.75506086 -0.04105615 3.87759522 0 0 Z " fill="#101010" transform="translate(294,539)"/>
<path d="M0 0 C0 0.33 0 0.66 0 1 C-5.28814483 2.80168263 -9.28547632 3.12517909 -14.9375 2.625 C-15.62134766 2.56828125 -16.30519531 2.5115625 -17.00976562 2.453125 C-18.67417046 2.31345466 -20.33726886 2.15835535 -22 2 C-22 1.67 -22 1.34 -22 1 C-14.63512596 0.00137301 -7.42686315 -0.10331031 0 0 Z " fill="#B7B7B7" transform="translate(1310,443)"/>
<path d="M0 0 C3.3 0.33 6.6 0.66 10 1 C10 1.99 10 2.98 10 4 C6.7 4 3.4 4 0 4 C0 2.68 0 1.36 0 0 Z " fill="#252525" transform="translate(1149,404)"/>
<path d="M0 0 C6.0546875 -0.1953125 6.0546875 -0.1953125 8 0 C8.66 0.66 9.32 1.32 10 2 C9.67 2.66 9.34 3.32 9 4 C6.69 4 4.38 4 2 4 C1.34 2.68 0.68 1.36 0 0 Z " fill="#444444" transform="translate(1185,406)"/>
<path d="M0 0 C2.97 0.495 2.97 0.495 6 1 C6 1.99 6 2.98 6 4 C3.36 4 0.72 4 -2 4 C-1.34 2.68 -0.68 1.36 0 0 Z " fill="#1A191A" transform="translate(298,570)"/>
<path d="M0 0 C1.98 0 3.96 0 6 0 C5.34 1.32 4.68 2.64 4 4 C2.68 4 1.36 4 0 4 C0 2.68 0 1.36 0 0 Z " fill="#1A1A1A" transform="translate(202,502)"/>
</svg>
