<?xml version="1.0" encoding="UTF-8"?>
<svg version="1.1" xmlns="http://www.w3.org/2000/svg" width="1553" height="1013">
<path d="M0 0 C512.49 0 1024.98 0 1553 0 C1553 334.29 1553 668.58 1553 1013 C1040.51 1013 528.02 1013 0 1013 C0 678.71 0 344.42 0 0 Z " fill="#FCFCFC" transform="translate(0,0)"/>
<path d="M0 0 C2.11686243 -0.00135335 4.23372455 -0.00329938 6.35058594 -0.00579834 C10.75068165 -0.00871818 15.15069522 -0.00455461 19.55078125 0.00488281 C25.12740625 0.0162753 30.70383857 0.00969876 36.28045654 -0.00226212 C40.64080193 -0.00956651 45.00110332 -0.00715392 49.3614502 -0.00200653 C51.41508 -0.00069361 53.4687141 -0.00223261 55.52233887 -0.00696564 C73.68752842 -0.03966697 91.52430492 1.38431668 109.5 4.015625 C110.65636963 4.18408936 111.81273926 4.35255371 113.00415039 4.52612305 C146.35893744 9.50527704 178.82806014 16.88752785 211.20263672 26.38793945 C215.06908253 27.50153284 218.95322766 28.54197219 222.84472656 29.56420898 C226.09237243 30.51127421 229.16245139 31.78084417 232.28125 33.08203125 C238.85131345 35.70141181 245.57108201 37.94117558 252.25 40.265625 C252.25 40.925625 252.25 41.585625 252.25 42.265625 C252.97703125 42.41257812 253.7040625 42.55953125 254.453125 42.7109375 C261.38784469 44.25791343 267.2946742 46.51400182 273.55859375 49.86328125 C276.0782427 51.17613172 278.59558368 52.25877743 281.25 53.265625 C281.25 53.925625 281.25 54.585625 281.25 55.265625 C282.7040625 55.3584375 282.7040625 55.3584375 284.1875 55.453125 C289.07462984 56.13272588 293.22281094 58.49153125 297.25 61.265625 C297.58 61.925625 297.91 62.585625 298.25 63.265625 C299.93071742 64.0371999 301.64701321 64.73168604 303.375 65.390625 C316.32004401 70.65433084 327.70416905 77.64066115 339.05322266 85.70898438 C341.38450646 87.36093654 343.72782423 88.99458888 346.07421875 90.625 C359.98595914 100.29943525 373.78876015 110.11693416 387.3125 120.328125 C392.90804807 124.54508006 398.54710083 128.69480759 404.25 132.765625 C404.93199463 133.25812744 405.61398926 133.75062988 406.31665039 134.25805664 C419.58628473 143.65798966 433.62154761 145.28194436 449.47756958 146.80020142 C480.08069791 149.78338836 510.22281286 155.88959369 540.31665039 162.05877686 C544.70378043 162.95648174 549.09563076 163.82552097 553.4921875 164.67578125 C554.61052979 164.89347168 555.72887207 165.11116211 556.88110352 165.33544922 C558.89113793 165.72570224 560.90195318 166.11197349 562.91381836 166.49267578 C570.49437423 167.97693303 577.84630248 170.07550659 585.25 172.265625 C586.46518311 172.61810303 587.68036621 172.97058105 588.93237305 173.33374023 C618.24352625 181.84603615 618.24352625 181.84603615 630.25 187.265625 C630.93835937 187.56823242 631.62671875 187.87083984 632.3359375 188.18261719 C641.228876 192.10253087 649.64228831 196.1214419 657.25 202.265625 C658.06597656 202.90757812 658.88195313 203.54953125 659.72265625 204.2109375 C670.33497559 213.10101027 677.74890206 224.21244097 682.25 237.265625 C682.60578125 238.17570313 682.9615625 239.08578125 683.328125 240.0234375 C691.48614049 262.85370474 689.66766225 288.86987535 689.51428223 312.73205566 C689.49504251 316.31343848 689.49111728 319.89477056 689.4875679 323.4761982 C689.48241366 327.78363446 689.46792441 332.09102559 689.453125 336.3984375 C689.45124428 337.2055933 689.44936356 338.0127491 689.44742584 338.84436417 C689.44051635 341.13214481 689.42687242 343.41978462 689.41113281 345.70751953 C689.40430481 347.00223175 689.39747681 348.29694397 689.39044189 349.63088989 C689.01576082 359.32789979 686.28752685 366.29834255 679.2890625 373.19921875 C671.42205026 379.43374821 662.68563216 381.43117537 652.79760742 381.37915039 C651.69923553 381.37936943 651.69923553 381.37936943 650.57867432 381.3795929 C648.17090845 381.37889913 645.76322102 381.37113192 643.35546875 381.36328125 C641.68109682 381.36141517 640.00672435 381.35999216 638.33235168 381.35899353 C633.93472779 381.35518335 629.53713716 381.3453659 625.13952637 381.33428955 C620.64836069 381.32404316 616.15718963 381.319489 611.66601562 381.31445312 C602.86066186 381.30374226 594.05533507 381.28668388 585.25 381.265625 C585.3202388 380.17633698 585.3904776 379.08704895 585.46284485 377.9647522 C585.55511391 376.51638095 585.64733014 375.06800634 585.73950195 373.61962891 C585.78578987 372.90396255 585.83207779 372.1882962 585.87976837 371.45094299 C588.13296039 335.88474293 579.96833997 304.623539 556.68359375 277.01953125 C535.97453755 253.58472448 508.17207706 238.07624027 476.54150391 236.02514648 C441.11792998 234.7397781 411.51951925 242.81420563 385.0078125 267.33984375 C383.38145887 268.94874724 381.81066319 270.59348587 380.25 272.265625 C379.445625 273.02875 378.64125 273.791875 377.8125 274.578125 C346.76877171 307.1361815 346.25 342.20466557 346.25 386.265625 C181.25 386.265625 16.25 386.265625 -153.75 386.265625 C-153.42 382.305625 -153.09 378.345625 -152.75 374.265625 C-151.10916255 337.34791395 -157.57957868 304.62666311 -182.75 276.265625 C-183.22421387 275.71519531 -183.69842773 275.16476562 -184.18701172 274.59765625 C-201.43408922 254.62213408 -226.23773014 239.16613939 -253.13171387 237.08096313 C-258.50181454 236.82259184 -263.86847421 236.79481285 -269.24389648 236.81958008 C-272.04811361 236.82808139 -274.85027981 236.79923836 -277.65429688 236.76757812 C-306.11721526 236.65669645 -329.8504119 247.05620867 -350.98046875 265.91796875 C-353.48233274 268.03873075 -355.92956691 269.61841699 -358.75 271.265625 C-367.94970937 278.72265815 -373.4206384 289.91879828 -378.75 300.265625 C-379.32878906 301.36261719 -379.90757812 302.45960938 -380.50390625 303.58984375 C-388.23553751 318.78368963 -391.70717145 335.38020006 -392.06640625 352.359375 C-392.0975779 353.60757019 -392.0975779 353.60757019 -392.12937927 354.88098145 C-392.19416194 357.50912136 -392.25342412 360.13735125 -392.3125 362.765625 C-392.35575322 364.55990471 -392.39936954 366.3541757 -392.44335938 368.1484375 C-392.54976894 372.52074385 -392.65123163 376.89313963 -392.75 381.265625 C-398.29604842 381.31577708 -403.84195935 381.35169291 -409.38818359 381.37548828 C-411.26743881 381.38542804 -413.14667907 381.39898454 -415.02587891 381.41650391 C-452.869274 381.75998373 -452.869274 381.75998373 -466.6875 369.078125 C-480.41310313 354.13632919 -479.25974402 332.29803121 -479.125 313.328125 C-479.12167664 312.22100159 -479.11835327 311.11387817 -479.1149292 309.97320557 C-479.01910998 282.58119426 -477.08238283 255.44190122 -473.75 228.265625 C-473.52426635 226.32818008 -473.29894405 224.39068714 -473.07421875 222.453125 C-471.47432568 209.18489529 -469.17745277 196.1336545 -466.35546875 183.07128906 C-465.97242488 181.29631318 -465.59650158 179.5197727 -465.23046875 177.74121094 C-462.51204445 164.5745339 -458.71225506 157.68311411 -447.51171875 150.01171875 C-432.25607068 140.36635144 -412.37680919 138.24777804 -394.96289062 134.88623047 C-386.6200969 133.2747273 -378.28619896 131.62015104 -369.9609375 129.92041016 C-367.79505219 129.47873555 -365.6283609 129.04099745 -363.4609375 128.60693359 C-342.00338543 124.27584983 -321.27037188 118.33968271 -301.25 109.390625 C-300.46391357 109.0409668 -299.67782715 108.69130859 -298.86791992 108.33105469 C-283.5566923 101.1825951 -269.29759866 91.86033162 -255.27716064 82.49401855 C-251.14230643 79.73408715 -246.99249614 76.99679846 -242.84375 74.2578125 C-242.04079498 73.727323 -241.23783997 73.1968335 -240.41055298 72.65026855 C-223.67025666 61.60190361 -206.56153618 51.50344072 -188.75 42.265625 C-187.96012695 41.8536084 -187.17025391 41.4415918 -186.35644531 41.01708984 C-156.16722748 25.45843937 -123.71402776 16.63762799 -90.5625 10.0546875 C-87.99919997 9.52416844 -85.44950691 8.9235993 -82.91796875 8.2578125 C-78.02377133 7.01069319 -73.0665955 6.40200647 -68.0625 5.765625 C-66.09101765 5.50748753 -64.11966218 5.24837906 -62.1484375 4.98828125 C-61.20967773 4.86469238 -60.27091797 4.74110352 -59.30371094 4.61376953 C-56.25527392 4.19817955 -53.22217177 3.70890363 -50.1875 3.203125 C-33.49480513 0.6232856 -16.86517853 -0.03886947 0 0 Z " fill="#FE0000" transform="translate(670.75,275.734375)"/>
<path d="M0 0 C15.33691704 -0.49634036 30.83138218 2.72375712 44.74609375 9.1953125 C45.33165039 9.4629541 45.91720703 9.7305957 46.52050781 10.00634766 C68.39886564 20.18673959 86.19304484 39.1155951 94.53515625 61.90234375 C102.55078408 85.01287613 102.5599737 111.30194315 92.13598633 133.76538086 C88.46619785 141.17627155 83.96696249 147.79897368 78.74609375 154.1953125 C78.31425781 154.72882324 77.88242187 155.26233398 77.4375 155.81201172 C70.88250287 163.76991439 63.52767654 169.74747873 54.74609375 175.1953125 C54.19050781 175.55109375 53.63492188 175.906875 53.0625 176.2734375 C31.17046327 190.22771495 5.97994662 192.08992808 -19.15380859 186.96777344 C-25.63060961 185.51463702 -31.45075325 183.45584692 -37.25390625 180.1953125 C-38.02476562 179.80472656 -38.795625 179.41414062 -39.58984375 179.01171875 C-45.32827408 176.02499307 -50.29618604 172.33232902 -55.25390625 168.1953125 C-56.05828125 167.53789063 -56.86265625 166.88046875 -57.69140625 166.203125 C-72.91241601 153.21770105 -82.79236938 136.27553145 -88.25390625 117.1953125 C-88.43203857 116.63835693 -88.6101709 116.08140137 -88.79370117 115.50756836 C-89.95604594 109.6674796 -89.56249528 103.42408081 -89.60400391 97.48217773 C-89.62041813 95.76882202 -89.64751115 94.05553051 -89.68603516 92.3425293 C-90.1882307 69.83761848 -82.5235467 51.71270266 -68.25390625 34.1953125 C-67.67898438 33.46699219 -67.1040625 32.73867188 -66.51171875 31.98828125 C-52.31136021 14.76440139 -30.52821325 3.17283219 -8.44140625 0.5078125 C-5.62925169 0.30280599 -2.81462336 0.16894498 0 0 Z " fill="#010101" transform="translate(393.25390625,537.8046875)"/>
<path d="M0 0 C1.91353271 0.01522705 1.91353271 0.01522705 3.86572266 0.03076172 C30.96943714 0.47746916 54.80550006 11.53256645 74.44921875 30.03515625 C90.77587518 47.01187863 98.23219132 69.23117327 97.9375 92.5 C97.94072266 93.78003906 97.94394531 95.06007813 97.94726562 96.37890625 C97.88828628 106.85578313 96.74245063 116.52075661 92.9375 126.3125 C92.67694824 126.99070801 92.41639648 127.66891602 92.14794922 128.36767578 C81.70565101 154.65602225 60.65037901 172.33242176 35.26953125 183.40234375 C29.34715538 185.63573502 23.13235824 186.22566784 16.8828125 186.9453125 C13.62204555 187.2707288 13.62204555 187.2707288 10.625 188.375 C-16.73566753 190.47543244 -38.29449868 182.77317016 -59.375 165.375 C-60.035 164.86582031 -60.695 164.35664062 -61.375 163.83203125 C-74.29449894 153.53680553 -83.46905572 136.91645853 -88.375 121.375 C-88.63394043 120.58569092 -88.89288086 119.79638184 -89.15966797 118.9831543 C-91.3485138 111.8016924 -91.84556592 105.16942237 -91.75 97.6875 C-91.74129883 96.54845215 -91.73259766 95.4094043 -91.72363281 94.23583984 C-91.56889681 85.29286001 -90.67968974 77.02506927 -88.375 68.375 C-88.10816406 67.35019531 -87.84132813 66.32539062 -87.56640625 65.26953125 C-83.27335187 50.82578828 -75.48261681 39.29939393 -65.375 28.375 C-64.65699219 27.56417969 -63.93898438 26.75335937 -63.19921875 25.91796875 C-46.70517415 8.18143491 -23.89940788 -0.27572583 0 0 Z " fill="#010101" transform="translate(1133.375,538.625)"/>
<path d="M0 0 C1.45429502 -0.01317388 2.90855521 -0.03108182 4.36273193 -0.05383301 C6.41207105 -0.08365334 8.46056964 -0.09347852 10.51010132 -0.09796143 C12.29698364 -0.11197998 12.29698364 -0.11197998 14.1199646 -0.12628174 C17.06478882 0.23016357 17.06478882 0.23016357 18.88290405 1.29901123 C20.64168286 4.17278532 21.03941901 7.1792401 21.52963257 10.45672607 C21.6478537 11.18481979 21.76607483 11.91291351 21.88787842 12.66307068 C22.27238583 15.05857426 22.63795483 17.45651529 23.00228882 19.85516357 C23.26323347 21.51692375 23.52454937 23.17862567 23.78622437 24.840271 C26.12519032 39.88563621 28.0074211 54.98115974 29.7046814 70.11102295 C29.99097844 72.59084058 30.3126669 75.05911352 30.65853882 77.53094482 C31.15708715 82.07061089 31.24874595 86.54195477 31.25228882 91.10516357 C31.26453491 91.95852295 31.27678101 92.81188232 31.28939819 93.69110107 C31.29133179 94.50578857 31.29326538 95.32047607 31.29525757 96.15985107 C31.29936646 96.89445557 31.30347534 97.62906006 31.30770874 98.38592529 C31.06478882 100.23016357 31.06478882 100.23016357 29.06478882 102.23016357 C26.39520264 102.48413086 26.39520264 102.48413086 22.92562866 102.48895264 C21.61009003 102.49517136 20.29455139 102.50139008 18.93914795 102.50779724 C17.46800642 102.50417317 15.99686582 102.50015642 14.52572632 102.49578857 C12.9776805 102.49786743 11.42963544 102.5005951 9.8815918 102.50392151 C5.63097738 102.50951044 1.38050769 102.50039244 -2.87008667 102.48750687 C-5.56985781 102.48013724 -8.26961129 102.47646712 -10.96939087 102.4737854 C-44.65776049 102.43377265 -78.3272685 101.80276109 -112.00527954 101.01019287 C-116.01966969 100.91623261 -120.0340742 100.82291607 -124.04849243 100.73016357 C-125.03688299 100.70726068 -126.02527355 100.6843578 -127.04361534 100.66076088 C-141.97971083 100.3187385 -156.91378571 100.10677817 -171.85317993 99.98016357 C-173.77018302 99.96286378 -175.68718539 99.94548492 -177.60418701 99.92802429 C-185.74704188 99.8555527 -193.88965867 99.79090178 -202.03278637 99.7598362 C-205.2954543 99.74464416 -208.55795547 99.71785269 -211.8205204 99.68815613 C-213.32257489 99.67724187 -214.82467855 99.67160448 -216.32677269 99.67167664 C-218.36971884 99.67145843 -220.41263493 99.65163239 -222.45547485 99.63079834 C-223.59377243 99.62572769 -224.73207001 99.62065704 -225.90486145 99.61543274 C-229.31927095 99.18133542 -231.22462379 98.33180441 -233.93521118 96.23016357 C-234.56021118 93.35516357 -234.56021118 93.35516357 -233.93521118 90.23016357 C-231.87271118 87.79266357 -231.87271118 87.79266357 -228.93521118 85.23016357 C-227.82462989 84.11149552 -226.7208516 82.98604671 -225.62271118 81.85516357 C-221.88131893 78.12178287 -217.94917098 74.66589801 -213.93521118 71.23016357 C-212.54882446 70.01006592 -212.54882446 70.01006592 -211.13442993 68.76531982 C-171.35279522 34.03250227 -122.04762615 16.56318124 -70.93521118 6.23016357 C-70.19480591 6.07563721 -69.45440063 5.92111084 -68.69155884 5.76190186 C-46.05908494 1.03994239 -23.05329318 0.18598324 0 0 Z " fill="#FAF9FA" transform="translate(680.9352111816406,318.76983642578125)"/>
<path d="M0 0 C1.6509719 0.39091978 3.30200942 0.78156254 4.953125 1.171875 C18.6075335 4.49364254 31.79693263 9.22674153 45 14 C45.93134766 14.33402832 46.86269531 14.66805664 47.82226562 15.01220703 C89.09002714 29.90099773 126.55759849 51.5344166 161.05615234 78.50341797 C163.80842532 80.62241236 166.61526992 82.66607047 169.42700195 84.70532227 C171 86 171 86 172 88 C172.25 91.5 172.25 91.5 172 95 C168.10415705 97.59722863 164.84322992 97.28689883 160.32421875 97.265625 C159.43543533 97.26835419 158.54665192 97.27108337 157.63093567 97.27389526 C154.64964895 97.27801949 151.66874842 97.26505622 148.6875 97.25 C147.1087207 97.2463443 147.1087207 97.2463443 145.49804688 97.24261475 C128.76370359 97.19786214 112.07321202 96.70189115 95.35577393 95.99136353 C63.27237867 94.64657034 31.16297838 94.21545331 -0.94134712 93.63936615 C-9.31123823 93.48879845 -17.68095388 93.329965 -26.0506115 93.16695404 C-31.97116738 93.05297304 -37.89172456 92.95444229 -43.812747 92.86820507 C-47.4691595 92.81235799 -51.12529258 92.74487537 -54.78145027 92.67444038 C-56.47170833 92.64444886 -58.16206465 92.61950418 -59.85247612 92.59998894 C-62.15479589 92.57285419 -64.45611842 92.52796745 -66.75805664 92.47875977 C-68.0439418 92.45854263 -69.32982697 92.4383255 -70.65467834 92.41749573 C-74.25252152 91.96848535 -76.13599664 91.18530403 -79 89 C-81.03043118 85.95435324 -81.36663157 84.69000426 -81.80615234 81.17504883 C-81.93323578 80.19164017 -82.06031921 79.20823151 -82.19125366 78.19502258 C-82.38662216 76.59221687 -82.38662216 76.59221687 -82.5859375 74.95703125 C-82.72899323 73.84180588 -82.87204895 72.72658051 -83.0194397 71.57756042 C-83.47876877 67.9901108 -83.92767488 64.40146464 -84.375 60.8125 C-84.9603194 56.15158738 -85.55110615 51.49141994 -86.1484375 46.83203125 C-86.29593445 45.68042511 -86.4434314 44.52881897 -86.59539795 43.34231567 C-87.75181078 34.49478674 -89.13596449 25.69852414 -90.67416382 16.90962219 C-91.9648335 9.50189613 -93.14912181 2.10056638 -93.125 -5.4375 C-93.12757813 -6.26121094 -93.13015625 -7.08492188 -93.1328125 -7.93359375 C-93 -10 -93 -10 -92 -12 C-67.42221798 -20.19259401 -24.36096083 -6.01778809 0 0 Z " fill="#FAF9F9" transform="translate(842,332)"/>
<path d="M0 0 C0.66 0.33 1.32 0.66 2 1 C-0.12645214 5.12781887 -2.85737404 7.91286613 -6.15625 11.0859375 C-8.65775556 13.68283946 -10.68849128 16.53653398 -12.73828125 19.49609375 C-13.15464844 19.99238281 -13.57101562 20.48867188 -14 21 C-14.66 21 -15.32 21 -16 21 C-12.94600314 12.50839899 -6.45715947 6.10388023 0 0 Z " fill="#CDCBCC" transform="translate(314,544)"/>
<path d="M0 0 C0.33 0.99 0.66 1.98 1 3 C-7.02350304 4.18396883 -14.86455314 5.28545428 -23 5 C-22.67 4.34 -22.34 3.68 -22 3 C-19.05150231 2.35529338 -16.16601278 1.82719869 -13.1875 1.375 C-12.36701172 1.2409375 -11.54652344 1.106875 -10.70117188 0.96875 C-7.04602451 0.3877209 -3.72082148 0 0 0 Z " fill="#695E5F" transform="translate(608,281)"/>
<path d="M0 0 C0.77403168 0.00141495 1.54806335 0.0028299 2.34555054 0.00428772 C4.82155192 0.00989222 7.29746338 0.02244542 9.7734375 0.03515625 C11.45051953 0.04017067 13.12760297 0.04473368 14.8046875 0.04882812 C18.91930556 0.0598631 23.03385628 0.07713071 27.1484375 0.09765625 C27.1484375 0.42765625 27.1484375 0.75765625 27.1484375 1.09765625 C26.25012207 1.1227124 25.35180664 1.14776855 24.42626953 1.17358398 C21.09768881 1.26864318 17.76928756 1.36788046 14.44091797 1.4699707 C12.9995613 1.51331856 11.55815332 1.55499377 10.11669922 1.5949707 C8.04639209 1.65267713 5.97634318 1.71636996 3.90625 1.78125 C2.6598877 1.81790771 1.41352539 1.85456543 0.12939453 1.89233398 C-2.77793192 1.90055104 -2.77793192 1.90055104 -4.8515625 3.09765625 C-6.39180246 3.16716166 -7.93491238 3.18217982 -9.4765625 3.16015625 C-10.70246094 3.14662109 -10.70246094 3.14662109 -11.953125 3.1328125 C-12.89285156 3.11541016 -12.89285156 3.11541016 -13.8515625 3.09765625 C-8.91139528 0.62757264 -5.547752 -0.03791217 0 0 Z " fill="#857777" transform="translate(1123.8515625,510.90234375)"/>
<path d="M0 0 C0.98291016 0.04833984 1.96582031 0.09667969 2.97851562 0.14648438 C4.51475586 0.2305957 4.51475586 0.2305957 6.08203125 0.31640625 C7.11779297 0.36861328 8.15355469 0.42082031 9.22070312 0.47460938 C11.77895174 0.60429018 14.33681063 0.73925603 16.89453125 0.87890625 C16.89453125 1.20890625 16.89453125 1.53890625 16.89453125 1.87890625 C10.62453125 1.87890625 4.35453125 1.87890625 -2.10546875 1.87890625 C-2.10546875 2.53890625 -2.10546875 3.19890625 -2.10546875 3.87890625 C-2.76546875 3.87890625 -3.42546875 3.87890625 -4.10546875 3.87890625 C-4.10546875 3.21890625 -4.10546875 2.55890625 -4.10546875 1.87890625 C-5.42546875 1.54890625 -6.74546875 1.21890625 -8.10546875 0.87890625 C-5.02085369 -0.14929877 -3.20861636 -0.16692224 0 0 Z " fill="#ABAAAA" transform="translate(758.10546875,319.12109375)"/>
<path d="M0 0 C-3.22047757 3.22047757 -6.7833109 3.90640853 -11.25 4.25 C-14 4 -14 4 -16 2 C-10.42932723 0.40837921 -5.78898419 -0.20674944 0 0 Z " fill="#B4B4B4" transform="translate(1160,724)"/>
<path d="M0 0 C-3.09902323 3.09902323 -5.39147385 2.9898579 -9.75 3.0625 C-10.8225 3.041875 -11.895 3.02125 -13 3 C-13 2.01 -13 1.02 -13 0 C-8.34462607 -0.83796731 -4.62921525 -1.0161692 0 0 Z " fill="#BBBABB" transform="translate(632,323)"/>
<path d="M0 0 C0.66 0.99 1.32 1.98 2 3 C0.9375 4.5625 0.9375 4.5625 -1 6 C-4.6875 5.6875 -4.6875 5.6875 -8 5 C-5.44008376 2.98863724 -2.95409701 1.37154504 0 0 Z " fill="#D8D8D8" transform="translate(520,354)"/>
<path d="M0 0 C0.66 0.99 1.32 1.98 2 3 C1.01 3.33 0.02 3.66 -1 4 C-1 4.66 -1 5.32 -1 6 C-3.31 6.33 -5.62 6.66 -8 7 C-5.42215154 4.35247996 -3.08351902 2.05567935 0 0 Z " fill="#1B1A1B" transform="translate(347,552)"/>
<path d="M0 0 C-3.68964734 2.45976489 -5.27428479 3.12465307 -9.625 3.0625 C-10.85089844 3.04896484 -10.85089844 3.04896484 -12.1015625 3.03515625 C-13.04128906 3.01775391 -13.04128906 3.01775391 -14 3 C-8.75250397 0.37625198 -5.91152367 -0.09534716 0 0 Z " fill="#AFAFAF" transform="translate(1124,511)"/>
<path d="M0 0 C1.32 0 2.64 0 4 0 C2.8141763 3.37503669 1.72426311 5.64722731 -1 8 C-1.04241723 5.66705225 -1.04092937 3.33297433 -1 1 C-0.67 0.67 -0.34 0.34 0 0 Z " fill="#CCCDCD" transform="translate(750,321)"/>
<path d="M0 0 C-0.33 0.66 -0.66 1.32 -1 2 C-3.97 2 -6.94 2 -10 2 C-9.67 1.34 -9.34 0.68 -9 0 C-5.44307323 -0.85056945 -3.50729422 -1.16909807 0 0 Z " fill="#6B6969" transform="translate(595,284)"/>
<path d="M0 0 C1.21236328 0.01353516 1.21236328 0.01353516 2.44921875 0.02734375 C3.37154297 0.04474609 3.37154297 0.04474609 4.3125 0.0625 C4.3125 0.3925 4.3125 0.7225 4.3125 1.0625 C2.3325 1.0625 0.3525 1.0625 -1.6875 1.0625 C-1.6875 2.0525 -1.6875 3.0425 -1.6875 4.0625 C-2.3475 4.0625 -3.0075 4.0625 -3.6875 4.0625 C-3.6875 3.4025 -3.6875 2.7425 -3.6875 2.0625 C-5.0075 1.7325 -6.3275 1.4025 -7.6875 1.0625 C-4.80538698 0.10179566 -2.98899956 -0.04331883 0 0 Z " fill="#8D8A8A" transform="translate(757.6875,318.9375)"/>
</svg>
