<?xml version="1.0" encoding="UTF-8"?>
<svg version="1.1" xmlns="http://www.w3.org/2000/svg" width="1536" height="1024">
<path d="M0 0 C506.88 0 1013.76 0 1536 0 C1536 337.92 1536 675.84 1536 1024 C1029.12 1024 522.24 1024 0 1024 C0 686.08 0 348.16 0 0 Z " fill="#FCFCFC" transform="translate(0,0)"/>
<path d="M0 0 C0.70656738 0.01200439 1.41313477 0.02400879 2.14111328 0.03637695 C16.44465676 0.42479072 26.80418163 6.7546336 36.625 16.77685547 C43.77399487 24.41394408 49.44854665 33.24839066 55.18188477 41.95751953 C59.35476017 48.29281672 63.65601287 54.53099985 68 60.75 C69.35552085 62.69397409 70.71098985 64.63798433 72.06640625 66.58203125 C72.73043457 67.53416504 73.39446289 68.48629883 74.07861328 69.46728516 C74.7332959 70.40620605 75.38797852 71.34512695 76.0625 72.3125 C76.70558105 73.23466309 77.34866211 74.15682617 78.01123047 75.10693359 C79.82528628 77.71349713 81.63236937 80.3247504 83.4375 82.9375 C84.24948853 84.10043579 84.24948853 84.10043579 85.07788086 85.28686523 C88.89674383 90.83185179 91.35468126 95.02853662 91.25 101.9375 C91.24355469 102.87851563 91.23710938 103.81953125 91.23046875 104.7890625 C91.0625 107.3125 91.0625 107.3125 90.0625 110.3125 C88.06935928 120.55182117 92.99492378 129.47573777 97.03842163 138.57073975 C98.7945803 142.52221243 100.50602124 146.49256607 102.22038269 150.46231079 C103.12449616 152.55517876 104.03078915 154.64710641 104.93916321 156.73812866 C109.88795786 168.14877119 114.5757621 179.66232538 119.25 191.1875 C120.0833145 193.23708611 120.91689101 195.2865657 121.75073242 197.3359375 C122.98376928 200.36663998 124.21662216 203.39741572 125.44850159 206.42858887 C129.30699853 215.92191587 133.18828374 225.40583246 137.07827759 234.8862915 C138.09533519 237.36519705 139.11153855 239.84445154 140.12768555 242.32373047 C140.74260936 243.8226184 141.35759583 245.32148062 141.97265625 246.8203125 C142.243591 247.48154114 142.51452576 248.14276978 142.79367065 248.82403564 C144.31611356 252.53511676 144.31611356 252.53511676 145.90881348 256.21633911 C148.21340754 261.40389007 148.42085568 265.60174695 148.4609375 271.2265625 C149.02797645 277.26047836 151.75665519 282.77373161 154.0625 288.3125 C154.53674408 289.4601181 154.53674408 289.4601181 155.02056885 290.63092041 C157.63465895 296.9519435 160.28373963 303.25805249 162.9375 309.5625 C163.72284854 311.43090877 164.50800582 313.29939794 165.29296875 315.16796875 C165.67841858 316.08549927 166.06386841 317.00302979 166.46099854 317.94836426 C167.60163022 320.66605789 168.73996273 323.3847053 169.87792969 326.10351562 C171.30510763 329.51322816 172.74423298 332.91750606 174.19238281 336.31835938 C174.83939996 337.85277721 175.48622099 339.38727776 176.1328125 340.921875 C176.58090775 341.96217865 176.58090775 341.96217865 177.03805542 343.02349854 C178.45830914 346.41585653 179.0625 348.56446374 179.0625 352.3125 C180.09375 352.395 181.125 352.4775 182.1875 352.5625 C187.78132583 353.64517597 192.57714237 356.61112316 196.13671875 361.15625 C198.4529515 366.55101996 197.91497388 372.63132793 197.0625 378.3125 C195.59940578 381.85497572 193.91788703 384.73217319 191.0625 387.3125 C189.74007883 387.68678749 188.40664427 388.02585551 187.0625 388.3125 C186.90394531 389.6221875 186.74539063 390.931875 186.58203125 392.28125 C182.66559167 423.35665855 182.66559167 423.35665855 177.91015625 437.81640625 C175.63751304 447.18975036 177.250725 454.22495784 181.375 462.75 C193.32818833 488.96130348 192.69064557 517.4062787 183.7109375 544.59375 C182.32648854 548.27530143 180.78655101 551.77780181 179.0625 555.3125 C178.74829102 555.9612207 178.43408203 556.60994141 178.11035156 557.27832031 C172.91208439 567.80065977 166.47383247 576.16611432 158.0625 584.3125 C156.88494141 585.46878906 156.88494141 585.46878906 155.68359375 586.6484375 C145.16805706 596.46795477 133.73826512 601.49089818 120.0625 605.3125 C118.89420654 605.66231934 117.72591309 606.01213867 116.5222168 606.37255859 C111.17168658 607.68844158 105.85838624 607.61723994 100.375 607.61328125 C99.25235245 607.61888062 98.1297049 607.62447998 96.97303772 607.63024902 C93.3360551 607.64215296 89.69948223 607.63588461 86.0625 607.625 C84.81854462 607.62317719 83.57458923 607.62135437 82.29293823 607.61947632 C64.38504425 607.57517664 46.79787866 607.06959393 29.01806641 604.81298828 C25.41783243 604.35745936 21.81586769 603.93451085 18.21046448 603.52290344 C0.04821638 601.44327772 -18.05022401 598.95311353 -36.11413574 596.14562988 C-38.06493862 595.8425055 -40.01618945 595.54224878 -41.96789551 595.24499512 C-44.69137457 594.82783279 -47.41225425 594.39669488 -50.1328125 593.9609375 C-50.937258 593.83917145 -51.74170349 593.7174054 -52.57052612 593.59194946 C-57.96753422 592.70336086 -62.64074632 591.37957832 -66.8125 587.625 C-68.49653738 584.1633676 -68.80588867 581.01568527 -67.9375 577.3125 C-65.9862213 574.26728236 -63.53371937 571.80307837 -60.03100586 570.7265625 C-57.88822274 570.4488375 -55.7842273 570.32595979 -53.625 570.25 C-35.30153402 568.88544648 -18.7366919 562.66733204 -4.9375 550.3125 C-4.12667969 549.59578125 -3.31585937 548.8790625 -2.48046875 548.140625 C19.16222177 527.82717059 31.02174926 497.19458458 42.98046875 470.6640625 C43.31058456 469.93266556 43.64070038 469.20126862 43.9808197 468.44770813 C45.58946877 464.87993294 47.18938556 461.30866503 48.77416992 457.73022461 C55.80971066 441.95003064 63.50118643 427.11966791 79.0625 418.3125 C79.64902344 417.93738281 80.23554687 417.56226563 80.83984375 417.17578125 C87.08181808 414.75139403 97.35029174 415.37006363 103.625 417.375 C107.28676504 419.43890393 109.74711511 421.66762485 112.51953125 424.7890625 C114.09470254 426.56851621 114.09470254 426.56851621 117.0625 427.3125 C117.16797662 419.12065751 117.16797662 419.12065751 114.0625 411.8125 C106.27475483 405.32271236 98.88751319 404.76581755 89 405.0625 C87.84822266 405.08054687 86.69644531 405.09859375 85.50976562 405.1171875 C82.69312166 405.16393678 79.87826771 405.22944843 77.0625 405.3125 C76.69713135 404.28108887 76.3317627 403.24967773 75.95532227 402.18701172 C68.44816883 381.01167015 60.83618672 359.87948479 53.02020264 338.81610107 C47.03453784 322.68353869 41.11569291 306.52728459 35.22485352 290.35992432 C24.72170194 261.53469782 14.11132698 232.75059928 3.42871094 203.99133301 C-0.42011969 193.62748307 -4.26489744 183.26212805 -8.11030579 172.89700794 C-9.63771798 168.78009584 -11.16564249 164.66337438 -12.69405365 160.54683304 C-13.41436507 158.60667717 -14.13451916 156.66646298 -14.85461426 154.72622681 C-15.73218128 152.36176285 -16.6100084 149.99739541 -17.48815918 147.63314819 C-18.26877668 145.52944313 -19.04764372 143.42508741 -19.82446289 141.31997681 C-20.58240233 139.27199001 -21.34750434 137.22664303 -22.11889648 135.1836853 C-22.48635986 134.2003421 -22.85382324 133.2169989 -23.23242188 132.20385742 C-23.56109253 131.33266769 -23.88976318 130.46147797 -24.22839355 129.56388855 C-24.9375 127.3125 -24.9375 127.3125 -24.9375 124.3125 C-25.53433594 124.54324219 -26.13117188 124.77398437 -26.74609375 125.01171875 C-32.35584221 127.12058407 -38.00637341 128.95702686 -43.765625 130.609375 C-52.65133167 133.19311048 -61.45389555 136.00310949 -70.25 138.875 C-71.87889198 139.40499178 -73.5077986 139.93493857 -75.13671875 140.46484375 C-86.29492961 144.09996653 -97.43236154 147.79563748 -108.55987549 151.52352905 C-119.13438306 155.06541244 -129.72392948 158.55945664 -140.32421875 162.0234375 C-140.96114277 162.23160662 -141.59806679 162.43977573 -142.25429153 162.65425301 C-144.87648563 163.51127323 -147.49870399 164.36821918 -150.12093163 165.22513676 C-172.56932378 172.5613367 -194.98877041 179.96590619 -217.31463623 187.6690979 C-218.4563327 188.0629921 -218.4563327 188.0629921 -219.62109375 188.46484375 C-220.72049286 188.84435684 -220.72049286 188.84435684 -221.84210205 189.23153687 C-227.00254526 191.00691328 -232.18772419 192.69335442 -237.38745117 194.3503418 C-250.94853379 198.69581907 -263.71253518 204.3822469 -274.9375 213.3125 C-275.76636719 213.96605469 -276.59523438 214.61960937 -277.44921875 215.29296875 C-289.50147288 225.42572146 -295.93192442 238.77306641 -302.96875 252.546875 C-305.50556131 257.50637372 -308.1456131 262.39429498 -310.875 267.25 C-314.73735319 274.12957297 -318.50880112 281.05380193 -322.25 288 C-326.46911404 295.82650285 -330.7769191 303.59244174 -335.1875 311.3125 C-340.84731407 321.23126995 -346.20883211 331.29344796 -351.53488159 341.39352417 C-356.64210893 351.07318841 -361.89680364 360.64614231 -367.3359375 370.14453125 C-371.028534 376.62277072 -374.52218618 383.18431932 -377.9375 389.8125 C-382.9944883 399.62394318 -388.34149367 409.24291073 -393.8203125 418.82421875 C-395.85671064 422.3888577 -397.85200637 425.97086208 -399.8046875 429.58203125 C-400.25118652 430.40405029 -400.69768555 431.22606934 -401.15771484 432.07299805 C-401.98028299 433.59275624 -402.79628461 435.116097 -403.60400391 436.64379883 C-405.9208801 440.9076426 -408.33373817 444.05134933 -411.9375 447.3125 C-411.98648438 446.03117187 -412.03546875 444.74984375 -412.0859375 443.4296875 C-412.16109498 441.682276 -412.23663686 439.93488101 -412.3125 438.1875 C-412.3434375 437.35089844 -412.374375 436.51429688 -412.40625 435.65234375 C-413.01979642 422.05206475 -415.75129778 409.16223586 -419.078125 396.0234375 C-419.4873595 394.38754117 -419.89610127 392.75152151 -420.30438232 391.11538696 C-421.15730254 387.70388424 -422.01500836 384.29363428 -422.87646484 380.88427734 C-423.96466636 376.57660639 -425.04247147 372.2664185 -426.1170578 367.95533371 C-432.01117222 344.25824485 -432.01117222 344.25824485 -438.87011719 320.82666016 C-441.10386139 313.47247122 -442.54986636 306.23477851 -439.17739868 299.04257202 C-438.81293262 298.25950054 -438.44846657 297.47642906 -438.07295609 296.66962814 C-437.69825558 295.89177586 -437.32355507 295.11392357 -436.9375 294.3125 C-436.60414013 293.61971577 -436.27078026 292.92693153 -435.92731857 292.21315384 C-434.89350018 290.09579537 -433.84273072 287.98767177 -432.78662109 285.88134766 C-432.39244995 285.09125305 -431.99827881 284.30115845 -431.59216309 283.48712158 C-430.30041824 280.89926544 -429.00578419 278.31286783 -427.7109375 275.7265625 C-426.79884389 273.90170006 -425.88686894 272.07677831 -424.9750061 270.25180054 C-423.06487788 266.43007355 -421.15331339 262.6090694 -419.24072266 258.78857422 C-416.8177171 253.94821772 -414.39826314 249.10609661 -411.97992516 244.26340675 C-410.09548475 240.49086663 -408.20909472 236.71930386 -406.32216263 232.94800949 C-405.43110454 231.16655005 -404.54061737 229.3848049 -403.65076828 227.60274124 C-398.67063469 217.63215358 -393.61825154 207.70776024 -388.38694572 197.86619759 C-385.61538066 192.64487702 -382.95099257 187.37747525 -380.33984375 182.07421875 C-379.94885844 181.28121715 -379.55787313 180.48821554 -379.15503979 179.67118359 C-377.68375752 176.68536861 -376.21514304 173.6983448 -374.75756836 170.70581055 C-359.61895663 139.67215199 -339.9182859 115.70939339 -306.55768681 103.92648602 C-302.8028359 102.65279672 -299.03068668 101.43726385 -295.25390625 100.23046875 C-293.58426307 99.68645403 -291.91499587 99.14128426 -290.24607849 98.595047 C-285.88122527 97.16961777 -281.51176408 95.75890211 -277.14099121 94.35174561 C-271.9447863 92.67591848 -266.75423492 90.98268482 -261.56285667 89.29197884 C-257.30946862 87.90726692 -253.05502215 86.52604946 -248.79776001 85.15328979 C-240.6388299 82.51904736 -232.50112235 79.83907875 -224.39794922 77.03759766 C-222.88376881 76.51789887 -221.36952358 75.99838893 -219.85520935 75.4790802 C-217.05929486 74.51995311 -214.27099097 73.5421144 -211.48573303 72.55253601 C-197.56284626 67.77245189 -197.56284626 67.77245189 -190.9375 69.3125 C-189.92161808 70.29636174 -188.92005099 71.29535028 -187.9375 72.3125 C-181.32049248 72.19958552 -175.22593967 69.39584163 -169.09375 67.1171875 C-166.56895908 66.19782009 -164.04340157 65.28118744 -161.515625 64.37011719 C-160.83875893 64.12608469 -160.16189285 63.88205219 -159.46451569 63.63062477 C-150.72057685 60.49506919 -141.90719828 57.56592846 -133.09375 54.6328125 C-132.22045044 54.34196526 -131.34715088 54.05111801 -130.4473877 53.75145721 C-125.02411278 51.94598639 -119.59933784 50.1450599 -114.17407227 48.34558105 C-110.54766692 47.1422253 -106.92198862 45.93668912 -103.29640198 44.73086929 C-101.49530235 44.13186621 -99.69414474 43.53303744 -97.89292908 42.93438339 C-93.44675588 41.45662155 -89.00119583 39.97706683 -84.55688477 38.49371338 C-76.717772 35.87982943 -68.87533585 33.28146328 -61.00421906 30.76529884 C-57.63952832 29.68849234 -54.27869626 28.59993133 -50.9181366 27.51031113 C-49.34425568 27.00382074 -47.76843855 26.50330262 -46.19062805 26.00918961 C-44.02497991 25.33072158 -41.86674677 24.63227325 -39.70898438 23.92919922 C-37.88385315 23.34922684 -37.88385315 23.34922684 -36.02185059 22.75753784 C-31.39625253 20.59041577 -29.37542915 17.06965117 -26.75 12.875 C-20.75643145 4.41023703 -10.15664784 -0.26868795 0 0 Z " fill="#030202" transform="translate(1178.9375,135.6875)"/>
<path d="M0 0 C1.29372528 -0.00571014 2.58745056 -0.01142029 3.92037964 -0.01730347 C5.34718313 -0.0185487 6.77398673 -0.01967382 8.20079041 -0.02069092 C9.7091331 -0.02532231 11.21747464 -0.0303474 12.72581482 -0.03573608 C16.81916869 -0.04883473 20.91250618 -0.05530056 25.00587773 -0.05974674 C27.56739155 -0.06268271 30.12890094 -0.0667886 32.69041252 -0.07125092 C40.71654554 -0.08492171 48.74266839 -0.09458934 56.76881224 -0.09845281 C66.01125941 -0.10292695 75.25355821 -0.12044662 84.4959603 -0.1494534 C91.65372963 -0.17113184 98.81145742 -0.18116043 105.9692592 -0.18249393 C110.23748928 -0.18353793 114.5055798 -0.18935845 118.7737751 -0.20731354 C122.79493311 -0.22390023 126.81584829 -0.22589886 130.8370285 -0.21717453 C132.30426373 -0.21640968 133.77151259 -0.2206731 135.23871422 -0.23063278 C148.79963266 -0.31720846 162.60725416 1.23040593 173.15757751 10.60528564 C182.1247498 20.18164083 185.29649338 32.03352969 188.03257751 44.51544189 C188.63860179 47.21051315 189.25151922 49.90400155 189.86460876 52.59747314 C190.08815033 53.58495796 190.08815033 53.58495796 190.31620789 54.59239197 C191.50685518 59.82762678 192.81775809 65.02094658 194.22007751 70.20294189 C195.87779805 76.34625919 197.40553023 82.50492461 198.84507751 88.70294189 C201.06723603 98.23521678 203.56894672 107.68544739 206.09507751 117.14044189 C209.72393497 130.73281426 213.11553856 144.35741425 216.26841736 158.06866455 C218.92314292 169.57247533 221.73570866 180.93823634 225.28257751 192.20294189 C227.85424845 200.39031657 230.02606323 208.45671917 231.26280212 216.96026611 C231.50838014 218.57158991 231.79398854 220.17692856 232.10118103 221.77764893 C234.09088782 233.22355456 233.93214968 244.70610491 233.91075134 256.2913208 C233.90757237 259.89627823 233.93118486 263.50042802 233.95640564 267.10528564 C233.95867745 269.42429504 233.95938268 271.74330661 233.95835876 274.06231689 C233.96756851 275.12609558 233.97677826 276.18987427 233.98626709 277.28588867 C233.92217212 287.73197036 231.90859326 296.39566232 224.59507751 304.14044189 C214.72196931 312.44282834 202.14261725 311.57157761 189.98971558 311.52812195 C188.09008789 311.53229798 186.1904627 311.53777697 184.29084212 311.54444176 C179.08603724 311.55887933 173.88139094 311.55465691 168.67657745 311.54727495 C163.05756325 311.54254152 157.43858328 311.55505457 151.81958008 311.56529236 C140.81823634 311.58248123 129.81694972 311.58332031 118.81559604 311.57807945 C109.87473434 311.57403731 100.93388953 311.57548184 91.99302864 311.58082771 C90.72031588 311.58157614 89.44760311 311.58232456 88.13632329 311.58309566 C85.55081021 311.58462714 82.96529713 311.58616548 80.37978406 311.58771063 C63.02332466 311.5975377 45.66687624 311.60170478 28.31041622 311.59408474 C27.29292333 311.59363898 27.29292333 311.59363898 26.25487503 311.59318421 C20.74667762 311.59073538 15.2384803 311.58812374 9.73028297 311.58550008 C-11.76053458 311.57539503 -33.25127402 311.58375966 -54.74208069 311.60699463 C-78.897958 311.63306883 -103.05377427 311.6458655 -127.20967001 311.63880688 C-139.99609804 311.63531199 -152.78246191 311.63756479 -165.56888008 311.65505791 C-176.45150591 311.66976188 -187.33402238 311.67043871 -198.21664602 311.652987 C-203.76915462 311.64446053 -209.3214677 311.64236786 -214.87396622 311.65763855 C-219.95727821 311.67144593 -225.04022646 311.66677326 -230.12351721 311.64739931 C-231.96185779 311.64362693 -233.80022723 311.6465968 -235.63854218 311.65701097 C-253.02739853 311.74851127 -253.02739853 311.74851127 -260.40492249 307.14044189 C-261.47742249 306.58356689 -262.54992249 306.02669189 -263.65492249 305.45294189 C-268.14996172 301.67302254 -270.56417482 296.66268489 -272.40492249 291.14044189 C-272.50426876 289.60009548 -272.54841269 288.05587133 -272.55882263 286.51235962 C-272.5674231 285.5620285 -272.57602356 284.61169739 -272.58488464 283.63256836 C-272.59127457 282.07097992 -272.59127457 282.07097992 -272.59779358 280.47784424 C-272.60597107 279.37995575 -272.61414856 278.28206726 -272.62257385 277.15090942 C-272.64743086 273.50940497 -272.66394617 269.86793955 -272.67835999 266.22637939 C-272.68368366 264.98265186 -272.68900734 263.73892433 -272.69449234 262.45750809 C-272.71572377 257.22804542 -272.73485242 251.9985886 -272.74611473 246.76909447 C-272.76232944 239.29055131 -272.7954477 231.81252969 -272.85251558 224.3341831 C-272.89601191 218.43156131 -272.91187276 212.52905472 -272.91824722 206.62627029 C-272.92495687 204.12169308 -272.94017129 201.61712336 -272.96413803 199.11265182 C-272.99581984 195.60116978 -272.99582073 192.09099468 -272.98841858 188.57940674 C-273.01302658 187.03603638 -273.01302658 187.03603638 -273.03813171 185.46148682 C-272.97172225 177.73957742 -271.0419217 171.85562369 -265.56149864 166.25739098 C-260.16272724 161.37563212 -256.12275922 159.83726176 -248.79554749 159.94512939 C-247.70533295 159.94937424 -247.70533295 159.94937424 -246.59309387 159.95370483 C-244.28019998 159.96486667 -241.9676986 159.98996338 -239.65492249 160.01544189 C-238.08331351 160.02547688 -236.51169844 160.03460183 -234.94007874 160.04278564 C-231.09487627 160.06479285 -227.24996585 160.09929474 -223.40492249 160.14044189 C-223.42063293 159.56600342 -223.43634338 158.99156494 -223.45252991 158.39971924 C-223.51527761 155.7717288 -223.55403754 153.14389653 -223.59242249 150.51544189 C-223.6175592 149.61180908 -223.64269592 148.70817627 -223.66859436 147.77716064 C-223.7267601 142.46468937 -223.46489824 138.69515235 -220.40492249 134.14044189 C-218.79164124 132.53106689 -218.79164124 132.53106689 -217.09242249 131.39044189 C-216.53941467 131.00372314 -215.98640686 130.61700439 -215.41664124 130.21856689 C-209.07061655 126.81759056 -203.13759907 126.84935842 -196.11048889 126.86578369 C-194.98129532 126.86067276 -193.85210175 126.85556183 -192.68869019 126.85029602 C-188.96123432 126.83641233 -185.23396362 126.83735597 -181.50648499 126.83966064 C-178.91105582 126.83577295 -176.31562729 126.83143813 -173.72019958 126.82667542 C-168.28142464 126.81921574 -162.84272124 126.81936395 -157.40394592 126.82476807 C-151.1316252 126.83080494 -144.85952897 126.81850057 -138.58724654 126.797198 C-132.53667247 126.77740961 -126.48621535 126.77441401 -120.4356041 126.77793312 C-117.86882882 126.77742033 -115.30204992 126.7721905 -112.73529434 126.7621212 C-109.14273641 126.74975766 -105.55069507 126.75654872 -101.95814514 126.76812744 C-100.37437325 126.75666183 -100.37437325 126.75666183 -98.75860596 126.7449646 C-90.53243871 126.80343839 -83.46742588 128.0779385 -77.40492249 134.14044189 C-73.40492249 141.14044189 -73.40492249 141.14044189 -73.40492249 160.14044189 C-59.54492249 160.14044189 -45.68492249 160.14044189 -31.40492249 160.14044189 C-31.42586975 156.00714355 -31.44681702 151.87384521 -31.46839905 147.61529541 C-31.53470337 133.95285346 -31.57907565 120.29041394 -31.61217117 106.62785435 C-31.6327699 98.3449386 -31.66083881 90.0621756 -31.7066803 81.77935791 C-31.74663072 74.55749958 -31.77237484 67.33575193 -31.78127646 60.11378616 C-31.7864774 56.29206794 -31.7986447 52.47066623 -31.82784271 48.64904976 C-31.85514194 45.04651956 -31.86333856 41.44443404 -31.85735321 37.84181023 C-31.85896566 35.90044333 -31.88041221 33.95912404 -31.90260315 32.0178833 C-31.85752808 22.39794696 -29.83045146 14.91646597 -23.24476624 7.71075439 C-16.4363282 1.89973085 -8.74533144 0.02316864 0 0 Z " fill="#E1E401" transform="translate(518.4049224853516,332.85955810546875)"/>
<path d="M0 0 C83.82 0 167.64 0 254 0 C254 5.61 254 11.22 254 17 C255.71253464 16.98889694 257.42506927 16.97779388 259.1894989 16.96635437 C275.35843973 16.86482889 291.52730283 16.7896615 307.69649029 16.74093914 C316.00848433 16.71522377 324.32023945 16.68020194 332.63208008 16.62280273 C339.88181139 16.57276228 347.13136956 16.5406606 354.3812688 16.52955753 C358.21548942 16.5230734 362.04921499 16.50797594 365.88327599 16.47134972 C369.50229896 16.43706233 373.12062951 16.42701171 376.7397995 16.43446159 C378.6804291 16.43245967 380.62098567 16.40573758 382.56141663 16.37789917 C400.66466446 16.48268733 418.65356249 26.55036709 431.32421875 39.19921875 C443.31460705 51.74974198 450.65989671 65.22807541 455 82 C455.1750708 82.62390625 455.3501416 83.2478125 455.53051758 83.890625 C459.91750519 103.60127136 453.95855279 126.79699816 443.91210938 143.84619141 C441.55572745 147.48372332 438.86979239 150.76006688 436 154 C435.24074219 154.86882812 434.48148438 155.73765625 433.69921875 156.6328125 C422.68220024 168.42516946 406.23132697 178.77207386 389.85062812 180.18545494 C387.51068052 180.25600884 385.17817631 180.2670399 382.83719349 180.25447559 C381.94377293 180.25768207 381.05035237 180.26088855 380.12985846 180.26419219 C377.13865603 180.27248793 374.14765405 180.26656932 371.15644836 180.26069641 C368.9891626 180.26371729 366.82187789 180.26760646 364.65459508 180.27228898 C358.70052169 180.28258604 352.7465084 180.28038277 346.79243004 180.27610838 C340.37030582 180.27364423 333.94819618 180.28265153 327.52607727 180.29014587 C314.9442964 180.30290409 302.36253751 180.30469093 289.78075133 180.30234561 C279.55364762 180.30051246 269.32655017 180.30227303 259.09944725 180.30657005 C257.62974756 180.30717246 256.16004787 180.30777366 254.69034817 180.30837366 C252.47558712 180.30928092 250.26082606 180.31018959 248.046065 180.31110601 C227.45432834 180.31953545 206.86259405 180.32387137 186.2708559 180.31969929 C185.49462737 180.31954291 184.71839885 180.31938654 183.91864824 180.31922542 C179.98449344 180.31841965 176.05033865 180.31757388 172.11618385 180.31671212 C171.33486187 180.31654103 170.55353989 180.31636994 169.74854149 180.31619367 C168.16851789 180.31584701 166.5884943 180.31549848 165.0084707 180.31514808 C140.42986796 180.30979231 115.85130112 180.31771725 91.27270508 180.33618164 C63.6515061 180.3569075 36.03032936 180.36762312 8.40912217 180.36360615 C5.46262531 180.36321082 2.51612844 180.36284927 -0.43036842 180.36250877 C-1.15585707 180.36241804 -1.88134572 180.36232731 -2.62881888 180.36223383 C-13.57154726 180.3610688 -24.51425317 180.36770903 -35.45697594 180.37832069 C-47.90663395 180.39038146 -60.35623898 180.39164387 -72.80589785 180.37953053 C-79.15680895 180.37363877 -85.50762345 180.37255072 -91.85852814 180.38453293 C-97.67606392 180.39538115 -103.49342233 180.39230075 -109.31094978 180.37827124 C-111.41187009 180.37562139 -113.51280424 180.37799987 -115.61371096 180.38600711 C-129.4726105 180.43514777 -142.4155445 180.05104267 -155 173.5 C-155.66515625 173.15888184 -156.3303125 172.81776367 -157.015625 172.46630859 C-173.0542407 163.85396987 -183.9395448 150.05394919 -192 134 C-192.60585937 132.83984375 -193.21171875 131.6796875 -193.8359375 130.484375 C-198.35911374 120.70606694 -198.52926435 110.77373343 -198.5 100.1875 C-198.49863037 99.47830414 -198.49726074 98.76910828 -198.49584961 98.03842163 C-198.4201345 86.12998344 -198.05720722 74.47388066 -192.25 63.8125 C-191.89220459 63.13106934 -191.53440918 62.44963867 -191.16577148 61.74755859 C-182.20119232 44.92518793 -170.03727212 32.41824702 -153.0625 23.625 C-152.455271 23.30321777 -151.84804199 22.98143555 -151.22241211 22.64990234 C-140.85459259 17.54362634 -129.79715399 16.55597428 -118.40698242 16.65942383 C-116.47292793 16.65876671 -116.47292793 16.65876671 -114.49980164 16.65809631 C-111.00881712 16.6572455 -107.51815016 16.67472042 -104.02723861 16.69581819 C-100.36243974 16.71473991 -96.69763132 16.7163475 -93.03279114 16.71989441 C-86.11287485 16.72916984 -79.19310299 16.7537217 -72.27324992 16.78394288 C-64.38678282 16.81762824 -56.50030834 16.83400821 -48.61378706 16.84902918 C-32.40910481 16.88027604 -16.20457664 16.93356125 0 17 C0 11.39 0 5.78 0 0 Z " fill="#F4F4F4" transform="translate(429,659)"/>
<path d="M0 0 C83.82 0 167.64 0 254 0 C254 5.61 254 11.22 254 17 C255.71253464 16.98889694 257.42506927 16.97779388 259.1894989 16.96635437 C275.35843973 16.86482889 291.52730283 16.7896615 307.69649029 16.74093914 C316.00848433 16.71522377 324.32023945 16.68020194 332.63208008 16.62280273 C339.88181139 16.57276228 347.13136956 16.5406606 354.3812688 16.52955753 C358.21548942 16.5230734 362.04921499 16.50797594 365.88327599 16.47134972 C369.50229896 16.43706233 373.12062951 16.42701171 376.7397995 16.43446159 C378.6804291 16.43245967 380.62098567 16.40573758 382.56141663 16.37789917 C400.66466446 16.48268733 418.65356249 26.55036709 431.32421875 39.19921875 C443.31460705 51.74974198 450.65989671 65.22807541 455 82 C455.1750708 82.62390625 455.3501416 83.2478125 455.53051758 83.890625 C459.91750519 103.60127136 453.95855279 126.79699816 443.91210938 143.84619141 C441.55572745 147.48372332 438.86979239 150.76006688 436 154 C435.24074219 154.86882812 434.48148438 155.73765625 433.69921875 156.6328125 C422.68220024 168.42516946 406.23132697 178.77207386 389.85062812 180.18545494 C387.51068052 180.25600884 385.17817631 180.2670399 382.83719349 180.25447559 C381.94377293 180.25768207 381.05035237 180.26088855 380.12985846 180.26419219 C377.13865603 180.27248793 374.14765405 180.26656932 371.15644836 180.26069641 C368.9891626 180.26371729 366.82187789 180.26760646 364.65459508 180.27228898 C358.70052169 180.28258604 352.7465084 180.28038277 346.79243004 180.27610838 C340.37030582 180.27364423 333.94819618 180.28265153 327.52607727 180.29014587 C314.9442964 180.30290409 302.36253751 180.30469093 289.78075133 180.30234561 C279.55364762 180.30051246 269.32655017 180.30227303 259.09944725 180.30657005 C257.62974756 180.30717246 256.16004787 180.30777366 254.69034817 180.30837366 C252.47558712 180.30928092 250.26082606 180.31018959 248.046065 180.31110601 C227.45432834 180.31953545 206.86259405 180.32387137 186.2708559 180.31969929 C185.49462737 180.31954291 184.71839885 180.31938654 183.91864824 180.31922542 C179.98449344 180.31841965 176.05033865 180.31757388 172.11618385 180.31671212 C171.33486187 180.31654103 170.55353989 180.31636994 169.74854149 180.31619367 C168.16851789 180.31584701 166.5884943 180.31549848 165.0084707 180.31514808 C140.42986796 180.30979231 115.85130112 180.31771725 91.27270508 180.33618164 C63.6515061 180.3569075 36.03032936 180.36762312 8.40912217 180.36360615 C5.46262531 180.36321082 2.51612844 180.36284927 -0.43036842 180.36250877 C-1.15585707 180.36241804 -1.88134572 180.36232731 -2.62881888 180.36223383 C-13.57154726 180.3610688 -24.51425317 180.36770903 -35.45697594 180.37832069 C-47.90663395 180.39038146 -60.35623898 180.39164387 -72.80589785 180.37953053 C-79.15680895 180.37363877 -85.50762345 180.37255072 -91.85852814 180.38453293 C-97.67606392 180.39538115 -103.49342233 180.39230075 -109.31094978 180.37827124 C-111.41187009 180.37562139 -113.51280424 180.37799987 -115.61371096 180.38600711 C-129.4726105 180.43514777 -142.4155445 180.05104267 -155 173.5 C-155.66515625 173.15888184 -156.3303125 172.81776367 -157.015625 172.46630859 C-173.0542407 163.85396987 -183.9395448 150.05394919 -192 134 C-192.60585937 132.83984375 -193.21171875 131.6796875 -193.8359375 130.484375 C-198.35911374 120.70606694 -198.52926435 110.77373343 -198.5 100.1875 C-198.49863037 99.47830414 -198.49726074 98.76910828 -198.49584961 98.03842163 C-198.4201345 86.12998344 -198.05720722 74.47388066 -192.25 63.8125 C-191.89220459 63.13106934 -191.53440918 62.44963867 -191.16577148 61.74755859 C-182.20119232 44.92518793 -170.03727212 32.41824702 -153.0625 23.625 C-152.455271 23.30321777 -151.84804199 22.98143555 -151.22241211 22.64990234 C-140.85459259 17.54362634 -129.79715399 16.55597428 -118.40698242 16.65942383 C-116.47292793 16.65876671 -116.47292793 16.65876671 -114.49980164 16.65809631 C-111.00881712 16.6572455 -107.51815016 16.67472042 -104.02723861 16.69581819 C-100.36243974 16.71473991 -96.69763132 16.7163475 -93.03279114 16.71989441 C-86.11287485 16.72916984 -79.19310299 16.7537217 -72.27324992 16.78394288 C-64.38678282 16.81762824 -56.50030834 16.83400821 -48.61378706 16.84902918 C-32.40910481 16.88027604 -16.20457664 16.93356125 0 17 C0 11.39 0 5.78 0 0 Z M-155.44921875 63.01953125 C-166.4242867 75.84338553 -169.10232399 90.0797551 -168.24267578 106.54248047 C-166.82968753 120.85147421 -157.79663279 133.08104248 -147 142 C-138.15796156 147.46291547 -129.61355017 150.31295946 -119.25417805 150.25168228 C-117.96344723 150.2560426 -117.96344723 150.2560426 -116.64664105 150.26049101 C-113.76145177 150.26779346 -110.87647499 150.26084641 -107.99128723 150.25396729 C-105.90252327 150.25627163 -103.81376011 150.25944798 -101.72499865 150.26342177 C-95.98336154 150.27178231 -90.24179079 150.26763871 -84.50015342 150.26144934 C-78.30843711 150.25693088 -72.11673234 150.26390569 -65.92501831 150.26940918 C-54.49471267 150.27779734 -43.06443665 150.27705783 -31.63413115 150.27158624 C-21.07169987 150.26655498 -10.50927634 150.26524178 0.0531559 150.26763153 C1.10413861 150.26786069 1.10413861 150.26786069 2.1763533 150.26809447 C5.02060151 150.26871716 7.86484972 150.26935396 10.70909792 150.270014 C37.3955813 150.27613309 64.08205119 150.27058395 90.76853248 150.2598202 C114.46752172 150.25033408 138.16648946 150.25117377 161.86547852 150.26074219 C188.49562975 150.27145813 215.12576905 150.27569393 241.75592214 150.26951766 C244.59653651 150.26887624 247.43715089 150.26825056 250.27776527 150.26763153 C250.97718799 150.26747338 251.6766107 150.26731522 252.39722805 150.26715227 C262.94844306 150.26487957 273.49964945 150.26753381 284.05086327 150.27259064 C296.05480613 150.27831504 308.05871809 150.27667516 320.06266 150.26602915 C326.1865907 150.26077687 332.31047782 150.25870813 338.43440819 150.26532745 C344.04341914 150.27129841 349.65234622 150.26799277 355.2613496 150.25737235 C357.28758457 150.25514314 359.31382667 150.25626383 361.34005704 150.26112393 C380.48684833 150.52525519 380.48684833 150.52525519 398.4375 144.625 C400.13712891 143.74714844 400.13712891 143.74714844 401.87109375 142.8515625 C413.07869827 136.21934709 418.06344268 125.66127937 423 114 C423.56654297 112.88431641 423.56654297 112.88431641 424.14453125 111.74609375 C427.12076434 102.19224964 426.35852981 88.38040937 422.25 79.3359375 C421.8375 78.56507813 421.425 77.79421875 421 77 C420.38125 75.75089844 420.38125 75.75089844 419.75 74.4765625 C412.92552685 61.87455242 401.81629199 52.82955759 388.203125 48.54296875 C382.61660171 47.16614829 377.20968445 46.85563282 371.47651672 46.86857224 C370.20361083 46.86549328 370.20361083 46.86549328 368.90498966 46.86235213 C366.05423959 46.85668633 363.20353791 46.85813887 360.3527832 46.85955811 C358.29105702 46.85697422 356.22933134 46.853961 354.16760635 46.8505547 C348.49600006 46.84248404 342.82440643 46.84069509 337.15279508 46.83995724 C331.03805276 46.83810678 324.92331701 46.83055944 318.80857849 46.82382202 C304.73699801 46.80952887 290.66542169 46.80371186 276.59383569 46.79913008 C269.63759774 46.79679312 262.68136061 46.79319034 255.7251233 46.7894347 C231.90532203 46.77659938 208.08552121 46.7658806 184.26571655 46.7624321 C182.77072601 46.76221047 181.27573546 46.76198868 179.78074491 46.76176675 C178.2821753 46.76154611 176.78360569 46.76132563 175.28503609 46.7611053 C172.27872848 46.76066275 169.27242088 46.76021563 166.26611328 46.75976562 C165.52072504 46.75965623 164.77533679 46.75954684 164.00736102 46.75943414 C139.84589587 46.75580466 115.68446074 46.73988865 91.52300708 46.71657526 C65.96824555 46.69196263 40.41350118 46.67825858 14.85872746 46.67706418 C12.05176353 46.67689273 9.24479961 46.67667731 6.43783569 46.67642975 C5.74670023 46.67637398 5.05556476 46.67631821 4.34348579 46.67626075 C-6.76493922 46.6751115 -17.87333335 46.66410012 -28.98174795 46.64954269 C-40.1542166 46.63515488 -51.32664636 46.63220545 -62.4991253 46.63998267 C-68.54838615 46.64388689 -74.59754339 46.64297059 -80.64679146 46.62892532 C-86.18997858 46.61617295 -91.7329844 46.61739582 -97.27617133 46.62951604 C-99.27622957 46.63147071 -101.27630071 46.62840529 -103.27634084 46.61967167 C-123.06774851 46.53875427 -140.44863266 48.67020071 -155.44921875 63.01953125 Z " fill="#040404" transform="translate(429,659)"/>
<path d="M0 0 C1.13573456 -0.0087616 2.27146912 -0.01752319 3.44161987 -0.02655029 C7.19226414 -0.0485368 10.94172673 -0.03398863 14.69238281 -0.01708984 C17.30544256 -0.02045908 19.91850078 -0.0253126 22.53155518 -0.03158569 C28.00912209 -0.04067264 33.48635157 -0.02872532 38.96386719 -0.00488281 C45.27496341 0.02227287 51.58525049 0.01355198 57.89632678 -0.01401484 C63.98862237 -0.03955051 70.08056269 -0.03670383 76.17288971 -0.02210617 C78.75475428 -0.01878058 81.3366396 -0.02282924 83.91847992 -0.03450394 C87.53734594 -0.04727264 91.15468453 -0.02774555 94.7734375 0 C95.83144562 -0.01012115 96.88945374 -0.02024231 97.97952271 -0.03067017 C105.62057364 0.07728369 112.66925445 1.74055744 118.29127121 7.26383018 C122.12408311 11.96628242 123.79344987 17.96139741 125.64550781 23.64697266 C125.98582031 24.62408203 126.32613281 25.60119141 126.67675781 26.60791016 C127.64065129 29.63173726 128.32985138 32.59952026 128.95800781 35.70947266 C130.22212993 41.72669394 131.55520161 47.723007 132.95800781 53.70947266 C133.22254761 54.86491577 133.22254761 54.86491577 133.49243164 56.04370117 C134.9462836 62.19942444 136.67402788 68.26139277 138.43457031 74.33447266 C141.51913025 85.00704047 144.27714584 95.74843477 146.95043945 106.53051758 C147.70695655 109.58023476 148.46976254 112.62832797 149.23339844 115.67626953 C151.95530891 126.58319052 154.57942436 137.50306831 156.96669006 148.48875427 C157.99797794 153.15352895 159.20722657 157.56145954 160.95800781 162.02197266 C163.44761057 168.97464378 163.53183329 176.35674598 162.64550781 183.64697266 C160.18006506 188.77795208 156.43882564 192.32113412 151.27033997 194.77433777 C148.52604101 195.68668982 146.40631188 195.90637591 143.52319336 195.92163086 C142.5283342 195.93116287 141.53347504 195.94069489 140.50846863 195.95051575 C139.44380875 195.94960434 138.37914886 195.94869293 137.28222656 195.94775391 C136.1762764 195.95203903 135.07032623 195.95632416 133.93086243 195.96073914 C131.59331953 195.96647596 129.25575879 195.96698748 126.91821289 195.96264648 C123.35629499 195.95949327 119.79521331 195.98293138 116.23339844 196.00830078 C113.95800886 196.01057462 111.68261705 196.01127688 109.40722656 196.01025391 C108.34863937 196.01946365 107.29005219 196.0286734 106.1993866 196.03816223 C98.28402657 195.98907097 91.75165267 194.83760759 85.45800781 189.64697266 C84.7090625 189.03595703 83.96011719 188.42494141 83.18847656 187.79541016 C82.34929687 187.08642578 81.51011719 186.37744141 80.64550781 185.64697266 C80.1538916 185.23350586 79.66227539 184.82003906 79.15576172 184.39404297 C76.39440524 182.07092951 73.64230978 179.73726864 70.89550781 177.39697266 C68.05273601 174.98128394 65.17013432 172.61928935 62.27050781 170.27197266 C57.15103101 166.10773351 52.17600503 161.79070329 47.20385742 157.453125 C42.6114076 153.45648095 37.92868081 149.58963161 33.19238281 145.76416016 C30.57888129 143.59158681 28.08097045 141.32599409 25.58300781 139.02197266 C14.90845448 129.35922532 5.10490013 123.68426481 -9.37402344 122.43212891 C-13.4644812 121.35456402 -14.79577236 120.0347935 -17.35449219 116.64697266 C-18.10282433 113.09177182 -18.04793704 109.59180686 -18.01733398 105.96923828 C-18.02770187 104.89389328 -18.03806976 103.81854828 -18.04875183 102.71061707 C-18.07584543 99.15776353 -18.06615487 95.60614225 -18.05371094 92.05322266 C-18.05961836 89.58369603 -18.06686445 87.11417228 -18.07539368 84.64465332 C-18.08727843 79.46965613 -18.08055783 74.29508893 -18.0612793 69.12011719 C-18.03838754 62.48506842 -18.06517457 55.85129976 -18.10634136 49.21637726 C-18.13190261 44.11711912 -18.12934395 39.01816797 -18.11844826 33.91886902 C-18.11696014 31.47241554 -18.12466786 29.02593871 -18.14169884 26.57954407 C-18.16163752 23.16047241 -18.14331125 19.74367346 -18.11499023 16.32470703 C-18.12870667 15.31260666 -18.1424231 14.30050629 -18.15655518 13.25773621 C-18.07927865 8.59521798 -17.86589567 6.33097794 -15.01661682 2.52005005 C-10.47760035 -0.47330796 -5.24729065 -0.04981558 0 0 Z " fill="#FBFAFB" transform="translate(552.3544921875,370.35302734375)"/>
<path d="M0 0 C135.96 0 271.92 0 412 0 C410.35 3.96 408.7 7.92 407 12 C401.27653432 26.79245285 401.66316664 39.59204204 408 54 C408.71671875 55.0725 409.4334375 56.145 410.171875 57.25 C412 60 412 60 412 63 C276.37 63 140.74 63 1 63 C5 53 5 53 6.265625 49.99609375 C11.23044802 37.09149423 10.20362121 23.67357602 5 11 C3.35 7.37 1.7 3.74 0 0 Z " fill="#000000" transform="translate(351,726)"/>
<path d="M0 0 C3.72961868 3.21856602 5.47308394 6.75088866 7.29296875 11.2265625 C7.59605453 11.94965103 7.89914032 12.67273956 8.21141052 13.41773987 C9.21339173 15.81615324 10.20062968 18.22033366 11.1875 20.625 C11.89373794 22.32618964 12.60061901 24.02711242 13.30810547 25.7277832 C15.55605932 31.1447931 17.78094707 36.57109661 20 42 C20.36212585 42.88552551 20.72425171 43.77105103 21.09735107 44.68341064 C27.83303982 61.16613967 34.48653134 77.68180372 41.078125 94.22265625 C41.40207245 95.03498215 41.7260199 95.84730804 42.05978394 96.68424988 C43.58501661 100.50953458 45.10742972 104.33588319 46.62353516 108.16479492 C47.16301495 109.52134985 47.70256181 110.87787811 48.2421875 112.234375 C48.7047998 113.40194336 49.16741211 114.56951172 49.64404297 115.77246094 C51.8688095 122.0031277 51.8688095 122.0031277 56.41796875 126.296875 C60.47513681 128.97301006 61.52725874 132.84344556 63.3125 137.25 C63.72056885 138.22130859 64.1286377 139.19261719 64.54907227 140.19335938 C65.76118964 143.09349329 66.95645282 146.00001228 68.14489746 148.90991211 C69.08395711 151.20521252 70.02833017 153.49827943 70.97363281 155.79101562 C74.82630067 165.13595808 78.66620837 174.48597628 82.47610474 183.84844971 C82.7642807 184.55523865 83.05245667 185.26202759 83.34936523 185.99023438 C83.62311981 186.66441406 83.89687439 187.33859375 84.17892456 188.03320312 C84.72675237 189.34546504 85.29555853 190.64916245 85.88479614 191.94335938 C87.93104866 196.44492119 88.32941156 199.1571436 87 204 C78.35204244 209.76530504 62.45021068 207.11668106 52.1875 207.0625 C50.51237114 207.05747056 48.83724081 207.05291023 47.16210938 207.04882812 C43.10803561 207.03794708 39.05403469 207.02076371 35 207 C32.64070141 194.64676945 30.45539063 182.26733872 28.3125 169.875 C27.96096026 167.8464175 27.60931402 165.81785345 27.25756836 163.78930664 C26.71265807 160.64666593 26.16783309 157.50401068 25.62342834 154.36128235 C24.42593213 147.44959397 23.22279719 140.53891073 22.015625 133.62890625 C21.36431195 129.89848482 20.71327235 126.16801579 20.0625 122.4375 C19.89989685 121.5054071 19.7372937 120.57331421 19.56976318 119.61297607 C17.59797642 108.30025289 15.65246495 96.98343625 13.7421875 85.66015625 C13.55214142 84.53417023 13.36209534 83.4081842 13.16629028 82.24807739 C12.3999711 77.70679009 11.63368809 73.16549761 10.86920166 68.62390137 C8.9490832 57.22786015 7.00168165 45.84001362 4.875 34.48046875 C4.70887711 33.59199249 4.54275421 32.70351624 4.37159729 31.78811646 C3.60373201 27.69546257 2.82538529 23.60516688 2.03100586 19.51757812 C1.75887342 18.08855659 1.4868147 16.65952102 1.21484375 15.23046875 C0.97886475 14.01770264 0.74288574 12.80493652 0.49975586 11.55541992 C-0.05301834 7.6228109 -0.08486943 3.96594043 0 0 Z " fill="#F6F6F6" transform="translate(1253,287)"/>
<path d="M0 0 C1.47317858 10.74631163 2.28435784 21.14700916 2 32 C-14.95310269 37.02481815 -32.49689301 39.87285011 -49.875 43 C-68.07058556 46.27426116 -86.20487643 49.74086132 -104.301651 53.52651978 C-107.87134605 54.27221098 -111.44192645 55.013617 -115.01254272 55.75488281 C-117.63611555 56.30178848 -120.25812308 56.85578526 -122.88012695 57.41015625 C-124.50725824 57.7490149 -126.13445274 58.08757019 -127.76171875 58.42578125 C-128.50436981 58.5848848 -129.24702087 58.74398834 -130.01217651 58.90791321 C-134.073848 59.74395426 -137.85437863 60.1641306 -142 60 C-143.90828622 55.30879638 -145.0882491 52.07800043 -145 47 C-138.48377866 44.31159091 -131.93809113 41.90142027 -125.2265625 39.75 C-124.31817123 39.4555751 -123.40977997 39.16115021 -122.47386169 38.85780334 C-120.53276594 38.22891094 -118.59120011 37.60146788 -116.64920044 36.97537231 C-111.46280199 35.30264276 -106.28049537 33.61731245 -101.09765625 31.93359375 C-100.05800217 31.59613632 -99.01834808 31.25867889 -97.94718933 30.91099548 C-88.97382758 27.99664252 -80.01313124 25.04587095 -71.0625 22.0625 C-70.36777588 21.83147583 -69.67305176 21.60045166 -68.95727539 21.36242676 C-60.55009888 18.56503828 -52.16124639 15.71787694 -43.78703308 12.82322693 C-39.46671555 11.32991323 -35.14438467 9.84246299 -30.82223511 8.35446167 C-27.68118342 7.26940815 -24.54384536 6.17406744 -21.40649414 5.07836914 C-19.47168056 4.41114642 -17.53671075 3.74437647 -15.6015625 3.078125 C-14.27748131 2.61033882 -14.27748131 2.61033882 -12.926651 2.13310242 C-8.46659778 0.60957567 -4.78527733 -0.38360107 0 0 Z " fill="#F4F4F5" transform="translate(1142,179)"/>
<path d="M0 0 C3.80295717 1.95039122 6.59900396 4.04384077 9.4296875 7.24609375 C10.08324219 7.96023438 10.73679687 8.674375 11.41015625 9.41015625 C17.55890303 17.33848045 17.5802163 25.48647992 16.71435547 35.10693359 C15.84189544 41.66310406 13.18741827 47.6169503 8.4296875 52.24609375 C-1.55723097 59.86517686 -11.22251142 61.65572856 -23.5703125 60.24609375 C-32.3910555 57.91949572 -38.2774965 51.58529258 -42.953125 44.00390625 C-46.85520198 35.89959252 -47.37626783 25.51718598 -44.46484375 17.01953125 C-35.58620741 -0.26167514 -18.42912911 -7.71886712 0 0 Z " fill="#040404" transform="translate(325.5703125,728.75390625)"/>
<path d="M0 0 C4.20593496 2.25114405 7.03541108 4.74126113 9.8828125 8.54296875 C10.38683594 9.15398438 10.89085937 9.765 11.41015625 10.39453125 C16.88041445 18.2438214 15.82529597 28.53270531 14.40625 37.58203125 C12.2259057 46.06698556 7.48182233 52.08189206 0.0078125 56.53515625 C-8.2548669 60.45385346 -18.31863935 61.29078469 -27.13671875 58.6328125 C-29.63533924 57.43915509 -31.84388583 56.12036175 -34.1171875 54.54296875 C-34.76042969 54.14335938 -35.40367187 53.74375 -36.06640625 53.33203125 C-42.09044569 49.01981213 -44.99517684 42.46742459 -47.1171875 35.54296875 C-48.71263594 25.24215398 -46.98180851 17.13923443 -41.1171875 8.54296875 C-30.7921661 -4.74237347 -14.94903279 -6.42988519 0 0 Z " fill="#040404" transform="translate(819.1171875,729.45703125)"/>
<path d="M0 0 C1.59514139 -0.01164816 3.19024012 -0.03229596 4.78515625 -0.06152344 C7.11574165 -0.10404457 9.44519902 -0.12032908 11.77612305 -0.13061523 C12.48655258 -0.14812332 13.19698212 -0.16563141 13.92893982 -0.18367004 C17.16930376 -0.16941283 19.16612703 0.12197375 21.91503906 1.88427734 C25.02434456 6.81196018 23.38800889 12.38852652 22.1940918 17.78735352 C21.80157227 19.5875293 21.80157227 19.5875293 21.40112305 21.42407227 C21.12397461 22.6602832 20.84682617 23.89649414 20.5612793 25.17016602 C20.29186523 26.39864258 20.02245117 27.62711914 19.74487305 28.89282227 C19.22089328 31.27756918 18.69273784 33.6614034 18.15991211 36.04418945 C17.70749686 38.07670007 17.26284038 40.11097131 16.82983398 42.14770508 C15.54092278 48.19052253 15.54092278 48.19052253 14.4362793 49.29516602 C13.09360517 49.38148476 11.74653608 49.40223075 10.40112305 49.39282227 C9.59223633 49.38959961 8.78334961 49.38637695 7.94995117 49.38305664 C7.09981445 49.37467773 6.24967773 49.36629883 5.3737793 49.35766602 C4.51977539 49.3531543 3.66577148 49.34864258 2.78588867 49.34399414 C0.66932266 49.33216975 -1.44720755 49.3142337 -3.5637207 49.29516602 C-4.05400757 48.4352002 -4.05400757 48.4352002 -4.55419922 47.55786133 C-5.52769764 45.85085829 -6.50161013 44.14409135 -7.47583008 42.4375 C-8.58125385 40.50022849 -9.68540928 38.56223274 -10.78833008 36.62353516 C-14.21733397 30.5981556 -14.21733397 30.5981556 -17.77856445 24.65063477 C-22.06749851 17.64005765 -26.5637207 9.7242903 -26.5637207 1.29516602 C-17.71488634 0.25978061 -8.89831967 0.04528172 0 0 Z " fill="#F6F6F7" transform="translate(1318.563720703125,516.704833984375)"/>
<path d="M0 0 C3.81960632 1.59150263 5.81914222 3.52159276 8 7 C8.72993908 11.80185417 8.58279853 16.44587059 6.875 21 C3.08721404 25.04030503 -0.64499511 26.1956471 -6.0625 26.4375 C-9.51182116 26.32338712 -10.91677952 26.04681152 -14 24.3125 C-18.02427247 19.65943496 -18.44039582 15.38046083 -18.32421875 9.375 C-17.85998358 5.97433751 -16.49890675 4.28471474 -14 2 C-9.53862011 -0.97425326 -5.23225066 -0.49867492 0 0 Z " fill="#F1F1F2" transform="translate(1186,161)"/>
</svg>
