<?xml version="1.0" encoding="UTF-8"?>
<svg version="1.1" xmlns="http://www.w3.org/2000/svg" width="1536" height="1024">
<path d="M0 0 C506.88 0 1013.76 0 1536 0 C1536 337.92 1536 675.84 1536 1024 C1029.12 1024 522.24 1024 0 1024 C0 686.08 0 348.16 0 0 Z " fill="#FCFCFC" transform="translate(0,0)"/>
<path d="M0 0 C3.1037065 1.53284476 5.83149631 3.46488834 8.625 5.5 C9.44186279 6.07733887 10.25872559 6.65467773 11.1003418 7.24951172 C20.11003784 13.67390585 28.9060464 20.39292779 37.64794922 27.17529297 C39.73066625 28.79105248 41.81929867 30.39870955 43.91015625 32.00390625 C55.28656527 40.78514546 66.06048364 50.26655379 76.703125 59.91796875 C78.20740399 61.28154138 79.71762915 62.63858957 81.234375 63.98828125 C93.71974272 75.11198974 105.95995708 86.42345627 117 99 C117.60585937 99.67933594 118.21171875 100.35867188 118.8359375 101.05859375 C120.57613889 103.02346903 122.28979485 105.00896117 124 107 C124.80824219 107.92941406 125.61648438 108.85882813 126.44921875 109.81640625 C147.00979032 133.61945168 171.97407799 165.19245702 172.1875 198.1875 C172.20167969 199.19167969 172.21585938 200.19585937 172.23046875 201.23046875 C171.98867866 204.13604803 171.68577666 205.63586277 170 208 C166.53309797 210.41167618 163.90126162 211.40968107 159.7109375 211.7734375 C158.69636475 211.87309814 157.68179199 211.97275879 156.63647461 212.07543945 C155.56018799 212.17429443 154.48390137 212.27314941 153.375 212.375 C122.80347626 215.63528469 95.13872796 227.75322845 69.08056641 243.72851562 C65.07009077 246.17941414 61.03230774 248.58524724 57 251 C66.14567896 270.26507139 66.14567896 270.26507139 75.90771484 289.22192383 C81.00224027 298.78046411 85.77639659 308.50272601 90.58496094 318.20727539 C94.2056245 325.50013593 97.89908487 332.74463432 101.71484375 339.9375 C107.44353543 350.74815548 112.91764808 361.68408322 118.38061523 372.63085938 C120.08860943 376.05230223 121.80096927 379.47153704 123.51367188 382.890625 C124.6044238 385.07278816 125.69492821 387.25507506 126.78515625 389.4375 C127.2954689 390.45610107 127.80578156 391.47470215 128.33155823 392.52416992 C128.79972458 393.46365479 129.26789093 394.40313965 129.75024414 395.37109375 C130.1619838 396.19536865 130.57372345 397.01964355 130.99794006 397.86889648 C133.22278626 402.60052717 133.54130887 406.84854388 133 412 C131.5 415.0625 131.5 415.0625 130 417 C135.30146268 413.98989343 135.30146268 413.98989343 138.58984375 409.1953125 C141.21887786 395.12372041 134.8623361 384.60608624 128.6875 372.4296875 C128.32076172 371.70491211 127.95402344 370.98013672 127.57617188 370.23339844 C126.87454238 368.85879038 126.16274594 367.48931026 125.43945312 366.12597656 C123.67241522 362.72522856 123 360.92867515 123 357 C136.61489243 356.49781134 147.80778938 360.26569098 158.3125 369.1875 C167.47568308 377.93885463 174.81735158 390.25791313 175.16796875 403.14453125 C175.17984629 404.70048912 175.18621511 406.25649733 175.1875 407.8125 C175.19974609 408.58142578 175.21199219 409.35035156 175.22460938 410.14257812 C175.26061611 424.3652374 169.39852114 436.51931475 160 447 C148.49640167 457.29973338 133.41711793 462.70192287 118.13671875 462.30859375 C104.19581041 461.53177088 91.48959129 453.9932851 82 444 C71.48285172 431.00177081 67.949198 419.4512658 69 403 C70.35658806 393.51456535 73.61525788 385.30666622 80.4375 378.5 C81.90561669 376.91313733 81.90561669 376.91313733 83 375 C82.15902626 366.50444898 77.84403201 359.64907955 73.6875 352.375 C72.96082038 351.08373974 72.23516662 349.79190167 71.51049805 348.49951172 C69.69158857 345.26160933 67.85977498 342.03122974 66.02380371 338.80297852 C64.51084279 336.13856539 63.00939404 333.46771368 61.5078125 330.796875 C58.87767008 326.12379952 56.23375484 321.45869892 53.58544922 316.79589844 C51.94942831 313.91081814 50.31956831 311.02233449 48.69140625 308.1328125 C41.87597228 296.04036534 34.9845803 283.99556175 28 272 C15.8196154 279.41011991 5.32782434 288.23659176 -5 298 C-5.73887451 298.68787598 -5.73887451 298.68787598 -6.49267578 299.38964844 C-31.63177322 322.89482895 -56.34032646 360.63104044 -58.1000061 396.01069641 C-58.14821688 398.35008936 -58.16478863 400.68745356 -58.16796875 403.02734375 C-58.17129715 403.8933168 -58.17462555 404.75928986 -58.17805481 405.65150452 C-58.1831037 407.48291496 -58.18546377 409.31433455 -58.18530273 411.14575195 C-58.18746849 413.89746052 -58.20558828 416.64875396 -58.22460938 419.40039062 C-58.27580721 434.39644002 -56.99204278 448.12335458 -52.375 462.5 C-48.12445325 475.8251267 -48.12445325 475.8251267 -49 481 C-51.50984162 484.12409071 -53.02431867 485.796122 -56.99936336 486.62674582 C-58.12426003 486.62755758 -59.24915669 486.62836934 -60.40814114 486.6292057 C-62.36125844 486.64876381 -62.36125844 486.64876381 -64.35383266 486.66871703 C-65.79704407 486.65790693 -67.240252 486.64662365 -68.68345642 486.63491821 C-70.21793069 486.64067885 -71.75239807 486.64861959 -73.28685099 486.65855443 C-77.50554335 486.6794595 -81.7236714 486.66909619 -85.942366 486.65362334 C-90.49121353 486.64232853 -95.03996278 486.6597633 -99.58879089 486.67352295 C-108.50102217 486.69578045 -117.41304316 486.69094284 -126.32528275 486.67645974 C-133.56769329 486.66517667 -140.81004482 486.66363257 -148.05246162 486.66907883 C-149.08248622 486.66984499 -150.11251081 486.67061116 -151.17374827 486.67140054 C-153.26611023 486.67299914 -155.35847218 486.6746202 -157.4508341 486.6762635 C-177.08095309 486.69052854 -196.71095542 486.67411679 -216.34105528 486.64726166 C-233.18958684 486.62492554 -250.03794616 486.62879939 -266.88647461 486.65185547 C-286.44386573 486.67860585 -306.00115452 486.68915167 -325.55856138 486.67379415 C-327.64361511 486.67220138 -329.72866885 486.67062953 -331.81372261 486.66907883 C-332.83965242 486.66830745 -333.86558223 486.66753607 -334.92260082 486.66674132 C-342.15694639 486.66242179 -349.39122713 486.6697164 -356.62556267 486.68147659 C-365.44103119 486.6954918 -374.25627708 486.6917224 -383.07172006 486.66507287 C-387.57073975 486.65192098 -392.0693881 486.64680554 -396.56840515 486.66331863 C-400.68597094 486.67820319 -404.80282071 486.67005523 -408.92032141 486.64343087 C-410.41084038 486.63783945 -411.90141967 486.64070129 -413.39189994 486.65280981 C-425.9237423 486.74681803 -425.9237423 486.74681803 -429.8631525 483.58531761 C-433.10598468 479.66189717 -433.53329457 477.06970449 -433.47753906 472.0625 C-432.48092755 465.67114272 -428.95264206 460.10498678 -425.875 454.5 C-425.20129516 453.23404501 -424.52940744 451.96712126 -423.859375 450.69921875 C-420.48884527 444.36479116 -416.97384722 438.15332976 -413.09667969 432.11108398 C-411.20939895 428.47811058 -411.29636186 426.01073741 -412 422 C-414.47087576 419.23004596 -416.01378145 418.99864674 -419.74249268 418.63250732 C-421.28043657 418.62077774 -422.81856068 418.6256706 -424.35644531 418.64355469 C-425.19985977 418.64151031 -426.04327423 418.63946594 -426.9122467 418.63735962 C-429.71775681 418.63434074 -432.52268379 418.65291469 -435.328125 418.671875 C-437.31166439 418.67494091 -439.29520594 418.67681069 -441.27874756 418.67755127 C-445.46537383 418.6821669 -449.65180916 418.69660237 -453.83837891 418.71875 C-459.07535908 418.74638053 -464.31218685 418.75780618 -469.54923248 418.76256561 C-490.13591121 418.78306869 -510.71588365 418.95399055 -531.296875 419.453125 C-532.11996407 419.47230736 -532.94305313 419.49148972 -533.79108429 419.51125336 C-538.86290624 419.63273941 -543.9307978 419.79598998 -549 420 C-550.21554565 420.04499634 -551.43109131 420.08999268 -552.68347168 420.13635254 C-554.31016785 420.22692932 -554.31016785 420.22692932 -555.96972656 420.31933594 C-556.8983551 420.36733337 -557.82698364 420.41533081 -558.78375244 420.46478271 C-561.09948411 420.79138352 -561.09948411 420.79138352 -562.35906982 422.62530518 C-563.2350575 424.47574118 -563.2350575 424.47574118 -563.97265625 426.61328125 C-568.10156993 436.2055484 -577.66262274 442.4100863 -586.97265625 446.21484375 C-589.63373159 447.20003765 -592.30120268 448.12435029 -595 449 C-595.99 449.33 -596.98 449.66 -598 450 C-615.69503594 451.26393114 -629.38270267 446.62397585 -643 435 C-653.01002215 423.28153657 -655.63204517 408.90295972 -655 394 C-653.68735001 381.69859437 -646.58760443 370.63036913 -637.25 362.8125 C-625.63745267 353.93744506 -614.5054758 350.99092342 -600 352 C-591.47955811 353.32356379 -583.07469811 356.12124985 -576.16015625 361.40625 C-575 363 -575 363 -574.875 365.0078125 C-576.66079565 368.17015897 -579.73011486 368.75628285 -583 369.875 C-593.55482933 373.82917644 -600.19557585 378.71416444 -607.54296875 387.4140625 C-610 390 -610 390 -613.2578125 391.96484375 C-616.24605694 393.74232914 -616.24605694 393.74232914 -616.76171875 396.83984375 C-616.61597752 403.35485873 -616.61597752 403.35485873 -614.0625 409.25 C-609.90823566 411.62386534 -606.67119377 412.0051936 -602 411 C-598.71055624 409.37768449 -598.71055624 409.37768449 -597 406 C-596.29055247 401.34382011 -595.73996544 396.77607886 -598.5546875 392.80859375 C-599.03164063 392.21175781 -599.50859375 391.61492187 -600 391 C-599.2974027 386.5502171 -596.45338485 384.31690767 -593.16357422 381.56542969 C-589.17160347 378.67708435 -584.74473789 376.78825351 -580.25 374.8125 C-579.19780273 374.34255615 -578.14560547 373.8726123 -577.06152344 373.38842773 C-573.71562103 371.90664981 -570.3599071 370.44971601 -567 369 C-565.42798828 368.31647461 -565.42798828 368.31647461 -563.82421875 367.61914062 C-538.56092475 356.71785623 -512.41631354 348.16630759 -485.9375 340.75 C-485.25653259 340.55500916 -484.57556519 340.36001831 -483.8739624 340.15911865 C-471.29975528 336.58296097 -459.07117232 334.74792499 -447 341 C-440.3200316 345.17212524 -434.174952 350.12745108 -428 355 C-425.70625961 356.79355824 -423.41060788 358.58464677 -421.11474609 360.37548828 C-419.62706275 361.53754833 -418.14168792 362.7025701 -416.65869141 363.87060547 C-410.79422994 368.46497362 -404.75926057 372.7751752 -398.56787109 376.91845703 C-392.04155555 381.37962448 -387.93276449 386.99023388 -383.33203125 393.36328125 C-382.07933585 395.13176185 -382.07933585 395.13176185 -380 396 C-373.85450978 396.51212418 -370.96894361 395.99939364 -366 392 C-364.35843264 390.35843264 -364.71184008 388.50784199 -364.625 386.25 C-364.69250428 382.60996134 -364.85556981 381.23407651 -366.8125 378.0625 C-370.48997699 375.68295606 -373.71174672 374.859282 -377.98828125 374.06640625 C-382.31711459 372.53362869 -385.45973433 369.87369375 -389 367 C-389.62044189 366.50024658 -390.24088379 366.00049316 -390.88012695 365.4855957 C-392.76105692 363.95782401 -394.63090931 362.41722532 -396.5 360.875 C-401.86932248 356.47819841 -407.30491875 352.20198353 -412.875 348.0625 C-418.93881095 343.55470015 -424.95908341 338.99565703 -430.9375 334.375 C-431.72560059 333.77051025 -432.51370117 333.16602051 -433.32568359 332.54321289 C-434.05223145 331.97981201 -434.7787793 331.41641113 -435.52734375 330.8359375 C-436.17437256 330.33626465 -436.82140137 329.8365918 -437.48803711 329.32177734 C-439.39665547 327.6532387 -439.93724534 326.52364133 -440.23828125 324.01171875 C-440.3667078 319.98993988 -440.35610863 317.6198928 -438.3125 314.0625 C-433.99207047 310.20914394 -430.51949794 309.78483222 -424.78100586 309.83276367 C-419.08182184 310.17548521 -413.48780144 311.3076223 -407.875 312.3125 C-405.20019591 312.7766113 -402.52410752 313.23299301 -399.84765625 313.6875 C-399.1824144 313.80076126 -398.51717255 313.91402252 -397.83177185 314.03071594 C-391.67313556 315.07127259 -385.50331899 315.98681498 -379.3125 316.8125 C-378.42481934 316.9360083 -377.53713867 317.0595166 -376.62255859 317.18676758 C-369.47476459 318.11162454 -361.83110189 319.05167503 -354.8125 317.125 C-352.19799486 314.05971811 -352.11787047 311.57682572 -352.3359375 307.6171875 C-353.59256372 302.6646018 -357.1442177 300.10655446 -361 297 C-362.30130859 295.92105469 -362.30130859 295.92105469 -363.62890625 294.8203125 C-365.48433977 293.29479248 -367.3492288 291.78071146 -369.22265625 290.27734375 C-371.83524253 288.13509649 -374.32809016 285.91359429 -376.8125 283.625 C-382.93954817 278.06367302 -389.43920077 273.0305117 -396 268 C-397.12656006 267.12867432 -397.12656006 267.12867432 -398.27587891 266.23974609 C-432.24320478 240.01268573 -469.91809355 221.05633048 -509.375 204.5625 C-535.79856474 193.50690121 -561.07544793 181.94251424 -585 166 C-585.85271484 165.43394043 -586.70542969 164.86788086 -587.58398438 164.28466797 C-596.93126191 158.05009973 -606.10148404 151.5716454 -615.16162109 144.92724609 C-625.42689969 137.42502374 -635.99019419 130.33513422 -646.54296875 123.24609375 C-647.25380112 122.76819397 -647.96463348 122.29029419 -648.69700623 121.7979126 C-653.03209168 118.88389389 -653.03209168 118.88389389 -657.37182617 115.97680664 C-669.31280501 107.98719167 -681.28197985 99.90194142 -691.75 90 C-692.27875732 89.50145508 -692.80751465 89.00291016 -693.35229492 88.48925781 C-694.91210813 87.00336156 -696.45740558 85.50373941 -698 84 C-698.92941406 83.10796875 -699.85882812 82.2159375 -700.81640625 81.296875 C-707.52746 74.44928964 -707.52746 74.44928964 -707.75 69.5 C-707 66 -707 66 -704 64 C-700.01886987 63.54260913 -696.0043713 63.66910704 -692 63.6875 C-690.80044678 63.69023926 -689.60089355 63.69297852 -688.36499023 63.69580078 C-676.48870182 63.83055619 -664.83888222 65.12032934 -653.06982422 66.61962891 C-648.59507832 67.17407889 -644.11260089 67.62649768 -639.625 68.0625 C-638.83343506 68.14097168 -638.04187012 68.21944336 -637.22631836 68.30029297 C-633.01690149 68.71523907 -628.80602843 69.11131832 -624.59375 69.49609375 C-616.02155914 70.2829538 -607.51069964 71.15379028 -598.99609375 72.4375 C-593.63660892 73.21747248 -588.2549224 73.81797694 -582.875 74.4375 C-581.76745361 74.56576172 -580.65990723 74.69402344 -579.51879883 74.82617188 C-573.5920775 75.503945 -567.66378333 76.13981928 -561.7265625 76.71875 C-540.58280094 78.8009824 -540.58280094 78.8009824 -530.75 80.9375 C-530.06615234 81.0830835 -529.38230469 81.22866699 -528.67773438 81.37866211 C-519.75423294 83.49631213 -514.18878881 86.86629125 -509 94.40625 C-505.96998676 99.49572537 -504.09028896 105.12434627 -501.99780273 110.64331055 C-495.86309093 126.4877027 -485.35697936 135.3364937 -469.97167969 142.16357422 C-441.33024009 154.31384317 -409.64820856 156.60483396 -378.89628601 157.13127136 C-375.3959461 157.19147935 -371.89579296 157.2607063 -368.39559937 157.3288269 C-365.79476675 157.3742187 -363.19408142 157.40332896 -360.59301758 157.43188477 C-352.53568077 157.5606614 -345.50310181 157.70638488 -338 161 C-337.9071875 160.0203125 -337.814375 159.040625 -337.71875 158.03125 C-337.06507458 153.50999504 -335.38751827 149.63340902 -333.5 145.5 C-333.14397705 144.71463867 -332.7879541 143.92927734 -332.42114258 143.12011719 C-319.16359025 114.51916534 -299.44122955 94.0362247 -270 82 C-232.45879392 69.02554517 -182.65845474 78.6432175 -146 91 C-145.0419043 91.31130859 -144.08380859 91.62261719 -143.09667969 91.94335938 C-129.95751632 96.21699729 -117.0805945 101.04557992 -104.3125 106.3125 C-103.69294434 106.56702942 -103.07338867 106.82155884 -102.43505859 107.08380127 C-89.07885282 112.59230047 -89.07885282 112.59230047 -84 116 C-83.67 116.99 -83.34 117.98 -83 119 C-83.76183594 119.56847656 -84.52367187 120.13695312 -85.30859375 120.72265625 C-88.01734951 122.74830506 -90.72111005 124.78029401 -93.42236328 126.81591797 C-94.80616024 127.85451519 -96.19741459 128.88316099 -97.58984375 129.91015625 C-102.81176416 133.82882815 -108.02651532 138.05303063 -111 144 C-111.82999043 155.01833495 -111.82999043 155.01833495 -108 165 C-102.38102307 170.90529423 -98.52304691 173.10826136 -90.375 173.3125 C-88.93253906 173.36857422 -88.93253906 173.36857422 -87.4609375 173.42578125 C-78.25515452 172.29324136 -70.15146051 167.05495959 -62.25 162.5 C-60.74759766 161.64728516 -60.74759766 161.64728516 -59.21484375 160.77734375 C-55.22165917 158.4977907 -51.2537351 156.23159018 -47.4609375 153.62890625 C-45 152 -45 152 -42.375 151.4375 C-38.86600051 152.26857883 -37.9401539 154.02509736 -36 157 C-34.95548562 158.97711651 -33.94301862 160.97250996 -33 163 C-28.71 162.01 -24.42 161.02 -20 160 C-21.27065591 156.83087001 -22.58639765 153.69714708 -23.9375 150.5625 C-24.29134766 149.66466797 -24.64519531 148.76683594 -25.00976562 147.84179688 C-26.14782849 145.26413312 -27.18534433 143.15933253 -29 141 C-32.04763979 139.86725516 -34.78641914 139.97326142 -38 140 C-38.95213379 139.76539063 -39.90426758 139.53078125 -40.88525391 139.2890625 C-45.07972302 138.89979683 -46.85133034 140.19062085 -50.39453125 142.41015625 C-50.98618576 142.77467392 -51.57784027 143.13919159 -52.18742371 143.51475525 C-54.07271004 144.68172789 -55.94225851 145.87160013 -57.8125 147.0625 C-59.05699773 147.83680734 -60.30243368 148.60960887 -61.54882812 149.38085938 C-67.52917162 153.09752925 -73.44314733 156.90099804 -79.23706055 160.90405273 C-83.72493431 163.69398007 -88.89373965 163.75044082 -94 163 C-97 160.625 -97 160.625 -99 158 C-99.66 157.34 -100.32 156.68 -101 156 C-101.58984092 151.67194652 -101.50361676 147.44370138 -100.0625 143.3125 C-93.43961553 135.88684165 -84.51874089 131.22554817 -75.9375 126.4375 C-63.20713758 120.64652143 -63.20713758 120.64652143 -54.40283203 110.96972656 C-54.20473422 108.98515484 -54.09796852 106.99202656 -54 105 C-53.02011472 103.98028198 -52.01897013 102.98066298 -51 102 C-50.62875 100.741875 -50.2575 99.48375 -49.875 98.1875 C-47.90165967 92.67020151 -43.93405129 90.74584542 -39 88 C-37.94425781 87.36449219 -36.88851562 86.72898437 -35.80078125 86.07421875 C-24.99571405 79.81204856 -24.99571405 79.81204856 -18 81 C-16 83 -16 83 -16 87 C-15.13375 86.835 -14.2675 86.67 -13.375 86.5 C-9.6692151 87.04900517 -9.33095539 87.23649545 -7.125 90 C-0.68733652 99.54723984 3.8270184 110.41870521 8.34204102 120.96728516 C11.57799116 128.46876386 15.28257205 135.72834825 19 143 C19.33 143.66 19.66 144.32 20 145 C29.66032062 145 38.99305458 140.37448916 46.2265625 134.0546875 C52.07306423 127.40177174 52.61202007 121.54784581 52.3671875 113.046875 C51.62571311 101.67760106 43.12345365 93.47862326 34.99609375 86.30078125 C17.78824438 71.68537527 -2.29483397 60.22183991 -21.66088867 48.70825195 C-27.70026931 45.09713494 -33.50130739 41.39874714 -39 37 C-38.81860864 28.29321451 -32.82141146 23.6830217 -26.84375 17.9296875 C-25.39948679 16.57422166 -23.95153865 15.22267184 -22.5 13.875 C-21.41912109 12.85986328 -21.41912109 12.85986328 -20.31640625 11.82421875 C-18.89600799 10.49628765 -17.46779278 9.17666012 -16.03125 7.86621094 C-14.71724168 6.65896579 -13.42369976 5.42888891 -12.15625 4.17285156 C-8.17819378 0.38792642 -5.70024455 -1.13757592 0 0 Z " fill="#001FFE" transform="translate(1009,213)"/>
<path d="M0 0 C0.77577393 -0.0033284 1.55154785 -0.0066568 2.35083008 -0.01008606 C3.98794976 -0.01512458 5.62507961 -0.01749534 7.26220703 -0.01733398 C9.71535118 -0.01950065 12.1680301 -0.0376342 14.62109375 -0.05664062 C54.39478246 -0.20109408 89.35571034 14.16829364 119.75 39.16796875 C120.54535156 39.81894531 121.34070313 40.46992188 122.16015625 41.140625 C133.16259461 50.4471191 145.69085281 64.45561959 150.75 78.16796875 C150.5859375 80.3828125 150.5859375 80.3828125 149.75 82.16796875 C144.25670307 84.85856316 138.3171887 86.05582891 132.39282227 87.46777344 C125.88975292 89.04998509 119.55436807 91.07811211 113.22143555 93.23754883 C105.09637557 95.92685972 105.09637557 95.92685972 100.75 95.16796875 C98.58203125 93.1484375 98.58203125 93.1484375 96.5625 90.35546875 C79.97922777 68.82485364 55.89296622 54.70580146 28.75 51.16796875 C-4.77333431 48.71990474 -33.56072251 56.29806095 -59.4375 77.98046875 C-78.06114434 94.09873539 -91.35355819 118.42091931 -93.25 143.16796875 C-94.62569591 174.27146873 -90.50208804 203.00961226 -69.25 227.16796875 C-68.81026855 227.67859863 -68.37053711 228.18922852 -67.91748047 228.71533203 C-52.23383162 246.85578056 -31.28592985 260.32026532 -7.25 264.16796875 C-4.54478802 264.2844586 -1.86572069 264.35554718 0.83984375 264.37109375 C1.62081924 264.37679382 2.40179474 264.3824939 3.20643616 264.3883667 C4.85969705 264.39779162 6.51297652 264.40434069 8.16625977 264.40820312 C10.64830233 264.41781692 13.12948283 264.44882454 15.61132812 264.48046875 C41.02087988 264.6515538 65.51742788 255.97080311 84.75 239.16796875 C85.43320312 238.62785156 86.11640625 238.08773437 86.8203125 237.53125 C99.78439046 227.03288882 106.46282193 211.75995415 113.75 197.16796875 C115.73 193.20796875 115.73 193.20796875 117.75 189.16796875 C133.92 189.16796875 150.09 189.16796875 166.75 189.16796875 C164.41258189 207.86731363 164.41258189 207.86731363 161.25 216.48046875 C160.72768799 217.93332275 160.72768799 217.93332275 160.19482422 219.41552734 C148.66464872 250.4317502 127.08176693 275.06974142 99.51708984 293.01660156 C98.06000896 293.96597894 96.6160242 294.9354243 95.17578125 295.91015625 C82.28096054 304.23665479 66.64066457 309.70734019 51.75 313.16796875 C50.67024902 313.42618408 49.59049805 313.68439941 48.47802734 313.95043945 C36.58894561 316.5063711 24.88008304 316.76620705 12.75 316.73046875 C11.70886047 316.72965302 10.66772095 316.72883728 9.59503174 316.72799683 C-6.11522874 316.67136341 -20.44822708 315.89269626 -35.25 310.16796875 C-36.60303223 309.66185059 -36.60303223 309.66185059 -37.98339844 309.14550781 C-58.23154239 301.42754185 -76.07054446 290.96267602 -92.015625 276.2109375 C-93.89950698 274.48843702 -95.82134631 272.88680508 -97.8125 271.29296875 C-102.62627152 267.19109302 -106.39176786 262.14762477 -110.25 257.16796875 C-110.93320312 256.28882813 -111.61640625 255.4096875 -112.3203125 254.50390625 C-121.93577143 241.72100202 -128.49546027 228.00524549 -134.25 213.16796875 C-134.50410645 212.51715332 -134.75821289 211.86633789 -135.02001953 211.19580078 C-136.65797829 206.91479808 -138.02421413 202.58144932 -139.25 198.16796875 C-139.44609863 197.49362793 -139.64219727 196.81928711 -139.84423828 196.12451172 C-150.441455 158.00745827 -142.94343739 115.62098232 -124.31860352 81.40454102 C-120.71163002 75.02472305 -116.62239833 69.04835194 -112.25 63.16796875 C-111.59902344 62.29140625 -110.94804687 61.41484375 -110.27734375 60.51171875 C-85.72144895 29.09531384 -51.43637112 7.35117195 -11.95947266 0.60571289 C-7.95979836 0.13372289 -4.02081962 0.00616194 0 0 Z " fill="#030303" transform="translate(392.25,455.83203125)"/>
<path d="M0 0 C1.71608039 0.45207143 3.43222864 0.9038853 5.1484375 1.35546875 C28.82351606 7.82351606 28.82351606 7.82351606 36 15 C35.625 17.125 35.625 17.125 35 19 C33.02 19.495 33.02 19.495 31 20 C31 20.66 31 21.32 31 22 C32.06154297 22.38285156 32.06154297 22.38285156 33.14453125 22.7734375 C63.72995442 35.91136209 86.969597 67.67129965 99.43359375 97.421875 C100.74904368 100.91334958 101.89237586 104.43906255 103 108 C103.21305283 108.67463287 103.42610565 109.34926575 103.64561462 110.04434204 C107.79639154 123.56658242 108.75762855 136.37485874 108.59692383 150.47436523 C108.56235198 153.82685398 108.57641164 157.17672947 108.59570312 160.52929688 C108.58821829 172.36276679 107.89015482 182.78340188 104 194 C103.48733849 195.70023685 102.97552183 197.40072886 102.46484375 199.1015625 C96.82089402 216.22567203 89.07733024 232.64701466 77.32421875 246.44335938 C75.89191891 248.12705107 74.49300552 249.83564827 73.09375 251.546875 C52.16878931 276.86244687 23.46072482 294.8283706 -9 301 C-9.92683594 301.17805176 -10.85367187 301.35610352 -11.80859375 301.53955078 C-22.12955949 303.27054009 -32.38750556 303.37228848 -42.83056641 303.37060547 C-45.86287489 303.3749825 -48.89372823 303.41143463 -51.92578125 303.44921875 C-63.6225684 303.51681125 -73.82170593 302.5419204 -85 299 C-85.80953125 298.76974121 -86.6190625 298.53948242 -87.453125 298.30224609 C-113.91249269 290.65743362 -136.39181587 274.65790923 -155.609375 255.3828125 C-156.97798136 254.01867871 -158.36855422 252.67424562 -159.81640625 251.39453125 C-179.84929011 233.24393178 -196.57183942 196.75754818 -198.11560059 169.99603271 C-198.27736578 165.33796047 -198.28493505 160.68162231 -198.26074219 156.02124023 C-198.25003516 153.57054824 -198.26068254 151.1205915 -198.2734375 148.66992188 C-198.28693906 136.11839562 -196.95249153 124.69106131 -192.875 112.75 C-192.56933105 111.84958984 -192.26366211 110.94917969 -191.94873047 110.02148438 C-185.56029291 91.7651089 -175.62760204 76.61078313 -163 62 C-162.54753906 61.47374023 -162.09507812 60.94748047 -161.62890625 60.40527344 C-147.58131583 44.19724737 -147.58131583 44.19724737 -139 40 C-134.98985925 41.07938046 -133.22041956 42.49072055 -131.05859375 45.984375 C-130.30425049 47.1919043 -130.30425049 47.1919043 -129.53466797 48.42382812 C-129.02822754 49.27396484 -128.52178711 50.12410156 -128 51 C-127.49742676 51.83466797 -126.99485352 52.66933594 -126.47705078 53.52929688 C-124.96926275 56.08387445 -123.51083607 58.66131857 -122.0625 61.25 C-121.55654297 62.12140625 -121.05058594 62.9928125 -120.52929688 63.890625 C-120.05685547 64.73625 -119.58441406 65.581875 -119.09765625 66.453125 C-118.66976807 67.20754883 -118.24187988 67.96197266 -117.80102539 68.73925781 C-116.8011508 71.56121414 -117.13088404 73.16841243 -118 76 C-119.2421875 77.4921875 -119.2421875 77.4921875 -120.875 78.875 C-137.16541398 94.39605151 -148.19047009 117.45721919 -149.12475586 140.01171875 C-149.79544521 169.56383774 -146.24527132 195.89825301 -126 219 C-125.17628906 219.96808594 -124.35257813 220.93617188 -123.50390625 221.93359375 C-105.95122962 242.16253579 -81.80236946 254.58560769 -55 257 C-24.26560747 258.905986 4.92556988 250.64603687 28.42919922 230.28710938 C43.19914374 216.96897025 51.71455822 200.58842126 58 182 C58.36222656 181.00226563 58.72445313 180.00453125 59.09765625 178.9765625 C60.81090703 173.32505991 61.12730978 167.729254 61.1328125 161.8515625 C61.13376923 161.1947348 61.13472595 160.5379071 61.13571167 159.86117554 C61.13638739 158.4813426 61.13457591 157.10150638 61.13037109 155.72167969 C61.1250315 153.63729517 61.13032797 151.55312779 61.13671875 149.46875 C61.15749372 121.65791605 50.65081634 98.207457 31.3125 78.22265625 C16.98768998 64.70986307 -0.25335856 54.99031546 -19.28515625 49.90625 C-19.85105469 49.6071875 -20.41695312 49.308125 -21 49 C-21.60717773 46.94335938 -21.60717773 46.94335938 -22 45 C-27.03539677 44.97522513 -32.07075781 44.95710451 -37.10620117 44.94506836 C-38.81812152 44.94004901 -40.53003761 44.93323215 -42.24194336 44.92456055 C-44.70687922 44.91238979 -47.17175825 44.90674762 -49.63671875 44.90234375 C-50.39836838 44.89718246 -51.16001801 44.89202118 -51.94474792 44.88670349 C-55.776365 44.88630174 -59.26563784 45.17262149 -63 46 C-64.43628457 46.06266512 -65.8750555 46.08686347 -67.3125 46.0625 C-68.529375 46.041875 -69.74625 46.02125 -71 46 C-76.12499892 37.02074984 -81.15147169 28.01249974 -85.625 18.6875 C-85.96724609 17.98955322 -86.30949219 17.29160645 -86.66210938 16.57250977 C-89.86642711 9.75667279 -89.86642711 9.75667279 -89 6 C-85.19070495 1.82574255 -80.59807634 0.6857784 -75.3125 -0.6875 C-74.56033203 -0.89955078 -73.80816406 -1.11160156 -73.03320312 -1.33007812 C-50.78316915 -7.33285325 -22.04235707 -6.27680551 0 0 Z " fill="#030303" transform="translate(1173,469)"/>
</svg>
