<?xml version="1.0" encoding="UTF-8"?>
<svg version="1.1" xmlns="http://www.w3.org/2000/svg" width="1536" height="1024">
<path d="M0 0 C506.88 0 1013.76 0 1536 0 C1536 337.92 1536 675.84 1536 1024 C1029.12 1024 522.24 1024 0 1024 C0 686.08 0 348.16 0 0 Z " fill="#FCFCFC" transform="translate(0,0)"/>
<path d="M0 0 C1.34375233 -0.00374073 2.68750249 -0.00834393 4.03124923 -0.01373065 C7.70887591 -0.02592369 11.38641138 -0.02570457 15.06405365 -0.02334189 C19.03622651 -0.02293279 23.00837048 -0.03398171 26.98052979 -0.04345703 C34.75696622 -0.06004735 42.53337233 -0.06556567 50.30982498 -0.06668179 C56.63248503 -0.06763313 62.95513509 -0.07174771 69.27779198 -0.07808304 C87.21484382 -0.09568952 105.15187176 -0.10492275 123.08893231 -0.10342209 C124.05527969 -0.10334218 125.02162706 -0.10326227 126.01725769 -0.10317993 C127.46855417 -0.10305729 127.46855417 -0.10305729 128.94916978 -0.10293217 C144.62906442 -0.10211928 160.30886301 -0.1212593 175.98872987 -0.14945666 C192.0996299 -0.17819994 208.21048309 -0.19199619 224.3214094 -0.19026911 C233.36210895 -0.18960575 242.40270776 -0.19507479 251.44338417 -0.21662521 C259.14053613 -0.23485594 266.83754169 -0.23916878 274.53470591 -0.22560637 C278.45916816 -0.21908644 282.38334968 -0.218924 286.30778503 -0.23631287 C289.90605176 -0.25209207 293.5038163 -0.24913125 297.10207113 -0.2317446 C299.00830605 -0.22724498 300.91455684 -0.24229389 302.82073051 -0.25822389 C311.64051499 -0.18784045 319.16535806 1.35014544 326.67326355 6.14242554 C333.07233462 12.73540786 334.03906564 18.23787137 333.9506073 27.10336304 C333.51256181 33.55457843 330.09730253 37.70302428 325.73576355 42.26742554 C322.67326355 44.01742554 322.67326355 44.01742554 319.73576355 45.26742554 C318.39909939 45.92738852 317.06507064 46.59276645 315.73576355 47.26742554 C315.97697937 47.89495728 316.21819519 48.52248901 316.46672058 49.16903687 C317.60379833 52.13717204 318.73224642 55.10852546 319.86076355 58.07992554 C320.23974792 59.06541382 320.6187323 60.0509021 321.00920105 61.06625366 C327.54628672 78.33505497 332.45109712 96.07506239 337.23576355 113.89242554 C337.52089813 114.94946686 337.80603271 116.00650818 338.09980774 117.09558105 C341.98530489 131.50584898 345.75067855 145.92553854 349.08976746 160.47348022 C350.3136555 165.76681913 351.59102869 171.0474348 352.86076355 176.32992554 C353.10963318 177.37027954 353.35850281 178.41063354 353.61491394 179.48251343 C355.36653565 186.79060014 357.1878398 194.0782891 359.07170105 201.35336304 C359.73576355 204.26742554 359.73576355 204.26742554 359.73576355 207.26742554 C361.05387024 207.34960327 361.05387024 207.34960327 362.39860535 207.43344116 C365.97746852 207.65682216 369.55629724 207.88074597 373.13511658 208.10482788 C374.91443889 208.21607467 376.69377725 208.32706509 378.47312927 208.43783569 C384.45949046 208.81051546 390.44553995 209.18777193 396.43132019 209.56967163 C398.53246437 209.70297834 400.63370437 209.83478224 402.73503113 209.96517944 C405.80453721 210.15591431 408.87367975 210.35176109 411.9427948 210.54867554 C412.88331192 210.60599854 413.82382904 210.66332153 414.79284668 210.72238159 C415.66193161 210.77914062 416.53101654 210.83589966 417.42643738 210.89437866 C418.5698333 210.96646545 418.5698333 210.96646545 419.73632812 211.04000854 C421.73576355 211.26742554 421.73576355 211.26742554 424.73576355 212.26742554 C424.7268811 211.07583328 424.71799866 209.88424103 424.70884705 208.65653992 C424.62777839 197.429732 424.56780628 186.20298344 424.52851486 174.97594929 C424.50763566 169.20392475 424.47931147 163.4321364 424.43400574 157.6602478 C424.39056058 152.0905697 424.36662895 146.52111887 424.35625458 140.95128441 C424.34886087 138.82578135 424.3344228 136.70029079 424.31284332 134.57488441 C424.2838275 131.59883317 424.27980685 128.62372231 424.28166199 125.64755249 C424.26728088 124.76785797 424.25289978 123.88816345 424.23808289 122.98181152 C424.26568288 118.89284232 424.42943337 116.7734464 426.5922699 113.20069885 C428.73576355 111.26742554 428.73576355 111.26742554 431.48576355 110.95492554 C432.22826355 111.05805054 432.97076355 111.16117554 433.73576355 111.26742554 C433.6893573 110.15367554 433.64295105 109.03992554 433.59513855 107.89242554 C433.0277853 88.34786104 437.55111361 70.84675017 450.49357605 55.58773804 C456.33283574 49.54501982 463.42454158 42.63694929 471.8959198 40.79867554 C475.54625154 40.73871116 477.48189531 41.08242775 480.4427948 43.24008179 C483.53240738 47.31921254 483.48275447 50.2236297 483.36076355 55.20492554 C483.38009949 55.99060913 483.39943542 56.77629272 483.4193573 57.58578491 C483.38555187 61.62553391 483.04436033 64.42649333 480.5052948 67.65414429 C477.9812058 70.03583052 475.86794573 71.58091264 472.79826355 73.14242554 C466.2343761 76.86946148 462.01370571 82.04253602 459.73576355 89.26742554 C459.24166378 92.63121839 458.95272506 96.00486601 458.67326355 99.39242554 C458.51882576 101.18696711 458.36140135 102.98125483 458.2006073 104.77523804 C458.13478455 105.56559448 458.06896179 106.35595093 458.00114441 107.17025757 C457.73576355 109.26742554 457.73576355 109.26742554 456.73576355 112.26742554 C457.68451355 112.39117554 458.63326355 112.51492554 459.61076355 112.64242554 C462.73576355 113.26742554 462.73576355 113.26742554 464.73576355 115.26742554 C464.98185921 117.106493 464.98185921 117.106493 464.97627258 119.38024902 C464.98039658 120.67173859 464.98039658 120.67173859 464.98460388 121.98931885 C464.97741333 122.93590363 464.97022278 123.8824884 464.96281433 124.85775757 C464.96310638 125.85291382 464.96339844 126.84807007 464.96369934 127.87338257 C464.96230215 131.1740887 464.94672259 134.47457117 464.93107605 137.77523804 C464.92734731 140.05924354 464.92449968 142.34325063 464.92250061 144.6272583 C464.91485325 150.64757683 464.89519529 156.66779933 464.87309265 162.68807983 C464.85265795 168.82779643 464.84350398 174.96752851 464.8334198 181.10726929 C464.81195044 193.16069697 464.77780122 205.21405328 464.73576355 217.26742554 C465.60200851 217.26225922 466.46825348 217.2570929 467.36074829 217.25177002 C468.51116104 217.24775177 469.66157379 217.24373352 470.84684753 217.23959351 C471.9812175 217.23442719 473.11558746 217.22926086 474.28433228 217.22393799 C479.82256263 217.29371891 485.29180112 217.82691956 490.79826355 218.39242554 C492.07322693 218.52004272 493.34819031 218.64765991 494.66178894 218.77914429 C507.18484926 220.05050974 519.69460188 221.45668424 532.20179749 222.8742981 C534.49175354 223.13362501 536.78189157 223.39135075 539.07221985 223.64736938 C550.58231586 224.93869929 561.97951758 226.34070272 573.3400116 228.61117554 C578.25939394 229.5618765 583.20007242 230.17721931 588.17326355 230.76742554 C597.76153139 231.96961459 607.25365435 233.40647181 616.73576355 235.26742554 C617.44474792 235.4022937 618.1537323 235.53716187 618.88420105 235.67611694 C646.51495192 241.00437784 676.69343765 251.58422742 693.89201355 275.23226929 C698.79528092 282.77927597 702.36516838 290.58741532 704.73576355 299.26742554 C704.99760437 300.11200317 705.25944519 300.95658081 705.52922058 301.82675171 C708.67861444 313.6411593 708.11613895 325.71828737 708.01701355 337.85263062 C707.98586705 341.69216731 707.97602947 345.53129052 707.97013855 349.37094116 C707.86229569 384.0408024 707.86229569 384.0408024 703.73576355 394.26742554 C700.74925005 395.29659444 698.61989973 395.65186895 695.67179871 394.3699646 C693.249697 392.94270204 690.89785238 391.43616742 688.54826355 389.89242554 C657.22223163 370.29065556 621.51602078 360.22182921 584.5756073 368.35726929 C583.30845886 368.65762085 582.04131042 368.95797241 580.73576355 369.26742554 C579.38312174 369.5614211 578.03025337 369.85437612 576.6771698 370.14633179 C554.5748952 375.09796153 534.86279281 385.55434287 517.73576355 400.26742554 C517.21288757 400.70667358 516.6900116 401.14592163 516.15129089 401.59848022 C503.58036363 412.21392992 494.13068776 425.19941452 485.73576355 439.26742554 C485.38916687 439.84009155 485.04257019 440.41275757 484.68547058 441.0027771 C478.65007775 451.11184748 475.01546279 461.68335007 471.50675964 472.88412476 C468.34478838 482.6584007 468.34478838 482.6584007 466.73576355 484.26742554 C463.98396094 484.36974338 461.25710737 484.40628371 458.50469971 484.40113831 C457.63137621 484.40340386 456.75805271 484.40566942 455.85826486 484.40800363 C452.90864516 484.41437392 449.95907105 484.41351234 447.00944519 484.41268921 C444.90419454 484.41567881 442.79894444 484.41908087 440.69369507 484.42286682 C434.9582628 484.43173114 429.22284543 484.43404595 423.48740697 484.43468261 C418.70825747 484.43562963 413.92911148 484.43930552 409.14996332 484.4428547 C397.87981486 484.45100844 386.60967439 484.45343809 375.33952332 484.45272827 C363.69305555 484.45212718 352.04663406 484.46268322 340.40017802 484.47847193 C330.41889065 484.49152371 320.43761845 484.49691317 310.45632261 484.49627286 C304.48706052 484.49601718 298.51783952 484.4989066 292.54858589 484.50945091 C286.93689609 484.5190923 281.32528699 484.51923846 275.71359444 484.51193428 C273.64874657 484.5108835 271.58389379 484.51328032 269.51905441 484.51929474 C266.71054328 484.52694825 263.90231554 484.52241432 261.09381104 484.5146637 C260.2676559 484.51980726 259.44150077 484.52495082 258.59031063 484.53025025 C252.96403474 484.49569673 252.96403474 484.49569673 250.73576355 482.26742554 C250.4707489 480.37960815 250.4707489 480.37960815 250.44865417 478.04672241 C250.43513916 477.16887085 250.42162415 476.29101929 250.40769958 475.38656616 C250.40252319 474.42943726 250.3973468 473.47230835 250.39201355 472.48617554 C250.3637188 470.43864914 250.33539745 468.39112311 250.30705261 466.34359741 C250.2958136 465.26908325 250.28457458 464.19456909 250.272995 463.0874939 C250.21104994 457.56362021 250.10740224 452.04060522 250.00138855 446.51742554 C249.98074341 445.43763428 249.96009827 444.35784302 249.93882751 443.24533081 C248.82270626 388.24329845 232.16742068 342.240747 196.03166199 300.78646851 C194.85486879 299.40703986 193.72772215 297.98564079 192.6068573 296.56039429 C190.88820813 294.45424175 189.18389784 292.76415145 187.11076355 291.01742554 C184.92086442 289.1580021 182.76972339 287.30001918 180.69670105 285.31039429 C155.67321571 261.48060877 123.00442428 246.59027006 89.95500183 237.85629272 C88.11532388 237.36814056 86.28202442 236.85602255 84.4506073 236.33773804 C49.1403541 226.70315418 7.9202394 227.53641408 -27.26423645 237.26742554 C-28.02607239 237.46674683 -28.78790833 237.66606812 -29.5728302 237.87142944 C-49.2561236 243.05145337 -67.56260438 250.95094913 -84.64704895 262.01742554 C-90.5141816 265.76267579 -95.33018014 267.05148844 -102.26423645 266.26742554 C-106.97966482 264.57698895 -109.53712603 262.45548796 -112.26423645 258.26742554 C-114.63255493 252.82029304 -115.15852772 247.95029935 -113.26423645 242.26742554 C-108.44442999 235.03771584 -101.11665911 230.69169161 -93.63923645 226.57992554 C-92.28801697 225.82389038 -92.28801697 225.82389038 -90.90950012 225.05258179 C-89.00713426 223.99131546 -87.1020475 222.93491327 -85.19441223 221.88314819 C-82.24160192 220.25494467 -79.29765127 218.61148084 -76.3540802 216.96664429 C-74.42891653 215.89912354 -72.50315259 214.83268445 -70.57673645 213.76742554 C-69.6935675 213.27540649 -68.81039856 212.78338745 -67.90046692 212.27645874 C-52.11505879 203.63547565 -52.11505879 203.63547565 -43.13923645 204.01742554 C-42.02290833 204.05351929 -40.9065802 204.08961304 -39.75642395 204.12680054 C-38.93400208 204.17320679 -38.1115802 204.21961304 -37.26423645 204.26742554 C-37.25005676 203.55844116 -37.23587708 202.84945679 -37.2212677 202.11898804 C-36.86494081 194.16423097 -35.65105943 186.62152095 -34.07673645 178.82992554 C-31.8622979 167.82579458 -30.05264993 156.80324672 -28.38923645 145.70492554 C-26.1634413 130.88466757 -23.74574148 116.10799203 -21.18629456 101.34176636 C-19.17603012 89.74035743 -17.24107717 78.13899148 -15.59382629 66.47909546 C-14.59195536 59.61417985 -13.05035596 52.96977299 -11.26423645 46.26742554 C-12.56361145 46.39117554 -13.86298645 46.51492554 -15.20173645 46.64242554 C-21.99518364 46.62102885 -26.20977667 43.21508603 -30.9400177 38.65023804 C-35.17560959 33.28117789 -35.17597488 26.68895394 -34.81111145 20.12680054 C-33.80592148 13.0330313 -30.37438037 8.71804067 -24.88923645 4.32992554 C-17.7694031 -0.7634937 -8.2957488 -0.02076013 0 0 Z " fill="#059001" transform="translate(502.2642364501953,176.73257446289063)"/>
<path d="M0 0 C1.25103516 -0.03738281 2.50207031 -0.07476562 3.79101562 -0.11328125 C11.17917213 -0.18323749 17.77784374 0.10835165 23.4375 5.375 C24.74625488 8.1621872 25.06849551 10.26481928 25.4375 13.375 C37.81263561 16.75501986 37.81263561 16.75501986 50.4375 16.375 C52.03592451 15.07870742 52.03592451 15.07870742 53.1875 13.375 C54.30125 11.89 54.30125 11.89 55.4375 10.375 C60.88195835 9.7610648 65.25864609 11.06075596 70.25 13.0625 C71.29450317 13.46915894 71.29450317 13.46915894 72.36010742 13.8840332 C88.41863172 20.24088102 88.41863172 20.24088102 91.4375 24.375 C91.45703125 26.79296875 91.45703125 26.79296875 91.25 29.5625 C91.26166893 32.55285658 91.26166893 32.55285658 92.4375 35.375 C96.77863444 38.81472691 101.44303012 41.03053708 106.4375 43.375 C107.4275 44.035 108.4175 44.695 109.4375 45.375 C113.26498905 45.19267408 113.26498905 45.19267408 116.4375 43.375 C123.80326068 42.6528666 127.46447603 45.72147932 132.9453125 50.1796875 C134.15401478 51.19961198 135.35971395 52.22310524 136.5625 53.25 C137.16964844 53.75402344 137.77679687 54.25804687 138.40234375 54.77734375 C142.83755556 58.55548714 147.1300401 62.36189296 147.75 68.4375 C147.4375 71.375 147.4375 71.375 146.7578125 73.7890625 C146.35029324 77.0790351 147.07185801 78.04415748 149 80.6875 C149.55300781 81.45964844 150.10601563 82.23179687 150.67578125 83.02734375 C151.54783203 84.18943359 151.54783203 84.18943359 152.4375 85.375 C152.98792969 86.11878906 153.53835938 86.86257813 154.10546875 87.62890625 C155.1092453 88.97471037 156.12015698 90.31524542 157.140625 91.6484375 C158.29429518 93.1843478 159.37195928 94.77668892 160.4375 96.375 C161.0975 96.045 161.7575 95.715 162.4375 95.375 C165.60059926 94.69213132 168.27910933 94.6284713 171.4375 95.375 C177.30817787 99.66848083 180.24723438 107.62864829 183.375 114 C183.7771875 114.81122314 184.179375 115.62244629 184.59375 116.45825195 C186.83856506 121.25048235 188.12544043 124.97264427 187.4375 130.375 C186.12166243 133.03267983 184.63975144 134.27517886 182.4375 136.375 C181.4475 136.375 180.4575 136.375 179.4375 136.375 C179.60878418 136.99431396 179.78006836 137.61362793 179.95654297 138.25170898 C180.74417289 141.10467369 181.52835466 143.95857567 182.3125 146.8125 C182.71662109 148.27333008 182.71662109 148.27333008 183.12890625 149.76367188 C183.39316406 150.72724609 183.65742187 151.69082031 183.9296875 152.68359375 C184.32462402 154.11602417 184.32462402 154.11602417 184.72753906 155.57739258 C185.39361565 158.20207333 185.88092019 160.81145704 186.3515625 163.4765625 C186.99249027 166.74172115 186.99249027 166.74172115 189.53125 168.83984375 C190.72234375 169.07380859 190.72234375 169.07380859 191.9375 169.3125 C196.3397869 170.2772869 196.3397869 170.2772869 198.4375 172.375 C200.46097231 177.88025958 199.62343969 184.3300245 199.62280273 190.12890625 C199.62499255 192.36737997 199.6431775 194.60536316 199.66210938 196.84375 C199.66504308 198.27083165 199.66702803 199.69791564 199.66796875 201.125 C199.67207764 202.41921875 199.67618652 203.7134375 199.68041992 205.046875 C199.45269939 208.16676067 199.22069649 209.84896012 197.4375 212.375 C194.20717782 214.29944725 192.21926921 215.375 188.4375 215.375 C188.38215088 215.98907715 188.32680176 216.6031543 188.26977539 217.23583984 C188.01368031 220.0739383 187.75684361 222.91196919 187.5 225.75 C187.41298828 226.71550781 187.32597656 227.68101562 187.23632812 228.67578125 C186.67125344 234.91253144 186.07281187 241.14501037 185.4375 247.375 C187.4175 248.365 189.3975 249.355 191.4375 250.375 C192.61784798 259.21121611 190.90710366 265.99300123 187.75 274.1875 C187.41097656 275.07010498 187.07195312 275.95270996 186.72265625 276.86206055 C180.97650311 291.10549844 180.97650311 291.10549844 176.4375 293.375 C175.695 293.2821875 174.9525 293.189375 174.1875 293.09375 C170.67606822 292.81443156 168.70507098 292.9662017 165.4375 294.375 C161.55705472 298.83368738 158.97991976 304.31915021 156.40795898 309.60327148 C155.4375 311.375 155.4375 311.375 153.4375 313.375 C153.72733269 316.68183466 153.72733269 316.68183466 155.4375 319.375 C156.24413965 323.78971702 156.39564994 327.75948298 154.0625 331.69335938 C152.12433437 333.97029337 150.09140147 336.05129699 147.9375 338.125 C147.24140625 338.84042969 146.5453125 339.55585937 145.828125 340.29296875 C133.56292515 352.67173526 133.56292515 352.67173526 127.1875 352.9375 C123.4375 352.375 123.4375 352.375 121.3125 350.75 C120.69375 350.29625 120.075 349.8425 119.4375 349.375 C115.04565363 350.48536794 111.58314149 352.34299536 107.8125 354.8125 C106.89210938 355.40933594 105.97171875 356.00617188 105.0234375 356.62109375 C104.17007812 357.19988281 103.31671875 357.77867187 102.4375 358.375 C101.67308594 358.82230469 100.90867187 359.26960938 100.12109375 359.73046875 C98.15921772 361.30829222 98.15921772 361.30829222 98.07421875 364.1171875 C98.10799081 366.20066376 98.14961971 368.28402792 98.19921875 370.3671875 C97.27286518 374.02509647 95.7143461 375.22070979 92.57495117 377.20507812 C83.08237961 382.40078377 71.70286175 387.82043545 60.69140625 387.0546875 C57.19271332 385.99962239 55.73122306 383.12746768 53.4375 380.375 C45.94508504 378.86481011 38.40454344 380.81999226 31.15234375 382.71875 C28.4375 383.375 28.4375 383.375 25.4375 383.375 C25.29054688 384.29732422 25.29054688 384.29732422 25.140625 385.23828125 C23.91063196 391.88660572 23.91063196 391.88660572 21.5 394.375 C15.70472918 397.18482828 9.59070955 396.63516048 3.29614258 396.67016602 C1.85398543 396.68167992 0.41187071 396.70212291 -1.0300293 396.73168945 C-3.12057261 396.77453925 -5.20985234 396.79055746 -7.30078125 396.80078125 C-8.54899658 396.81536377 -9.79721191 396.82994629 -11.08325195 396.8449707 C-15.19993654 396.28889619 -17.33809005 394.94082997 -20.5625 392.375 C-22.68522015 389.38389434 -22.76336799 386.99062381 -22.5625 383.375 C-24.27179688 383.17777344 -24.27179688 383.17777344 -26.015625 382.9765625 C-31.24199659 382.32499283 -36.39408504 381.32860749 -41.55859375 380.3046875 C-46.62762897 379.34680412 -46.62762897 379.34680412 -51.5625 380.375 C-52.078125 381.220625 -52.59375 382.06625 -53.125 382.9375 C-55.97711926 385.78961926 -56.59004072 385.7488283 -60.46875 385.79296875 C-67.05825296 385.64130601 -72.47124342 383.63731006 -78.5 381.125 C-80.02077148 380.53138672 -80.02077148 380.53138672 -81.57226562 379.92578125 C-86.4087337 377.9758503 -90.13918532 376.45063367 -93.5625 372.375 C-93.63671875 369.82421875 -93.63671875 369.82421875 -93.25 367.0625 C-93.08819031 362.83359871 -93.08819031 362.83359871 -95.19921875 359.3125 C-97.5681505 357.46035092 -99.9724218 355.90238435 -102.5625 354.375 C-103.4596875 353.80652344 -104.356875 353.23804688 -105.28125 352.65234375 C-108.66748815 350.54590443 -111.77066515 348.63894495 -115.5625 347.375 C-116.47 347.849375 -117.3775 348.32375 -118.3125 348.8125 C-122.28405305 350.7219005 -124.19998052 351.11441008 -128.5625 350.375 C-131.91403287 348.43914408 -134.687923 345.95265213 -137.5625 343.375 C-138.09810547 342.89820801 -138.63371094 342.42141602 -139.18554688 341.93017578 C-153.35982915 329.26659457 -153.35982915 329.26659457 -153.9375 323.875 C-153.5625 320.375 -153.5625 320.375 -151.9375 318.3125 C-151.48375 317.673125 -151.03 317.03375 -150.5625 316.375 C-151.76587519 310.7926762 -154.89845979 306.71619115 -158.1875 302.1875 C-159.20692563 300.78196692 -160.2202544 299.37198562 -161.2265625 297.95703125 C-161.67467285 297.34061768 -162.1227832 296.7242041 -162.58447266 296.08911133 C-163.5625 294.375 -163.5625 294.375 -163.5625 291.375 C-164.13226563 291.69210937 -164.70203125 292.00921875 -165.2890625 292.3359375 C-169.08714823 294.07183235 -172.49553423 294.35078688 -176.5625 293.375 C-184.00134267 287.96009066 -188.71023375 273.93179875 -191.5625 265.375 C-191.87109375 263.2890625 -191.87109375 263.2890625 -192 261 C-192.06058594 260.24976563 -192.12117188 259.49953125 -192.18359375 258.7265625 C-191.5625 256.375 -191.5625 256.375 -188.5 254.09375 C-186.82358631 252.89266541 -186.82358631 252.89266541 -185.5625 251.375 C-185.41402637 248.28548485 -185.54745331 246.20639514 -186.125 243.25 C-186.36446036 241.73846758 -186.60273976 240.22674759 -186.83984375 238.71484375 C-186.96601074 237.97862793 -187.09217773 237.24241211 -187.22216797 236.48388672 C-187.68698252 233.603637 -187.94936048 230.7193142 -188.1875 227.8125 C-188.26226562 226.94496094 -188.33703125 226.07742188 -188.4140625 225.18359375 C-188.48753906 224.28833984 -188.48753906 224.28833984 -188.5625 223.375 C-189.59375 223.4575 -190.625 223.54 -191.6875 223.625 C-196.20195299 223.33374497 -198.12191555 222.2421537 -201.5625 219.375 C-202.74835363 215.81743912 -202.74343271 212.55987196 -202.765625 208.85546875 C-202.77132507 208.11927811 -202.77702515 207.38308746 -202.78289795 206.62458801 C-202.79233756 205.06704134 -202.79887781 203.5094748 -202.80273438 201.9519043 C-202.81242231 199.58150914 -202.84344675 197.21198797 -202.875 194.84179688 C-202.88153241 193.32552596 -202.88678195 191.80924887 -202.890625 190.29296875 C-202.9029718 189.58963913 -202.9153186 188.88630951 -202.92803955 188.16166687 C-202.90716347 183.49708892 -202.0601657 180.31573706 -199.5625 176.375 C-196.47361478 174.31574319 -195.85314073 174.1359626 -192.375 174.25 C-191.116875 174.29125 -189.85875 174.3325 -188.5625 174.375 C-187.88545589 170.85608123 -187.22275513 167.33460423 -186.5625 163.8125 C-186.37171875 162.82185547 -186.1809375 161.83121094 -185.984375 160.81054688 C-184.51367497 153.13649933 -184.51367497 153.13649933 -184.5625 145.375 C-187.39318782 142.93180773 -187.39318782 142.93180773 -190.5625 141.375 C-192.08558848 139.85191152 -191.79823233 138.4887477 -191.86328125 136.3671875 C-191.80132191 131.05548637 -190.09312451 127.18829274 -187.75 122.5 C-184.91157861 116.52359421 -182.55660701 110.8410658 -181.1328125 104.34375 C-180.5625 102.375 -180.5625 102.375 -178.5625 100.375 C-176.609375 100.14453125 -176.609375 100.14453125 -174.3125 100.1875 C-173.56484375 100.19394531 -172.8171875 100.20039062 -172.046875 100.20703125 C-169.17437375 100.40124124 -166.39417587 100.86349786 -163.5625 101.375 C-162.89863281 100.43398438 -162.23476563 99.49296875 -161.55078125 98.5234375 C-160.6589835 97.2655333 -159.7670491 96.00772597 -158.875 94.75 C-158.22241211 93.82380859 -158.22241211 93.82380859 -157.55664062 92.87890625 C-155.39241488 89.83295891 -153.19772946 86.92231577 -150.72265625 84.12109375 C-148.19896423 81.5226725 -148.19896423 81.5226725 -148.6875 78.0625 C-149.30238103 75.48396656 -149.30238103 75.48396656 -150.5625 74.375 C-151.09724498 69.6034294 -151.22669633 66.66861724 -148.21875 62.8125 C-147.18759071 61.64780094 -146.13440075 60.50231635 -145.0625 59.375 C-144.51658203 58.77341064 -143.97066406 58.17182129 -143.40820312 57.55200195 C-141.81258433 55.80673517 -140.19139476 54.08916368 -138.5625 52.375 C-137.758125 51.50230469 -136.95375 50.62960937 -136.125 49.73046875 C-131.72304098 45.10340955 -129.49207759 43.58425554 -123.0625 43.125 C-119.5625 43.375 -119.5625 43.375 -117.5 44.9375 C-115.62007909 46.6509857 -115.62007909 46.6509857 -112.99609375 46.2421875 C-105.75312865 44.41290621 -98.09931431 40.43732991 -92.5625 35.375 C-91.51240936 32.31297099 -91.61508184 30.79078042 -92.453125 27.69921875 C-92.5625 25.375 -92.5625 25.375 -90.7734375 22.87890625 C-86.80840991 19.33585121 -81.80535153 17.59468924 -76.9375 15.625 C-75.98359375 15.22667969 -75.0296875 14.82835937 -74.046875 14.41796875 C-63.88461759 10.19562236 -63.88461759 10.19562236 -59.1875 9.875 C-58.43726563 9.8028125 -57.68703125 9.730625 -56.9140625 9.65625 C-53.09698004 10.82293301 -51.58515681 14.08698945 -49.5625 17.375 C-48.37914062 17.1584375 -47.19578125 16.941875 -45.9765625 16.71875 C-37.75690623 15.25610658 -29.94543094 13.96937431 -21.5625 14.375 C-21.68625 13.158125 -21.81 11.94125 -21.9375 10.6875 C-21.95592325 8.08982109 -21.91913672 6.82850102 -20.296875 4.765625 C-13.79742379 -0.59799978 -8.12547495 0.09014647 0 0 Z " fill="#010101" transform="translate(533.5625,426.625)"/>
<path d="M0 0 C23.83482243 18.69523808 40.14441715 41.71808259 48.875 70.8125 C49.07826904 71.48579346 49.28153809 72.15908691 49.4909668 72.8527832 C57.89281687 102.46848599 50.75749435 137.30985078 36.13745117 163.78857422 C32.3456226 170.28597809 27.81494053 176.11768579 23 181.875 C22.21882813 182.82117188 21.43765625 183.76734375 20.6328125 184.7421875 C1.03041609 207.42955121 -27.59624114 221.6341052 -57 225.875 C-57.99858032 226.02533691 -57.99858032 226.02533691 -59.01733398 226.17871094 C-88.00756986 230.22302335 -118.92176897 222.55649515 -142.921875 205.83984375 C-145.36708808 203.92999564 -147.69390092 201.95009089 -150 199.875 C-150.83917969 199.13121094 -151.67835937 198.38742187 -152.54296875 197.62109375 C-154.25068579 196.0942242 -155.94883096 194.55657424 -157.63671875 193.0078125 C-159.0666183 191.7173577 -160.52173298 190.45317333 -162.01953125 189.2421875 C-181.76012633 173.24064607 -195.08322519 144.44315697 -197.80517578 119.47802734 C-198.98036228 103.77647542 -199.57307665 87.06941597 -195 71.875 C-194.6596875 70.6684375 -194.319375 69.461875 -193.96875 68.21875 C-183.94281623 35.43123687 -161.70333815 7.64244566 -131.65698242 -8.71289062 C-90.63222219 -30.39846005 -37.70699173 -27.11288353 0 0 Z " fill="#030302" transform="translate(1186,586.125)"/>
<path d="M0 0 C1.03743347 -0.00852997 2.07486694 -0.01705994 3.14373779 -0.02584839 C4.28661255 -0.02494202 5.4294873 -0.02403564 6.60699463 -0.02310181 C7.80709167 -0.02981903 9.00718872 -0.03653625 10.24365234 -0.04345703 C13.54142938 -0.05923486 16.8389546 -0.06581422 20.13675213 -0.0670886 C22.8900418 -0.06898641 25.64330725 -0.07634301 28.39658761 -0.08343279 C34.89512115 -0.09973148 41.39359926 -0.1046006 47.89215088 -0.10317993 C54.59163915 -0.10197969 61.29080463 -0.12305423 67.99021125 -0.15466726 C73.74317938 -0.18084511 79.49604224 -0.19154653 85.24906945 -0.19026911 C88.68442889 -0.18975969 92.1195019 -0.19543046 95.55480194 -0.21662521 C99.39003512 -0.23963954 103.22482868 -0.23047738 107.06011963 -0.21841431 C108.19489746 -0.22965332 109.32967529 -0.24089233 110.49884033 -0.25247192 C116.6614778 -0.20317509 120.44157307 0.06739 125.09234619 4.26742554 C138.01815514 23.20183048 142.23813659 50.711471 146.96539307 72.68148804 C148.29893056 78.84065321 149.75033537 84.91024952 151.52984619 90.95492554 C154.11014967 99.77165943 155.99351271 108.73491882 157.90927124 117.71362305 C160.29920324 128.90345621 162.94361738 139.99467674 165.87115479 151.05795288 C166.28615234 152.65824341 166.28615234 152.65824341 166.70953369 154.29086304 C166.95300537 155.20786987 167.19647705 156.12487671 167.44732666 157.06967163 C168.9626232 164.58191767 169.24307344 172.17238369 169.253479 179.81625366 C169.25844391 180.71182983 169.26340881 181.60740601 169.26852417 182.53012085 C169.2829736 185.45298052 169.28991307 188.37578624 169.29547119 191.29867554 C169.29971226 192.80366859 169.29971226 192.80366859 169.304039 194.33906555 C169.31894926 199.63224546 169.32823447 204.92539861 169.33258057 210.21859741 C169.338102 215.69095643 169.36222953 221.16307124 169.39055252 226.63535309 C169.40911862 230.84568015 169.41438092 235.05594709 169.41591644 239.26631165 C169.41894923 241.28541929 169.42699873 243.30452573 169.44010162 245.32359314 C169.45706116 248.1338419 169.45530867 250.94347524 169.4487915 253.75375366 C169.45800629 254.59112061 169.46722107 255.42848755 169.47671509 256.29122925 C169.45983887 258.60153198 169.45983887 258.60153198 169.09234619 262.26742554 C165.60282517 264.59377288 164.17438144 264.53381565 160.0479126 264.57382202 C158.80297028 264.58980942 157.55802795 264.60579681 156.27536011 264.62226868 C154.91488046 264.62864544 153.5543959 264.63403816 152.19390869 264.63851929 C150.79769799 264.64748724 149.40148827 264.65660912 148.00527954 264.6658783 C145.07822333 264.68236644 142.15128146 264.690068 139.22418213 264.69296265 C135.47902896 264.69834522 131.73495508 264.73601841 127.99010658 264.78170681 C125.10582588 264.81149636 122.22180443 264.81868659 119.33738327 264.8196888 C117.95708652 264.82388777 116.57678877 264.83630946 115.19664383 264.85720634 C113.26313726 264.88415028 111.32924034 264.87618327 109.39556885 264.86679077 C108.29653229 264.87186142 107.19749573 264.87693207 106.06515503 264.88215637 C101.44886431 263.92757893 99.32794706 260.91899724 96.59771729 257.2696228 C96.1911792 256.63081177 95.78464111 255.99200073 95.36578369 255.33383179 C94.89737061 254.60978149 94.42895752 253.8857312 93.9463501 253.13973999 C93.45827881 252.37750122 92.97020752 251.61526245 92.46734619 250.82992554 C83.66690542 237.40416836 73.8228123 225.48580947 62.68804932 213.93051147 C61.30269892 212.48666097 59.9378002 211.02324089 58.57672119 209.55648804 C51.80121145 202.43528902 44.08787372 196.66986606 36.20904541 190.84164429 C34.28150041 189.40810217 32.37369419 187.95276212 30.47125244 186.48617554 C21.9539283 179.991078 12.98688969 174.40539783 3.77154541 168.9493103 C2.82037842 168.38397583 1.86921143 167.81864136 0.88922119 167.23617554 C-0.38936768 166.48497437 -0.38936768 166.48497437 -1.69378662 165.71859741 C-3.86541649 164.29511176 -5.33216629 163.32436991 -6.90765381 161.26742554 C-7.28238392 158.42070675 -7.28238392 158.42070675 -7.28187561 154.88386536 C-7.28585002 154.23342839 -7.28982442 153.58299142 -7.29391927 152.91284424 C-7.30355811 150.72930322 -7.29171531 148.54640756 -7.27996826 146.36288452 C-7.28239569 144.79920204 -7.28611454 143.23552111 -7.29103088 141.67184448 C-7.30044947 137.42194076 -7.29100682 133.17226695 -7.27769876 128.92238116 C-7.26639898 124.48035307 -7.27049057 120.03833655 -7.27244568 115.59629822 C-7.27332903 108.13710768 -7.26223892 100.67800797 -7.24383545 93.21884155 C-7.22265944 84.58631951 -7.21915934 75.95393047 -7.22539741 67.32138771 C-7.23108518 59.02667506 -7.22545284 50.73200941 -7.21422386 42.43730354 C-7.20957087 38.90264075 -7.20870703 35.36800663 -7.21080971 31.8333416 C-7.21268859 27.6743688 -7.20461969 23.51553205 -7.18874931 19.35659027 C-7.18449451 17.82711665 -7.1836639 16.29762926 -7.18643951 14.76815224 C-7.18964482 12.68661785 -7.18062195 10.6054942 -7.16835022 8.52400208 C-7.16527092 6.77383112 -7.16527092 6.77383112 -7.1621294 4.98830318 C-6.70211511 0.06978591 -4.34210804 0.01608497 0 0 Z " fill="#FBFBFB" transform="translate(659.9076538085938,223.73257446289063)"/>
<path d="M0 0 C1.59303026 0.05700864 3.18725414 0.07963611 4.78125 0.09277344 C30.3936509 1.14644816 54.05994895 14.62063169 71.9375 32.06933594 C72.90236328 32.94138672 72.90236328 32.94138672 73.88671875 33.83105469 C89.50817356 48.28727277 101.47624378 71.63140115 102.51182556 92.95018005 C102.58534645 96.06253688 102.58462409 99.16826574 102.53442383 102.28100586 C102.49994649 104.63549047 102.51390117 106.98622586 102.53320312 109.34082031 C102.5234127 119.78217035 100.95388264 129.08965503 97.9375 139.06933594 C97.69684814 139.89119385 97.45619629 140.71305176 97.20825195 141.55981445 C89.08505983 167.79049095 69.0920847 189.28093979 45.04589844 202.02880859 C21.32546277 213.73521165 -8.49673475 217.93310661 -34.0625 210.06933594 C-35.10277344 209.8025 -36.14304687 209.53566406 -37.21484375 209.26074219 C-61.57514572 202.61702347 -85.6587735 185.12254602 -98.65942383 163.40454102 C-112.65577062 138.85240611 -118.69616145 109.19533819 -112.03515625 81.37402344 C-103.52341719 52.45462084 -85.72493411 28.50721987 -59.21875 13.92089844 C-40.49910299 3.98079786 -21.13403877 -0.77529762 0 0 Z " fill="#FBFBFB" transform="translate(540.0625,519.9306640625)"/>
<path d="M0 0 C1.71509766 0.76183594 1.71509766 0.76183594 3.46484375 1.5390625 C22.61718775 10.96997168 33.54788613 27.53677707 41.09765625 46.80078125 C46.85676858 64.45313022 41.58768418 82.8069893 34 99 C31.93185913 102.58576943 29.61056956 105.79195989 27 109 C26.34386719 109.83015625 25.68773437 110.6603125 25.01171875 111.515625 C13.62178959 125.09192081 -3.23201999 134.29539695 -21 136 C-40.46505789 137.32444634 -59.96705123 132.98015847 -75.0300293 119.96923828 C-83.98511528 111.74887737 -89.92690506 103.01497678 -95 92 C-95.8353125 90.2675 -95.8353125 90.2675 -96.6875 88.5 C-103.17114526 71.2102793 -102.77144201 54.79129178 -95.19921875 37.890625 C-91.62647147 30.26493199 -87.69041129 23.26952395 -82 17 C-81.39671875 16.31679688 -80.7934375 15.63359375 -80.171875 14.9296875 C-60.27230864 -6.34505215 -26.31673944 -11.79612667 0 0 Z " fill="#F9F9F9" transform="translate(1142,624)"/>
<path d="M0 0 C0.8555397 -0.00350464 1.71107941 -0.00700928 2.59254456 -0.01062012 C5.42367641 -0.01943096 8.25455892 -0.01359108 11.08569336 -0.00683594 C13.04959664 -0.00818265 15.0134996 -0.01012323 16.97740173 -0.01263428 C21.09401625 -0.01558456 25.210544 -0.01129049 29.32714844 -0.00195312 C34.61246414 0.00944883 39.8975769 0.00287661 45.18288517 -0.00909805 C49.2379663 -0.01631283 53.29299903 -0.01403062 57.34808159 -0.00884247 C59.29739849 -0.0075053 61.24671974 -0.00915602 63.19603157 -0.01380157 C65.91596304 -0.01886135 68.63556213 -0.01116471 71.35546875 0 C72.16643005 -0.00404846 72.97739136 -0.00809692 73.81292725 -0.01226807 C79.38450736 0.03025931 79.38450736 0.03025931 81.61303711 2.25878906 C81.86471939 4.74819946 81.86471939 4.74819946 81.86700439 7.95263672 C81.87264404 9.16413391 81.87828369 10.3756311 81.88409424 11.62384033 C81.88020529 12.97351133 81.87610893 14.32318175 81.87182617 15.67285156 C81.87453504 17.08860454 81.87809538 18.5043561 81.88244629 19.92010498 C81.89158504 23.77127266 81.88801996 27.6223335 81.88168812 31.47350311 C81.87663579 35.49780065 81.88131743 39.52208884 81.88446045 43.54638672 C81.88810234 50.3053553 81.88329517 57.06428023 81.8737793 63.82324219 C81.86289431 71.6451524 81.86641973 79.46695836 81.87743211 87.28886604 C81.88649865 93.99632219 81.88779337 100.7037469 81.88255477 107.4112072 C81.87943157 111.42090438 81.87903527 115.43055252 81.88562775 119.44024658 C81.89139141 123.20933174 81.88742242 126.97828206 81.87583923 130.7473526 C81.87318738 132.13331122 81.87396666 133.51928112 81.87836456 134.90523529 C81.88380051 136.79179996 81.8757865 138.67838934 81.86700439 140.56494141 C81.86625034 141.6224057 81.86549629 142.67987 81.86471939 143.76937866 C81.61303711 146.25878906 81.61303711 146.25878906 79.61303711 148.25878906 C75.00352081 147.85805278 70.58972844 146.84533775 66.10522461 145.73535156 C64.86901367 145.43628906 63.63280273 145.13722656 62.35913086 144.82910156 C59.83180658 144.21193458 57.30569802 143.58976164 54.78100586 142.96191406 C34.32202041 138.04166474 14.37358656 136.78559127 -6.63696289 136.63378906 C-10.33745039 136.59723629 -14.03783377 136.55679064 -17.73822021 136.51113892 C-20.01847095 136.48397925 -22.29879944 136.46259908 -24.5791626 136.44760132 C-25.59242615 136.43733917 -26.6056897 136.42707703 -27.6496582 136.41650391 C-28.54340149 136.41000824 -29.43714478 136.40351257 -30.35797119 136.39682007 C-32.38696289 136.25878906 -32.38696289 136.25878906 -33.38696289 135.25878906 C-34.09426719 126.93650496 -32.71849974 118.88796075 -31.26196289 110.72363281 C-30.92065031 108.741332 -30.57934199 106.75903045 -30.23821259 104.77669811 C-29.87624818 102.6833459 -29.50988048 100.59081012 -29.14208984 98.49847412 C-27.99139417 91.95208037 -26.86445106 85.40158286 -25.73692322 78.85116577 C-25.48237619 77.37315668 -25.22746167 75.89521082 -24.97218323 74.41732788 C-23.2289932 64.32270384 -21.55921248 54.22053909 -19.98071289 44.09863281 C-19.70868042 42.35938789 -19.70868042 42.35938789 -19.43115234 40.58500671 C-18.7482427 36.2066236 -18.06753726 31.82802457 -17.4050293 27.44650269 C-16.95868439 24.49468553 -16.50172803 21.54467343 -16.04321289 18.59472656 C-15.91861694 17.74349716 -15.794021 16.89226776 -15.66564941 16.01524353 C-14.87654344 11.00181696 -13.74017986 6.77734286 -11.38696289 2.25878906 C-7.55496764 -0.29587443 -4.4408011 -0.02222474 0 0 Z " fill="#FBFAFB" transform="translate(539.386962890625,222.7412109375)"/>
<path d="M0 0 C9.12838143 6.52643334 16.9102279 15.58248647 18.85302734 26.95410156 C20.07876941 38.87232314 17.40480119 48.60138165 11.66796875 59.0859375 C4.16943375 68.29842335 -5.26071551 76.13359592 -17.51953125 77.7734375 C-31.73002586 78.72523075 -41.5474287 75.82182035 -52.7421875 67.02734375 C-59.99782675 60.5266265 -66.09352293 49.70712475 -66.79296875 39.96484375 C-67.18492305 27.48740598 -65.65018446 18.29818607 -57.33203125 8.4609375 C-41.14946368 -8.20309489 -20.08990903 -12.77032977 0 0 Z " fill="#040303" transform="translate(558.51953125,591.2265625)"/>
<path d="M0 0 C9.52407332 4.48970999 16.35098932 12.24507824 19.96484375 22.12890625 C21.50651831 31.80261989 19.70497842 40.92651854 13.9765625 48.89453125 C7.84479712 56.13827481 1.47247965 60.5551852 -8.13671875 61.40234375 C-16.44423392 61.64180649 -22.06393942 60.70085152 -29.03515625 56.12890625 C-29.94265625 55.57203125 -30.85015625 55.01515625 -31.78515625 54.44140625 C-39.31704755 46.70029575 -42.48699008 37.81006751 -42.46899414 27.22485352 C-42.2428145 19.00261356 -39.17435762 14.27059725 -33.78515625 8.37890625 C-29.99282862 4.79494827 -25.69058324 2.42343442 -21.03515625 0.12890625 C-15.44277698 -2.66728338 -5.89443135 -1.69170938 0 0 Z " fill="#050504" transform="translate(1124.03515625,659.87109375)"/>
<path d="M0 0 C1.4904227 0.18014988 2.98090283 0.35982516 4.47143555 0.5390625 C7.62816496 0.92059508 10.78397802 1.30892279 13.93945312 1.70068359 C18.27775044 2.23647598 22.619216 2.74073396 26.96205139 3.23823547 C30.52668399 3.64937325 34.08950826 4.07488718 37.65206909 4.50357056 C39.37258541 4.70816343 41.09372379 4.90759645 42.81546021 5.10165405 C45.22935109 5.37537727 47.63992559 5.66961399 50.05078125 5.96875 C51.11730927 6.08280937 51.11730927 6.08280937 52.2053833 6.19917297 C57.02812107 6.82683779 60.14989277 8.28550585 63.9375 11.3125 C66.29370437 14.84680656 66.42741613 16.14821287 65.9375 20.3125 C62.77960526 25.89144737 62.77960526 25.89144737 59.9375 27.3125 C53.98759923 27.71751629 48.03616111 27.15336594 42.125 26.5 C41.42697266 26.42974609 40.72894531 26.35949219 40.00976562 26.28710938 C35.852822 25.84184978 31.72132821 25.28767608 27.59155273 24.63916016 C18.8291127 23.26426036 10.09750805 22.04773549 1.26171875 21.25 C0.38458725 21.17070755 -0.49254425 21.0914151 -1.39625549 21.00971985 C-4.96876918 20.69196015 -8.54185382 20.38225661 -12.1159668 20.08300781 C-14.78274749 19.8572234 -17.44793116 19.61701123 -20.11328125 19.375 C-21.31021355 19.28109985 -21.31021355 19.28109985 -22.53132629 19.18530273 C-28.38228121 18.6420396 -33.98961461 17.71972174 -38 13.0625 C-39.37357303 9.50736979 -39.61213298 7.09122677 -39.0625 3.3125 C-29.75129197 -5.99870803 -11.95064419 -1.48775044 0 0 Z " fill="#F3F3F3" transform="translate(1109.0625,498.6875)"/>
<path d="M0 0 C1.80507838 0.22904039 3.61025581 0.4573015 5.41552734 0.68481445 C8.1666119 1.03173981 10.91759182 1.3793564 13.66818237 1.73017883 C19.61623478 2.48791259 25.56747324 3.20970171 31.5234375 3.90234375 C33.03743894 4.07971807 34.55143644 4.25712605 36.06542969 4.43457031 C38.19651385 4.68410089 40.32770579 4.93211892 42.45959473 5.17468262 C60.10264031 7.18686115 60.10264031 7.18686115 63.66015625 10.5625 C65.63399438 14.52432563 65.35093154 18.44332399 64.75 22.75 C63.4375 25.375 63.4375 25.375 60.75 26.75 C49.74464477 28.3192439 37.06238517 25.70119927 26.1875 23.77734375 C18.72682845 22.50774459 11.21953161 21.85758437 3.6875 21.1875 C1.58754222 20.99962047 -0.51224616 20.81037544 -2.61167908 20.61671448 C-4.49217895 20.44331948 -6.37315346 20.27509473 -8.25415039 20.10717773 C-11.25 19.75 -11.25 19.75 -14.25 18.75 C-17.99488521 18.51512915 -21.73878132 18.36833464 -25.48828125 18.2265625 C-30.36014827 17.60935816 -33.664525 15.87652171 -37.625 13.0625 C-39.67506235 10.14510358 -39.87842992 8.16617463 -39.71484375 4.65234375 C-39.25 2.75 -39.25 2.75 -36.875 0.3125 C-26.72541481 -5.72891976 -11.22792685 -1.45880389 0 0 Z " fill="#F4F4F5" transform="translate(1109.25,462.25)"/>
</svg>
