<?xml version="1.0" encoding="UTF-8"?>
<svg version="1.1" xmlns="http://www.w3.org/2000/svg" width="1536" height="1024">
<path d="M0 0 C506.88 0 1013.76 0 1536 0 C1536 337.92 1536 675.84 1536 1024 C1029.12 1024 522.24 1024 0 1024 C0 686.08 0 348.16 0 0 Z " fill="#FCFCFC" transform="translate(0,0)"/>
<path d="M0 0 C0.94351846 -0.00526326 1.88703691 -0.01052652 2.85914683 -0.01594928 C4.40463513 -0.00935455 4.40463513 -0.00935455 5.98134542 -0.0026266 C7.08523791 -0.00583308 8.18913041 -0.00903955 9.32647419 -0.0123432 C13.05165887 -0.02069123 16.77668478 -0.01470207 20.5018723 -0.00884742 C23.18914825 -0.01186592 25.8764126 -0.01567268 28.56368494 -0.02043998 C34.41993069 -0.02921447 40.27614147 -0.03050967 46.13239217 -0.02693671 C54.84092734 -0.02163753 63.54942857 -0.02771713 72.25796005 -0.03601964 C88.71561428 -0.05127801 105.17325316 -0.05296279 121.63091299 -0.05049662 C134.33905336 -0.04866536 147.04718868 -0.05042004 159.75532842 -0.05472106 C161.57983304 -0.05532345 163.40433765 -0.05592465 165.22884227 -0.05652466 C167.97807147 -0.0574319 170.72730067 -0.05834056 173.47652986 -0.05925701 C199.04561982 -0.06768951 224.61470787 -0.07202023 250.18379903 -0.06785029 C251.63035079 -0.06761573 251.63035079 -0.06761573 253.10612583 -0.06737643 C257.99413017 -0.06657062 262.8821345 -0.06572485 267.77013883 -0.06486312 C269.22634511 -0.06460649 269.22634511 -0.06460649 270.7119697 -0.06434468 C272.67517331 -0.06399802 274.63837692 -0.06364949 276.60158053 -0.06329909 C307.14772192 -0.05794211 337.69383444 -0.06587044 368.23997045 -0.08433264 C402.54524702 -0.10504252 436.85050572 -0.11577722 471.1557889 -0.11175716 C474.81280907 -0.1113618 478.46982924 -0.11100026 482.12684941 -0.11065978 C483.02732422 -0.11056905 483.92779902 -0.11047831 484.85556094 -0.11038483 C498.45779299 -0.10921815 512.060007 -0.11587262 525.66223454 -0.1264717 C541.13066206 -0.13851253 556.59904981 -0.14009563 572.06747791 -0.12768153 C580.7261631 -0.12104381 589.38475324 -0.12270496 598.04343085 -0.13627005 C603.82638024 -0.14450016 609.60925826 -0.14183576 615.39220182 -0.13029478 C618.68775011 -0.12402396 621.98307538 -0.12412475 625.27861986 -0.13415811 C628.83016435 -0.14422246 632.38120679 -0.13587714 635.93273091 -0.12288111 C636.95369178 -0.13019046 637.97465265 -0.13749981 639.02655172 -0.14503065 C646.66500545 -0.08691846 653.78363386 0.83530888 659.726125 5.99458677 C663.91487526 11.55754448 663.01290806 18.73960814 662.93024755 25.36804467 C662.93286526 26.92501741 662.93812108 28.48198756 662.94578254 30.03894365 C662.95918578 34.31045976 662.93521837 38.58107158 662.90511417 42.85247248 C662.8791915 47.46111719 662.88797247 52.06971134 662.89252782 56.67840844 C662.8956732 64.66093723 662.87685615 72.64317164 662.84310079 80.62562639 C662.79432825 92.16684898 662.77871106 103.70792932 662.77117284 115.2492438 C662.75804266 133.97439535 662.71811732 152.69939004 662.66135716 171.42445642 C662.60627894 189.61357604 662.56381037 207.80265305 662.53831029 225.99183923 C662.53673395 227.1131105 662.53515761 228.23438178 662.5335335 229.38963097 C662.52570325 235.01474705 662.518121 240.63986343 662.51066208 246.26498002 C662.4484667 292.92737833 662.34279205 339.58960557 662.20872045 386.251849 C615.7483873 386.50788676 615.7483873 386.50788676 596.19504857 386.60902673 C594.51735717 386.61770471 594.51735717 386.61770471 592.80577302 386.62655801 C560.10291704 386.79494219 527.39992979 386.93423452 494.69691014 387.06656152 C490.95246707 387.08174442 487.20802404 387.09693904 483.46358109 387.11215061 C480.97269336 387.12226851 478.48180556 387.13236723 475.99091768 387.1424467 C458.06198497 387.21528012 440.13315699 387.30149999 422.20432591 387.39589196 C402.63796425 387.49877863 383.07164677 387.57970095 363.50508142 387.63189775 C352.37234526 387.66221432 341.23997689 387.70989055 330.10742241 387.78057837 C322.51668076 387.82705409 314.92607299 387.85129617 307.33519262 387.85785282 C302.98481107 387.86223132 298.63503721 387.8761356 294.28482938 387.91665727 C290.3156269 387.95341446 286.34736848 387.96201611 282.37802708 387.94875699 C280.95160096 387.94883095 279.52512917 387.95893411 278.09886682 387.98054868 C267.15793917 388.13781261 258.01441259 385.97263363 249.83372045 378.314349 C232.90902005 362.70100554 207.69997297 362.6238107 186.20872045 363.251849 C168.83383162 364.07793188 153.42525304 372.63054045 140.47434545 383.77138025 C133.60115137 388.26265707 125.6510079 387.54803706 117.74949193 387.54237634 C116.38875009 387.54836783 115.02801163 387.5551748 113.66727757 387.56273156 C109.98763616 387.58032924 106.30808787 387.58508411 102.62840843 387.58636314 C100.32723317 387.58778809 98.02608135 387.59206406 95.72491193 387.59735757 C87.6909351 387.61583263 79.65702446 387.62403078 71.62302709 387.62245446 C64.14239786 387.62125164 56.66205649 387.64238779 49.18150014 387.67394179 C42.74903294 387.70010501 36.31665983 387.71082185 29.88413984 387.70954365 C26.04644911 387.7090343 22.20901479 387.71470273 18.37137723 387.73589975 C14.76379489 387.75528484 11.15671368 387.75540531 7.54911351 387.74086648 C5.5989189 387.73778424 3.64872421 387.75445028 1.69860387 387.77174646 C-9.20913034 387.69338319 -9.20913034 387.69338319 -13.79127955 383.251849 C-16.59752881 379.36740164 -17.16860293 376.67319456 -17.17997622 371.91176397 C-17.19026626 370.62485274 -17.2005563 369.33794152 -17.21115816 368.01203299 C-17.20743575 366.58592333 -17.20342154 365.15981441 -17.19914699 363.7337063 C-17.20546775 362.21716027 -17.2130826 360.70061917 -17.22188103 359.18408549 C-17.24219274 355.01500452 -17.243708 350.84609545 -17.24208975 346.67697304 C-17.24353331 342.1812637 -17.26211581 337.68561989 -17.2783401 333.18994409 C-17.31046807 323.35943574 -17.32027455 313.52897984 -17.32598233 303.69842583 C-17.32973223 297.56094093 -17.3385389 291.42347006 -17.34848094 285.28599244 C-17.37542077 268.29465285 -17.39793007 251.30332683 -17.40035892 234.31196386 C-17.40051449 233.22457102 -17.40067006 232.13717818 -17.40083035 231.01683404 C-17.40112141 228.8124091 -17.40140678 226.60798417 -17.4016865 224.40355923 C-17.40182936 223.30927366 -17.40197221 222.21498809 -17.4021194 221.08754236 C-17.40225907 219.99192211 -17.40239873 218.89630187 -17.40254264 217.76748101 C-17.40567874 200.00954713 -17.44227644 182.25185704 -17.49375565 164.49400368 C-17.54618139 146.2644323 -17.57247208 128.03498136 -17.57191002 109.80533278 C-17.5721628 99.56909276 -17.58343049 89.33313294 -17.62308574 79.09696275 C-17.65667662 70.3817972 -17.6661829 61.66702097 -17.64432879 52.95181086 C-17.63388237 48.50504355 -17.63474275 44.05903899 -17.66609263 39.61235315 C-17.69452193 35.54012832 -17.69054504 31.46925872 -17.66093366 27.39705417 C-17.65589811 25.92532588 -17.66265358 24.45349923 -17.68249817 22.98189612 C-17.83806797 10.64231669 -17.83806797 10.64231669 -13.54990649 5.44565564 C-9.64401835 1.53338545 -5.4932532 0.002434 0 0 Z " fill="#000000" transform="translate(282.79127955436707,242.74815100431442)"/>
<path d="M0 0 C0.7743527 -0.00523668 1.54870541 -0.01047336 2.34652334 -0.01586872 C4.93790091 -0.03085436 7.52908076 -0.03157357 10.12049866 -0.03224182 C11.98027377 -0.03986464 13.84004573 -0.04829235 15.69981384 -0.0574646 C20.75195563 -0.07941325 25.80403688 -0.08820982 30.85622096 -0.09329104 C34.01677017 -0.09693631 37.17730358 -0.10317748 40.33784676 -0.11029243 C51.37656982 -0.13479497 62.41524589 -0.14783911 73.45399475 -0.15138245 C83.72122406 -0.15501112 93.98815323 -0.18485657 104.25529093 -0.22678703 C113.08442256 -0.26157212 121.91345522 -0.27693236 130.74265486 -0.27762848 C136.00923566 -0.27841895 141.27551117 -0.28705026 146.5420208 -0.31562614 C151.50389288 -0.34194543 156.46520974 -0.3439351 161.42712021 -0.3279705 C163.23860836 -0.32616658 165.05012943 -0.33275016 166.86154747 -0.34878922 C183.49782599 -0.48699434 197.8587231 2.85212279 210.6051178 14.41868591 C217.12857967 21.21255035 221.65176101 29.13258353 226.24183655 37.27415466 C227.25338578 39.05419892 228.26511495 40.83414094 229.2769928 42.61399841 C231.50058616 46.53431498 233.71560012 50.45934612 235.9254303 54.38743591 C242.74065103 66.49745245 249.66199515 78.54693434 256.61146545 90.58030701 C258.50542233 93.86018195 260.39720276 97.1413049 262.28871155 100.42259216 C264.30722854 103.92412188 266.32782797 107.4243391 268.35707092 110.91966248 C291.5203828 150.8244645 291.5203828 150.8244645 291.46888733 166.06712341 C291.46917938 166.79980942 291.46947144 167.53249542 291.46977234 168.28738403 C291.46839296 170.6789334 291.45289842 173.07016057 291.43714905 175.46165466 C291.43341395 177.13173757 291.43056933 178.80182268 291.42857361 180.47190857 C291.42097623 184.84487572 291.40136166 189.21770778 291.37916565 193.59062195 C291.35862284 198.06193719 291.34955393 202.53327448 291.3394928 207.00462341 C291.31811171 215.76119548 291.28402339 224.51765822 291.24183655 233.27415466 C286.31229306 233.56007959 281.38268656 233.84488327 276.45301819 234.12864685 C274.77591703 234.22534341 273.09883353 234.32234664 271.42176819 234.41966248 C269.01157633 234.55946644 266.60132319 234.69816837 264.1910553 234.83665466 C263.44095688 234.88040222 262.69085846 234.92414978 261.91802979 234.96922302 C259.02084662 235.1348299 256.14447663 235.27415466 253.24183655 235.27415466 C253.1429901 240.34611815 253.07038002 245.41752166 253.02210999 250.49021912 C253.00198916 252.21590439 252.97468906 253.94152144 252.94007874 255.66697693 C252.89157896 258.14688436 252.8688735 260.62589095 252.85121155 263.10618591 C252.83056641 263.87815811 252.80992126 264.65013031 252.78865051 265.44549561 C252.7538618 269.75879521 252.7538618 269.75879521 255.07875061 273.22215271 C259.36786701 275.30813494 263.12946901 275.42266036 267.79652405 275.44993591 C269.31346502 275.47313361 270.83039215 275.49725093 272.3473053 275.52220154 C274.7326536 275.55730185 277.11749193 275.58665835 279.50306702 275.6000824 C281.80984288 275.61559455 284.11514076 275.65581704 286.42152405 275.69993591 C287.13001495 275.6980275 287.83850586 275.69611908 288.56846619 275.69415283 C291.8014983 275.77365203 294.23893516 276.27285636 297.1934967 277.59495544 C300.50963346 281.93241489 299.91575841 286.40749905 299.83558655 291.71556091 C299.83562683 292.83478439 299.83566711 293.95400787 299.83570862 295.10714722 C299.83034962 297.47171142 299.81275098 299.83627495 299.78382874 302.20066833 C299.74195236 305.8266266 299.74276129 309.45072964 299.74964905 313.07688904 C299.73915769 315.37312595 299.72621988 317.66935326 299.71058655 319.96556091 C299.71038513 321.05309158 299.71018372 322.14062225 299.7099762 323.2611084 C299.69406433 324.26902939 299.67815247 325.27695038 299.66175842 326.31541443 C299.65333923 327.2026973 299.64492004 328.08998016 299.63624573 329.00415039 C299.15111378 331.79630547 298.43432601 332.5272062 296.24183655 334.27415466 C294.32657337 334.64329815 294.32657337 334.64329815 292.12265015 334.63491821 C290.86696228 334.6411042 290.86696228 334.6411042 289.58590698 334.64741516 C288.6709697 334.63662933 287.75603241 334.62584351 286.81336975 334.61473083 C285.84732819 334.61516891 284.88128662 334.61560699 283.88597107 334.61605835 C280.68798214 334.61396577 277.49051532 334.59061227 274.2926178 334.56712341 C272.07730394 334.56152914 269.86198637 334.55725825 267.64666748 334.55426025 C261.81207558 334.54279827 255.97770723 334.51331928 250.14320374 334.48014832 C244.19108606 334.44947669 238.23893232 334.43576113 232.28675842 334.42063904 C220.6050195 334.38845101 208.92344661 334.33723819 197.24183655 334.27415466 C196.44639628 329.7560698 196.09100539 325.42343076 195.92933655 320.83665466 C195.13043014 306.1544172 190.32330216 293.94915148 183.24183655 281.27415466 C182.40652405 279.77368591 182.40652405 279.77368591 181.55433655 278.24290466 C177.05232983 270.71070112 171.37157386 264.49324674 165.24183655 258.27415466 C164.58441467 257.60384216 163.9269928 256.93352966 163.24964905 256.24290466 C144.40031921 238.44525418 118.27187924 234.68707766 93.42933655 235.00462341 C72.19107676 235.65158721 51.04800391 248.73975098 36.42201233 263.55052185 C31.41083462 268.88570536 27.72714825 274.85301734 24.24183655 281.27415466 C23.7107428 282.20485779 23.17964905 283.13556091 22.63246155 284.09446716 C15.76101355 296.81018795 11.66153541 310.41656404 11.3473053 324.85618591 C11.24183655 328.27415466 11.24183655 328.27415466 10.24183655 334.27415466 C-127.69816345 334.27415466 -265.63816345 334.27415466 -407.75816345 334.27415466 C-408.73742475 330.35710949 -408.93041329 327.04733086 -409.07066345 323.02415466 C-409.81977144 308.6075467 -413.76758297 293.90634091 -421.4417572 281.56712341 C-422.75816345 279.27415466 -422.75816345 279.27415466 -422.75816345 276.27415466 C-289.10816345 276.27415466 -155.45816345 276.27415466 -17.75816345 276.27415466 C-17.95616382 189.09341366 -17.95616382 189.09341366 -18.20860291 101.91282654 C-18.23118591 85.06419373 -18.23118591 85.06419373 -18.23538208 77.18052673 C-18.2400467 71.66577005 -18.25839529 66.15126634 -18.28604126 60.63658142 C-18.31788243 54.27564768 -18.33233992 47.91495674 -18.3253882 41.55394271 C-18.32237765 38.30030422 -18.32992336 35.04731779 -18.35423911 31.79375362 C-18.37908967 28.30691948 -18.37312239 24.82144447 -18.35943604 21.33457947 C-18.37399936 20.32318153 -18.38856268 19.3117836 -18.40356731 18.26973724 C-18.33522621 11.79697257 -17.21059775 7.14274181 -12.75816345 2.27415466 C-8.81158324 -0.24011317 -4.56009081 -0.01531589 0 0 Z " fill="#D44F01" transform="translate(982.7581634521484,370.72584533691406)"/>
<path d="M0 0 C1.23633682 -0.00554901 2.47267365 -0.01109802 3.74647522 -0.01681519 C7.13147012 -0.02659538 10.51493509 -0.01401932 13.89976716 0.00946999 C17.44877418 0.02961519 20.99774856 0.0236973 24.54679871 0.0213623 C30.50952531 0.02141586 36.47193486 0.04115646 42.43457031 0.07324219 C49.31412444 0.11008365 56.1932626 0.11892451 63.0729025 0.11194468 C69.7038931 0.1056224 76.33474199 0.116429 82.96570396 0.13591003 C85.78090126 0.14405436 88.59602583 0.14679905 91.4112339 0.1452179 C95.35113162 0.14416959 99.29065815 0.16843705 103.23046875 0.1953125 C104.39074585 0.1923819 105.55102295 0.18945129 106.74645996 0.18643188 C115.31600502 0.27642454 122.51987939 1.50745752 128.99291992 7.56054688 C137.33734692 16.99961914 142.91412126 29.0677797 148.94360352 40.02709961 C153.16904567 47.70260041 157.49618288 55.31024609 161.93432617 62.86523438 C188.92433976 108.89894377 188.92433976 108.89894377 189.12182617 124.05273438 C189.15083008 124.79072266 189.17983398 125.52871094 189.2097168 126.2890625 C189.2701465 131.51855635 188.33892884 134.51693916 184.80932617 138.61523438 C181.23607996 141.04604247 177.53845451 140.95228479 173.36010742 140.98632812 C172.27261955 141.00347366 172.27261955 141.00347366 171.16316223 141.02096558 C165.60112846 141.08700472 160.03886839 141.05673768 154.47729492 140.96679688 C153.7439241 140.95857407 153.01055328 140.95035126 152.25495911 140.94187927 C143.84347835 140.74416273 136.49308048 139.07047273 128.80932617 135.61523438 C127.78274902 135.16390137 126.75617188 134.71256836 125.69848633 134.24755859 C120.7773246 132.07542643 115.86645361 129.88309307 110.97802734 127.63818359 C99.47256019 122.36356599 87.75350069 117.79923304 75.80932617 113.61523438 C74.86138184 113.27564697 73.9134375 112.93605957 72.93676758 112.58618164 C65.4929752 109.99365464 58.03494828 108.21246106 50.30932617 106.67773438 C49.0619165 106.42467529 47.81450684 106.17161621 46.52929688 105.91088867 C31.64495228 102.92467323 16.69488642 100.22270444 1.71166992 97.77929688 C0.97343994 97.65385498 0.23520996 97.52841309 -0.52539062 97.39916992 C-2.37823993 97.08456023 -4.23356423 96.78461452 -6.08911133 96.48632812 C-11.06210972 95.08962958 -14.32967553 92.90673182 -17.19067383 88.61523438 C-17.40039842 85.95452071 -17.49473435 83.396955 -17.49707031 80.73486328 C-17.50539383 79.93291031 -17.51371735 79.13095734 -17.52229309 78.30470276 C-17.54641275 75.65035159 -17.55516753 72.99624605 -17.56176758 70.34179688 C-17.57073239 68.49718145 -17.57985421 66.65256678 -17.58912659 64.80795288 C-17.60562446 60.93933341 -17.61331815 57.07080057 -17.61621094 53.20214844 C-17.62159572 48.24642511 -17.65927602 43.29151653 -17.7049551 38.33602333 C-17.73470694 34.52528922 -17.74193408 30.71475175 -17.74293709 26.90391159 C-17.7471431 25.07705325 -17.75959269 23.25019453 -17.78045464 21.42345047 C-17.8073311 18.86649026 -17.80255573 16.31142417 -17.79003906 13.75439453 C-17.80487335 13.00097275 -17.81970764 12.24755096 -17.83499146 11.47129822 C-17.78539873 7.91113404 -17.24755987 5.71039709 -15.41513062 2.64498901 C-10.43862537 -0.4876579 -5.76736924 -0.06558412 0 0 Z " fill="#FBFBFB" transform="translate(1045.190673828125,399.384765625)"/>
<path d="M0 0 C2.73201974 2.20437645 5.30023082 4.49070257 7.83203125 6.921875 C10.06228729 9.14097363 10.06228729 9.14097363 13.0625 11.3125 C27.19031106 24.23794416 34.51002933 42.07232076 35.41796875 60.91015625 C36.06245343 83.84157756 31.95079124 101.11832677 17 119 C16.18402344 120.03447266 16.18402344 120.03447266 15.3515625 121.08984375 C4.73526121 134.07363007 -14.41140896 143.90331451 -31 146 C-55.46070329 147.93799005 -74.77889713 142.72635689 -94 127 C-94.825 126.34 -95.65 125.68 -96.5 125 C-110.40197411 113.35240007 -118.90707822 94.86200483 -121 77 C-122.68651658 52.03955457 -116.46453941 32.26588962 -100 13 C-74.43787696 -14.22148806 -31.77832548 -21.02481018 0 0 Z " fill="#060505" transform="translate(524,631)"/>
<path d="M0 0 C19.3555937 -0.60866647 37.65035275 5.94728613 52.6640625 18.1953125 C53.45554687 18.82308594 54.24703125 19.45085938 55.0625 20.09765625 C68.09751639 30.97499928 78.93654023 49.09113164 80.6640625 66.1953125 C81.87540997 90.13323863 79.03762135 112.08184962 62.84765625 130.828125 C62.12707031 131.60929688 61.40648437 132.39046875 60.6640625 133.1953125 C59.83003906 134.12085938 58.99601562 135.04640625 58.13671875 136 C44.731278 150.19399609 28.0851802 156.81418731 8.72265625 157.43359375 C-15.55510959 157.84275932 -35.1257345 152.78411327 -52.91064453 135.64404297 C-68.83203176 119.46084465 -75.6484375 98.68755033 -75.6484375 76.484375 C-75.41142536 58.53609218 -68.16811038 41.68398958 -56.3359375 28.1953125 C-55.75585938 27.46183594 -55.17578125 26.72835937 -54.578125 25.97265625 C-43.46637927 12.42004587 -25.48154388 2.89635975 -8.1484375 0.5078125 C-5.43468415 0.28880784 -2.71802969 0.15913523 0 0 Z " fill="#040404" transform="translate(1083.3359375,618.8046875)"/>
<path d="M0 0 C1.02633545 0.00692871 2.0526709 0.01385742 3.11010742 0.02099609 C17.12784502 0.39819233 30.73908046 3.60971147 44.375 6.625 C46.85783096 7.15737965 49.34089826 7.68865849 51.82421875 8.21875 C63.41669762 10.71896443 74.99131986 13.2856069 86.375 16.625 C87.48101563 16.93308594 88.58703125 17.24117188 89.7265625 17.55859375 C118.55585275 26.28408847 149.98407186 43.03509575 165.67578125 69.84765625 C166.375 71.625 166.375 71.625 166.375 74.625 C142.60113881 74.69505013 118.82729307 74.7479686 95.05334949 74.78043652 C84.01494206 74.79591196 72.97659872 74.81701445 61.93823242 74.85131836 C52.31831227 74.88119994 42.69843854 74.90057007 33.07847327 74.90726548 C27.98375847 74.91117984 22.88917645 74.92039325 17.79450417 74.94219017 C13.00028745 74.96253566 8.20625835 74.9688377 3.41200256 74.96432304 C1.65156726 74.96514911 -0.10887424 74.97112628 -1.86927223 74.98261642 C-4.27185915 74.99753037 -6.67373658 74.99395786 -9.07633972 74.98576355 C-9.77381905 74.99450207 -10.47129838 75.0032406 -11.18991345 75.01224393 C-15.49649918 74.97251084 -18.20014418 74.26130135 -21.625 71.625 C-23.58619302 68.08444386 -23.88390973 65.01676973 -23.91552734 61.01196289 C-23.92828705 59.91054459 -23.94104675 58.80912628 -23.95419312 57.67433167 C-23.95641876 56.49402878 -23.95864441 55.31372589 -23.9609375 54.09765625 C-23.9709227 52.26514565 -23.9709227 52.26514565 -23.98110962 50.39561462 C-23.9912261 47.81429549 -23.99592695 45.23295026 -23.99560547 42.65161133 C-23.9999801 38.70545366 -24.03631706 34.76041311 -24.07421875 30.81445312 C-24.08008677 28.30469132 -24.08405626 25.79492421 -24.0859375 23.28515625 C-24.10030853 22.10687759 -24.11467957 20.92859894 -24.12948608 19.71461487 C-24.0944483 13.42498793 -24.04413586 9.29852691 -19.625 4.625 C-13.76877341 0.38150362 -7.00859755 -0.07967694 0 0 Z " fill="#D44F01" transform="translate(987.625,279.375)"/>
<path d="M0 0 C8.19399541 6.42888573 16.40192265 18.22134146 17.9140625 28.61328125 C19.18605709 43.84460106 16.02935802 57.03921747 6.9140625 69.61328125 C1.51189534 75.65808539 -4.68007304 79.44984908 -12.0859375 82.61328125 C-12.84688721 82.95496338 -13.60783691 83.29664551 -14.3918457 83.64868164 C-23.33060961 86.84913984 -37.55054856 86.4412685 -46.4921875 83.36328125 C-59.29740553 77.24397352 -70.65179559 66.50966519 -75.49047852 52.94897461 C-78.34440532 41.75442039 -77.71107292 26.78504698 -72.76171875 16.30078125 C-65.59246451 4.80323598 -54.78731889 -4.34161022 -41.68359375 -8.0703125 C-26.66098075 -11.51151137 -12.78381622 -8.49860442 0 0 Z " fill="#F6F6F6" transform="translate(1116.0859375,660.38671875)"/>
<path d="M0 0 C2.03443296 1.43371456 3.83702037 2.96777234 5.671875 4.6484375 C6.40921875 5.27234375 7.1465625 5.89625 7.90625 6.5390625 C16.11388577 13.97551102 21.41717266 22.30697205 22.27734375 33.4296875 C22.91320428 49.50156697 20.40477827 61.17832895 10.18359375 73.984375 C2.2072793 82.44447835 -8.6498129 87.37258108 -20.21875 87.9921875 C-21.98405686 88.03801209 -23.74980273 88.06920678 -25.515625 88.0859375 C-26.34698975 88.09616943 -27.17835449 88.10640137 -28.03491211 88.11694336 C-40.10976553 87.94566035 -50.82842708 82.41290662 -59.734375 74.41015625 C-70.41516421 62.60369563 -72.07403835 48.48388439 -71.80078125 33.234375 C-71.15671478 21.2616034 -64.1820617 11.89147984 -55.53125 4.01171875 C-39.67814887 -8.9917547 -17.49968322 -10.15921207 0 0 Z " fill="#F6F6F6" transform="translate(506.328125,657.3515625)"/>
<path d="M0 0 C0.81763038 0.00092179 1.63526075 0.00184359 2.47766781 0.00279331 C3.88068645 0.00073132 3.88068645 0.00073132 5.31204891 -0.00137234 C6.34638561 0.00222294 7.38072231 0.00581821 8.44640255 0.00952244 C9.52919491 0.00937641 10.61198727 0.00923038 11.72759151 0.00907993 C15.32585778 0.0097796 18.92407301 0.0175745 22.52233028 0.02539158 C25.00954822 0.02725557 27.49676652 0.02867956 29.98398495 0.0296793 C35.87363594 0.03311433 41.76326794 0.04100506 47.65291113 0.05102879 C55.01367777 0.06328536 62.37444668 0.06866992 69.73522091 0.0742197 C82.87129802 0.08495968 96.00735986 0.10184693 109.14342403 0.12304783 C108.3665601 2.16539318 107.58747459 4.20689356 106.80748653 6.24804783 C106.37387814 7.38500095 105.94026974 8.52195408 105.49352169 9.69336033 C104.2414467 12.87403835 102.90497938 15.9991486 101.51842403 19.12304783 C97.21785843 29.4552243 95.80441622 39.61588627 95.35436153 50.68945408 C95.18809738 53.39586498 94.84671184 55.54373805 94.14342403 58.12304783 C83.39069254 58.19253041 72.63801437 58.24585028 61.88510418 58.27848434 C56.89219138 58.29414635 51.89943208 58.31539446 46.90660763 58.34936619 C42.08906958 58.38194046 37.27167925 58.39989681 32.45403957 58.40767956 C30.61520467 58.41322653 28.77637794 58.42405833 26.93760586 58.440238 C24.36378098 58.46198667 21.79056806 58.46501584 19.21666622 58.463624 C18.07407093 58.47980274 18.07407093 58.47980274 16.90839291 58.49630833 C13.74042505 58.47774721 11.48169012 58.30379563 8.66326046 56.79780674 C6.28624222 54.17849034 6.75708085 51.87821311 6.89342403 48.43554783 C6.92951778 47.25605564 6.96561153 46.07656345 7.00279903 44.86132908 C7.04920528 43.95769627 7.09561153 43.05406345 7.14342403 42.12304783 C5.40270626 42.16232395 5.40270626 42.16232395 3.62682247 42.20239353 C-0.68173765 42.29294393 -4.99021383 42.35031432 -9.29944706 42.39770603 C-11.16384878 42.4228393 -13.02815206 42.45695166 -14.8922205 42.50024509 C-17.57329428 42.56095135 -20.25306499 42.5892684 -22.93470097 42.61132908 C-23.76713322 42.63713551 -24.59956547 42.66294193 -25.45722294 42.68953037 C-29.5304798 42.69150125 -31.22857472 42.6724048 -34.38318729 39.91284275 C-35.93721299 36.97036526 -36.35974466 35.29558638 -36.35266972 31.99804783 C-36.35331425 31.04414158 -36.35395878 30.09023533 -36.35462284 29.10742283 C-36.33464237 28.12257908 -36.3146619 27.13773533 -36.29407597 26.12304783 C-36.30116581 25.13820408 -36.30825565 24.15336033 -36.31556034 23.13867283 C-36.26597418 17.49347922 -36.05154124 13.31801311 -31.85657597 9.12304783 C-29.7109877 9.03529178 -27.56253175 9.01609564 -25.41516972 9.02539158 C-24.10999393 9.02861423 -22.80481815 9.03183689 -21.46009159 9.0351572 C-20.07141907 9.04351382 -18.68274719 9.05197878 -17.29407597 9.06054783 C-15.90149941 9.06556117 -14.50892115 9.07012436 -13.11634159 9.0742197 C-9.69637726 9.08605349 -6.27649753 9.10253903 -2.85657597 9.12304783 C-2.87720097 7.82367283 -2.89782597 6.52429783 -2.91907597 5.18554783 C-2.94057051 3.8313915 -2.92805795 2.475487 -2.85657597 1.12304783 C-1.85657597 0.12304783 -1.85657597 0.12304783 0 0 Z " fill="#D44F00" transform="translate(293.85657596588135,646.8769521713257)"/>
<path d="M0 0 C6.66635166 4.05777927 10.89150413 8.43403488 13.875 15.75 C15.43649356 24.01247256 13.84059556 30.85160442 9.80078125 38.140625 C6.35941477 42.80357187 1.9595124 45.2077438 -3.125 47.75 C-11.6823455 48.59503787 -18.85097254 48.63797781 -26.1015625 43.53125 C-31.21021958 39.0340538 -34.75669423 33.52872153 -35.42578125 26.6640625 C-35.46106384 16.76141657 -33.57813682 11.05435527 -27.13671875 3.546875 C-20.11186854 -2.72774849 -8.658749 -3.47879099 0 0 Z " fill="#070606" transform="translate(492.125,675.25)"/>
<path d="M0 0 C0.70817871 0.00572021 1.41635742 0.01144043 2.14599609 0.01733398 C9.30412358 0.26220427 12.96699653 2.31354605 17.859375 7.25 C23.96319889 13.9932721 24.74707831 19.66730289 24.49609375 28.57421875 C23.72312317 36.75143387 19.17126428 40.86714992 13.1875 46.0546875 C7.00821483 50.3848684 0.41638291 50.30544346 -6.875 49.5 C-14.34374707 47.30631063 -19.05555578 43.20405944 -22.875 36.5 C-25.97787456 30.15321112 -25.92931106 22.03208522 -23.875 15.3125 C-19.60861197 5.48565364 -10.47795581 -0.09791324 0 0 Z " fill="#070707" transform="translate(1086.875,673.5)"/>
</svg>
